<svg width="92" height="70" viewBox="0 0 92 70" fill="none" xmlns="http://www.w3.org/2000/svg">
<path d="M58.6012 34.1301H53.8213V22.3301L60.8681 16.376L58.6012 34.1301Z" fill="#C3A11C"/>
<path d="M45.7494 23.0816L41.4065 18.9017L45.7494 13.6709L50.0785 18.9017L45.7494 23.0816Z" fill="#C3A11C"/>
<path d="M53.4523 30.5246V16.1709L46.0088 23.3545L53.4523 30.5246Z" fill="#C3A11C"/>
<path d="M32.9115 34.1301H37.6914V22.3301L30.6445 16.376L32.9115 34.1301Z" fill="#C3A11C"/>
<path d="M38.0605 16.1709V34.103H44.9434V31.0436H46.569V34.103H53.4523V31.0167L38.0605 16.1709Z" fill="black"/>
<path d="M4.27248 44.7554L6.8536 47.3092C7.07233 47.5279 7.26324 47.7054 7.4412 47.8421C7.61868 47.9783 7.78225 48.1011 7.93286 48.1831C8.08348 48.2652 8.23314 48.3333 8.38375 48.374C8.53389 48.4153 8.68403 48.4287 8.83417 48.4426V48.6335H5.51532V48.4426C5.73405 48.4426 5.88418 48.4014 5.96573 48.3328C6.04775 48.2512 6.07509 48.1692 6.07509 48.0872C6.07509 48.0459 6.07509 48.0186 6.06118 47.9917C6.06118 47.9639 6.04775 47.9375 6.02041 47.8963C5.99307 47.855 5.96573 47.8143 5.91105 47.7596C5.85636 47.7054 5.78825 47.6368 5.70623 47.5413L3.28868 45.1372V47.3907C3.28868 47.5548 3.28868 47.6915 3.30211 47.7869C3.31602 47.8963 3.31602 47.9778 3.34336 48.0464C3.35679 48.1145 3.38413 48.1692 3.4249 48.2105C3.46568 48.2512 3.50693 48.2925 3.57504 48.3198C3.72518 48.4019 3.87532 48.4426 4.03936 48.4426H4.27201V48.634H1.29516V48.4426H1.54075C1.8276 48.4426 2.03242 48.3611 2.16912 48.1831C2.25115 48.0738 2.29192 47.8008 2.29192 47.3917V42.8847C2.29192 42.7345 2.29192 42.5978 2.27801 42.5024C2.27801 42.393 2.26458 42.3115 2.23724 42.2429C2.2099 42.1743 2.18255 42.1201 2.15569 42.0788C2.11444 42.038 2.07367 41.9968 2.00555 41.969C1.84199 41.8874 1.67794 41.8462 1.5278 41.8462H1.28125V41.6553H4.25857V41.8462H4.02641C3.90362 41.8462 3.76643 41.874 3.61677 41.9282C3.48007 41.9824 3.38461 42.0783 3.32993 42.2151C3.28916 42.3249 3.26182 42.5566 3.26182 42.8981V45.0422C3.26182 45.0422 3.30259 45.001 3.37118 44.9468C3.43977 44.8926 3.50789 44.824 3.58991 44.7559C3.67194 44.6873 3.74005 44.6057 3.82207 44.5376C3.89067 44.469 3.94487 44.4143 3.98612 44.3875C4.35499 44.0464 4.66917 43.7457 4.92868 43.5001C5.18818 43.254 5.393 43.0492 5.54314 42.8712C5.69327 42.6942 5.80264 42.5575 5.87123 42.4343C5.93935 42.3249 5.96669 42.2294 5.96669 42.1474C5.96669 42.0659 5.92592 41.9973 5.85732 41.9426C5.78921 41.8879 5.66641 41.8606 5.48845 41.8606H5.32441V41.6692H7.89209V41.8601C7.79664 41.8601 7.7007 41.874 7.60525 41.8874C7.50979 41.9013 7.40043 41.9287 7.29154 41.9829C7.1817 42.0376 7.04547 42.1196 6.89533 42.2151C6.74519 42.3249 6.56724 42.475 6.3629 42.6655C6.32212 42.7067 6.21276 42.8022 6.04919 42.9796C5.88514 43.1566 5.63955 43.4027 5.32537 43.7169L4.27248 44.7554Z" fill="black"/>
<path d="M13.081 41.4781C13.5315 41.4781 13.955 41.5736 14.3507 41.7511C14.7604 41.9425 15.1153 42.1885 15.4161 42.5162C15.7303 42.8443 15.9624 43.2261 16.1538 43.664C16.3313 44.1005 16.4268 44.5787 16.4268 45.0838C16.4268 45.6163 16.3313 46.1084 16.1538 46.5588C15.9763 47.0092 15.7303 47.4059 15.4161 47.7331C15.1024 48.0612 14.7469 48.3207 14.3239 48.5116C13.9003 48.703 13.4633 48.7984 12.9851 48.7984C12.5074 48.7984 12.0565 48.703 11.6468 48.5255C11.2372 48.348 10.8683 48.0885 10.568 47.7748C10.2673 47.4462 10.0217 47.0644 9.84422 46.6135C9.66674 46.1626 9.58472 45.671 9.58472 45.1246C9.58472 44.6195 9.66626 44.1552 9.84422 43.7043C10.0217 43.2673 10.2673 42.885 10.568 42.5569C10.8822 42.2288 11.2511 41.9693 11.6742 41.7784C12.1116 41.5736 12.5755 41.4781 13.081 41.4781ZM12.9717 41.8604C12.6162 41.8604 12.3025 41.9425 12.0291 42.0931C11.7562 42.2432 11.524 42.462 11.3326 42.7349C11.1413 43.0078 11.0045 43.3493 10.9096 43.7451C10.8136 44.1413 10.7594 44.5922 10.7594 45.0834C10.7594 45.575 10.8002 46.0259 10.8961 46.4356C10.9916 46.8452 11.1283 47.2006 11.3197 47.487C11.5106 47.7873 11.7428 48.006 12.0162 48.1696C12.2891 48.3336 12.6167 48.4156 12.9722 48.4156C13.2998 48.4156 13.5866 48.3614 13.8735 48.2247C14.1464 48.1019 14.3925 47.911 14.5973 47.6515C14.8021 47.392 14.9662 47.0634 15.075 46.6543C15.1844 46.2581 15.2525 45.7664 15.2525 45.2066C15.2525 44.6742 15.2117 44.2094 15.1158 43.7858C15.0204 43.3628 14.8837 43.0208 14.6788 42.7205C14.4879 42.4336 14.2419 42.2149 13.9684 42.0653C13.6821 41.942 13.354 41.8604 12.9717 41.8604ZM12.0843 39.8252C12.2344 39.8252 12.3711 39.8799 12.4805 39.9892C12.5903 40.0986 12.6445 40.2353 12.6445 40.3855C12.6445 40.5356 12.5903 40.6723 12.4805 40.7817C12.3711 40.891 12.2349 40.9452 12.0843 40.9452C11.9342 40.9452 11.7974 40.891 11.6881 40.7817C11.5787 40.6718 11.524 40.5356 11.524 40.3855C11.524 40.2353 11.5787 40.0981 11.6881 39.9892C11.7974 39.8804 11.9202 39.8252 12.0843 39.8252ZM13.9003 39.8252C14.0505 39.8252 14.1872 39.8799 14.297 39.9892C14.4064 40.0986 14.4606 40.2353 14.4606 40.3855C14.4606 40.5356 14.4059 40.6723 14.297 40.7817C14.1872 40.891 14.0644 40.9452 13.9003 40.9452C13.7502 40.9452 13.6135 40.891 13.5041 40.7817C13.3948 40.6718 13.3405 40.5356 13.3405 40.3855C13.3405 40.2353 13.3952 40.0981 13.5041 39.9892C13.6135 39.8804 13.7363 39.8252 13.9003 39.8252Z" fill="black"/>
<path d="M17.5747 41.6421H19.4593L23.7341 46.8868V42.8581C23.7341 42.6259 23.7202 42.4345 23.6795 42.2978C23.6521 42.1616 23.5979 42.0517 23.5293 41.9841C23.4607 41.9155 23.3926 41.8747 23.2972 41.8608C23.2017 41.8474 23.1063 41.8335 22.983 41.8335H22.7374V41.6426H25.1679V41.8335H24.9084C24.7856 41.8335 24.6762 41.8474 24.5803 41.8608C24.4848 41.8886 24.4162 41.9294 24.3481 41.9975C24.2795 42.0661 24.2388 42.175 24.2114 42.3117C24.1841 42.4484 24.1702 42.6254 24.1702 42.8581V48.7441H23.9788L19.4037 43.1176V47.4197C19.4037 47.6653 19.4176 47.8433 19.4583 47.9795C19.4852 48.1162 19.5399 48.2117 19.5951 48.2803C19.6636 48.3489 19.7318 48.3896 19.8272 48.4031C19.9227 48.417 20.0181 48.4309 20.1409 48.4309H20.3865V48.6218H17.956V48.4309H18.2016C18.3244 48.4309 18.4338 48.417 18.5292 48.4031C18.6252 48.3896 18.6933 48.3345 18.7614 48.2668C18.8295 48.1982 18.8707 48.1028 18.8981 47.9661C18.9254 47.8294 18.9389 47.6524 18.9389 47.4197V42.5573C18.8295 42.434 18.7475 42.3386 18.6794 42.27C18.6108 42.2014 18.5427 42.1333 18.4885 42.093C18.4199 42.0512 18.3657 42.011 18.2836 41.9831C18.215 41.9558 18.1196 41.9145 18.0102 41.8877C17.9009 41.8603 17.7507 41.8464 17.5593 41.8464V41.6416H17.5747V41.6421Z" fill="black"/>
<path d="M29.47 48.4297V48.6206H26.4788V48.4297H26.7249C26.8476 48.4297 26.957 48.4162 27.0529 48.4023C27.1484 48.3884 27.2299 48.3477 27.2851 48.2656C27.3398 48.197 27.3945 48.0882 27.4218 47.9519C27.4492 47.8152 27.4765 47.6238 27.4765 47.3782V42.8712C27.4765 42.7072 27.4765 42.5844 27.4631 42.4755C27.4492 42.3657 27.4492 42.2841 27.4218 42.2155C27.4084 42.1469 27.381 42.0927 27.3403 42.0515C27.2995 42.0107 27.2582 41.9695 27.1901 41.9421C27.04 41.8601 26.8759 41.8193 26.7119 41.8193H26.4663V41.6279H29.4571V41.8193H29.211C29.0882 41.8193 28.9793 41.8328 28.8834 41.8467C28.7879 41.874 28.7059 41.9148 28.6512 41.9829C28.5826 42.0515 28.5418 42.1604 28.5145 42.2971C28.4872 42.4333 28.4598 42.6252 28.4598 42.8569V47.3638C28.4598 47.5279 28.4598 47.6641 28.4733 47.7601C28.4733 47.8694 28.4872 47.951 28.5145 48.0191C28.5279 48.0882 28.5687 48.1424 28.5961 48.1831C28.6368 48.2244 28.6781 48.2652 28.7462 48.293C28.8829 48.375 29.0465 48.4158 29.2105 48.4158H29.4705L29.47 48.4297Z" fill="black"/>
<path d="M37.0904 41.4775L37.2813 43.6764H37.0904C36.8851 43.0346 36.5848 42.5568 36.1891 42.2695C35.8068 41.9826 35.3285 41.8325 34.7822 41.8325C34.3726 41.8325 34.0032 41.9145 33.6756 42.0786C33.3475 42.2426 33.075 42.4613 32.8563 42.7482C32.6376 43.035 32.4596 43.3626 32.3373 43.7584C32.2145 44.1412 32.1593 44.5647 32.1593 45.0151C32.1593 45.6708 32.2961 46.2848 32.5556 46.8316C32.6784 47.1046 32.829 47.3506 33.006 47.5416C33.1839 47.7464 33.3614 47.9104 33.5657 48.0327C33.771 48.1694 33.9754 48.2649 34.1941 48.3196C34.4128 48.3743 34.6311 48.415 34.8498 48.415C35.3688 48.415 35.8466 48.2922 36.2975 48.0327V46.0119C36.2975 45.8344 36.2975 45.6977 36.284 45.5878C36.2701 45.4785 36.2567 45.3969 36.2155 45.3283C36.1886 45.2602 36.1469 45.219 36.1061 45.1782C36.0648 45.1509 36.0102 45.1096 35.9559 45.0828C35.8466 45.0281 35.6422 45.0007 35.3688 45.0007V44.7959H38.0727V45.0007H37.937C37.8142 45.0007 37.7183 45.0146 37.6367 45.042C37.5552 45.0693 37.4866 45.1106 37.4319 45.1921C37.3777 45.2607 37.336 45.3696 37.3225 45.5063C37.2952 45.643 37.2818 45.82 37.2818 46.0253V48.1694C37.0769 48.2788 36.8856 48.3747 36.6942 48.4568C36.5033 48.5383 36.3119 48.593 36.1205 48.6477C35.7243 48.757 35.2873 48.7978 34.8369 48.7978C34.2493 48.7978 33.7173 48.7024 33.2525 48.5249C32.7743 48.3474 32.3781 48.1013 32.037 47.7737C31.696 47.46 31.436 47.0772 31.2585 46.6537C31.0671 46.2167 30.9851 45.7524 30.9851 45.2468C30.9851 44.6323 31.1352 44.0447 31.4355 43.485C31.777 42.8158 32.2548 42.2968 32.8697 41.9419C33.3887 41.6411 33.9898 41.4914 34.6863 41.4914C34.823 41.4914 34.9462 41.4914 35.0551 41.5049C35.165 41.5188 35.2739 41.5322 35.3832 41.5457C35.4926 41.5735 35.6288 41.6003 35.7655 41.6411C35.9022 41.6824 36.0658 41.737 36.2572 41.8191C36.4481 41.9006 36.5848 41.9284 36.6534 41.9284C36.7215 41.9284 36.7628 41.9006 36.817 41.8464C36.8577 41.7922 36.8851 41.6689 36.899 41.4914H37.0904V41.4775Z" fill="black"/>
<path d="M43.9467 41.4775V43.8951H43.7553C43.6738 43.2394 43.4551 42.7477 43.1135 42.4062C42.7725 42.0647 42.3485 41.8872 41.816 41.8872C41.6385 41.8872 41.4745 41.9145 41.3239 41.9826C41.1737 42.0373 41.0509 42.1189 40.9281 42.2287C40.8188 42.3242 40.7233 42.447 40.6686 42.5698C40.6 42.693 40.5727 42.8293 40.5727 42.966C40.5727 43.0888 40.6 43.2116 40.6547 43.3348C40.7094 43.4447 40.8596 43.6356 41.1325 43.8817C41.5834 44.1685 41.9796 44.4007 42.3211 44.5777C42.6487 44.7551 43.0857 45.0281 43.646 45.3969C43.8916 45.5878 44.069 45.8066 44.2057 46.0527C44.3285 46.3122 44.3971 46.5717 44.3971 46.8441C44.3971 47.1041 44.3425 47.3502 44.2331 47.5958C44.1237 47.8413 43.9736 48.0323 43.7827 48.2102C43.5913 48.3872 43.3591 48.5239 43.0857 48.6333C42.8128 48.7431 42.512 48.7973 42.1983 48.7973C41.9935 48.7973 41.8021 48.7839 41.6246 48.7566C41.5973 48.7566 41.5153 48.7292 41.3786 48.688C41.2419 48.6472 41.1056 48.6059 40.9555 48.5652C40.8054 48.5239 40.6686 48.4831 40.5458 48.4553C40.4231 48.4141 40.341 48.4011 40.3271 48.4011C40.2456 48.4011 40.177 48.4285 40.1223 48.4827C40.0676 48.5374 40.0408 48.6467 40.0129 48.8112H39.8225V46.4071H40.0134C40.1089 46.8988 40.2317 47.2811 40.3684 47.5406C40.4365 47.6634 40.5324 47.7728 40.6552 47.8821C40.778 47.9915 40.9147 48.073 41.0649 48.1551C41.215 48.2366 41.3786 48.2913 41.5565 48.346C41.734 48.3867 41.9115 48.4141 42.089 48.4141C42.3077 48.4141 42.4986 48.3867 42.6766 48.3186C42.854 48.25 42.9907 48.1685 43.1135 48.073C43.2363 47.9632 43.3323 47.8409 43.3869 47.7042C43.4416 47.5675 43.4829 47.4168 43.4829 47.2672C43.4829 47.0897 43.4416 46.9117 43.3462 46.7482C43.2502 46.5707 43.0862 46.4066 42.8679 46.2292C42.6497 46.0925 42.3902 45.9423 42.0894 45.7644C41.5157 45.4363 40.9967 45.1087 40.5463 44.8084C40.3007 44.6036 40.1093 44.3853 39.9726 44.1532C39.8359 43.921 39.7812 43.6476 39.7812 43.3612C39.7812 43.1151 39.8359 42.8835 39.9314 42.6513C40.0408 42.4326 40.1775 42.2277 40.3545 42.0637C40.5324 41.8997 40.7507 41.7629 41.0102 41.6675C41.2558 41.572 41.5292 41.5174 41.8295 41.5174C42.1983 41.5174 42.594 41.6123 43.0037 41.7903C43.0996 41.8311 43.1812 41.8589 43.2493 41.8857C43.3179 41.9131 43.3721 41.927 43.4133 41.9131C43.5093 41.9131 43.5774 41.8857 43.6321 41.8311C43.6867 41.7769 43.728 41.6675 43.7688 41.5034H43.9462L43.9467 41.4775Z" fill="black"/>
<path d="M49.0139 44.7554L51.595 47.3092C51.8138 47.5279 52.0047 47.7054 52.1826 47.8421C52.3601 47.9783 52.5237 48.1011 52.6743 48.1831C52.8244 48.2652 52.9746 48.3333 53.1247 48.374C53.2749 48.4148 53.425 48.4287 53.5751 48.4426V48.6335H50.2563V48.4426C50.4745 48.4426 50.6251 48.4014 50.7067 48.3328C50.7887 48.2512 50.8161 48.1692 50.8161 48.0872C50.8161 48.0459 50.8161 48.0186 50.8031 47.9917C50.8031 47.9639 50.7892 47.9375 50.7619 47.8963C50.7345 47.855 50.7072 47.8143 50.652 47.7596C50.5978 47.7054 50.5292 47.6368 50.4472 47.5413L48.0162 45.1372V47.3907C48.0162 47.5548 48.0162 47.6915 48.0296 47.7869C48.0436 47.8963 48.0436 47.9778 48.0714 48.0464C48.0848 48.1145 48.1121 48.1692 48.1529 48.2105C48.1937 48.2512 48.2349 48.2925 48.3031 48.3198C48.4532 48.4019 48.6033 48.4426 48.7674 48.4426H48.9995V48.634H46.0356V48.4426H46.2817C46.5686 48.4426 46.7729 48.3611 46.9096 48.1831C46.9916 48.0738 47.0329 47.8008 47.0329 47.3917V42.8847C47.0329 42.7345 47.0329 42.5978 47.0195 42.5024C47.0195 42.393 47.0055 42.3115 46.9782 42.2429C46.9509 42.1743 46.9235 42.1201 46.8962 42.0788C46.8554 42.038 46.8142 41.9968 46.746 41.969C46.582 41.8874 46.4179 41.8462 46.2678 41.8462H46.0356V41.6553H49.013V41.8462H48.7813C48.658 41.8462 48.5218 41.874 48.3716 41.9282C48.2349 41.9824 48.1395 42.0783 48.0848 42.2151C48.0436 42.3249 48.0162 42.5566 48.0162 42.8981V45.0422C48.0162 45.0422 48.057 45.001 48.1256 44.9468C48.1942 44.8926 48.2623 44.824 48.3443 44.7559C48.4263 44.6878 48.4944 44.6057 48.576 44.5376C48.6446 44.469 48.6993 44.4143 48.74 44.3875C49.1094 44.0464 49.4231 43.7457 49.6826 43.5001C49.9421 43.254 50.1474 43.0492 50.2975 42.8712C50.4477 42.6942 50.5566 42.5575 50.6251 42.4343C50.6937 42.3249 50.7206 42.2294 50.7206 42.1474C50.7206 42.0659 50.6798 41.9973 50.6112 41.9426C50.5426 41.8879 50.4203 41.8606 50.2419 41.8606H50.0778V41.6692H52.646V41.8601C52.5501 41.8601 52.4546 41.874 52.3592 41.8874C52.2632 41.9013 52.1539 41.9287 52.045 41.9829C51.9351 42.0376 51.7989 42.1196 51.6488 42.2151C51.4986 42.3249 51.3212 42.475 51.1163 42.6655C51.0756 42.7067 50.9662 42.8022 50.8026 42.9796C50.6386 43.1566 50.393 43.4027 50.0788 43.7169L49.0139 44.7554Z" fill="black"/>
<path d="M57.6177 48.4297V48.6206H54.6269V48.4297H54.8725C54.9953 48.4297 55.1047 48.4162 55.2006 48.4023C55.2966 48.3884 55.3781 48.3477 55.4328 48.2656C55.487 48.197 55.5422 48.0882 55.569 47.9519C55.5968 47.8152 55.6237 47.6238 55.6237 47.3782V42.8712C55.6237 42.7072 55.6237 42.5844 55.6098 42.4755C55.5964 42.3657 55.5964 42.2841 55.569 42.2155C55.5556 42.1469 55.5282 42.0927 55.487 42.0515C55.4462 42.0107 55.405 41.9695 55.3369 41.9421C55.1867 41.8601 55.0227 41.8193 54.8586 41.8193H54.6125V41.6279H57.6038V41.8193H57.3716C57.2484 41.8193 57.1395 41.8328 57.0435 41.8467C56.9481 41.874 56.8661 41.9148 56.8114 41.9829C56.7433 42.0515 56.702 42.1604 56.6751 42.2971C56.6473 42.4333 56.6205 42.6252 56.6205 42.8569V47.3638C56.6205 47.5279 56.6205 47.6641 56.6344 47.7601C56.6344 47.8694 56.6478 47.951 56.6751 48.0191C56.6891 48.0882 56.7293 48.1424 56.7572 48.1831C56.7979 48.2244 56.8392 48.2652 56.9073 48.293C57.0435 48.375 57.2076 48.4158 57.3716 48.4158H57.6177V48.4297Z" fill="black"/>
<path d="M58.6145 41.6426H60.513L64.7874 46.8873V42.8585C64.7874 42.6264 64.774 42.435 64.7332 42.2983C64.7059 42.1621 64.6512 42.0522 64.5831 41.9846C64.5145 41.916 64.4464 41.8752 64.3514 41.8613C64.2559 41.8479 64.16 41.834 64.0372 41.834H63.7911V41.6431H66.2221V41.834H65.976C65.8532 41.834 65.7443 41.8479 65.6479 41.8613C65.5525 41.8891 65.4839 41.9299 65.4163 41.998C65.3616 42.0666 65.3064 42.1755 65.2795 42.3122C65.2527 42.4489 65.2383 42.6259 65.2383 42.8585V48.7446H65.0474L60.4449 43.118V47.4202C60.4449 47.6658 60.4584 47.8438 60.4991 47.98C60.527 48.1167 60.5812 48.2122 60.6358 48.2808C60.7044 48.3494 60.7721 48.3901 60.868 48.4036C60.9635 48.417 61.0584 48.4314 61.1817 48.4314H61.4278V48.6223H59.0102V48.4314H59.2563C59.3791 48.4314 59.488 48.4175 59.5839 48.4036C59.6799 48.3896 59.748 48.335 59.8161 48.2673C59.8847 48.1987 59.9259 48.1033 59.9528 47.9666C59.9796 47.8299 59.994 47.6529 59.994 47.4202V42.5578C59.8842 42.4345 59.8026 42.3391 59.7341 42.2705C59.6659 42.2019 59.5978 42.1338 59.5431 42.0935C59.4889 42.0517 59.4204 42.0114 59.3383 41.9836C59.2697 41.9563 59.1743 41.915 59.0654 41.8882C58.9565 41.8613 58.8059 41.8469 58.615 41.8469L58.6145 41.6426Z" fill="black"/>
<path d="M67.437 48.6204V48.4294H67.7099C67.8332 48.4294 67.9287 48.4155 68.0241 48.4021C68.1196 48.3887 68.1882 48.3335 68.2563 48.2654C68.3244 48.1968 68.3656 48.0879 68.393 47.9517C68.4203 47.815 68.4472 47.6236 68.4472 47.3914V42.8844C68.4472 42.4475 68.393 42.1879 68.2971 42.0652C68.1603 41.915 67.969 41.8325 67.7095 41.8325H67.4365V41.6416H70.2771C71.3156 41.6416 72.1076 41.7649 72.6673 41.9966C73.2142 42.2426 73.6507 42.6388 73.9783 43.1852C74.3064 43.7454 74.4834 44.3872 74.4834 45.0972C74.4834 45.6162 74.4018 46.0939 74.2378 46.5175C74.0737 46.9545 73.8281 47.3233 73.4866 47.6375C73.1585 47.9512 72.7494 48.1973 72.2572 48.3613C71.7656 48.5383 71.2058 48.6208 70.564 48.6208L67.437 48.6204ZM69.431 48.1153C69.8545 48.2112 70.2229 48.2654 70.5232 48.2654C70.9194 48.2654 71.2883 48.1968 71.6298 48.0471C71.9713 47.897 72.2582 47.6922 72.5038 47.4188C72.7494 47.1454 72.9408 46.8177 73.0914 46.4354C73.2276 46.0531 73.2962 45.6162 73.2962 45.1379C73.2962 44.6602 73.2276 44.2232 73.0914 43.8404C72.9547 43.4576 72.7638 43.1305 72.5038 42.8571C72.2577 42.5842 71.9574 42.3793 71.6159 42.2426C71.2744 42.0925 70.8921 42.0244 70.4829 42.0244C70.1822 42.0244 69.8272 42.0786 69.4315 42.1745L69.431 48.1153Z" fill="black"/>
<path d="M77.9667 42.0239V44.7825H79.4959C79.728 44.7825 79.9055 44.7696 80.0422 44.7283C80.1789 44.6875 80.2883 44.6189 80.3703 44.5374C80.4523 44.4559 80.507 44.3465 80.5344 44.2237C80.5622 44.1009 80.589 43.9503 80.589 43.7733H80.78V46.2038H80.589C80.5617 45.999 80.5344 45.8349 80.507 45.6987C80.4797 45.562 80.425 45.4526 80.343 45.3845C80.2744 45.3025 80.1655 45.2478 80.0288 45.2205C79.8926 45.1931 79.7151 45.1658 79.4964 45.1658H77.9672V47.4605C77.9672 47.638 77.9672 47.7747 77.9806 47.8702C77.9806 47.98 78.0079 48.0476 78.0487 48.1023C78.09 48.157 78.1446 48.1843 78.2127 48.2122C78.2818 48.2395 78.4037 48.2395 78.5543 48.2395H79.7429C79.9477 48.2395 80.1118 48.2395 80.248 48.2261C80.3847 48.2122 80.508 48.1983 80.603 48.1714C80.6989 48.1441 80.7943 48.1028 80.8629 48.0486C80.9311 47.9939 81.027 47.9253 81.109 47.8433C81.3138 47.6385 81.5321 47.3243 81.7642 46.8878H81.9691L81.3685 48.6357H75.9876V48.4448H76.2331C76.3017 48.4448 76.3699 48.4314 76.4384 48.4175C76.5066 48.404 76.5747 48.3767 76.6433 48.3489C76.7119 48.3215 76.7661 48.2803 76.8207 48.2395C76.8754 48.1983 76.9028 48.1441 76.9301 48.0755C76.9714 47.9656 76.9848 47.7339 76.9848 47.3924V42.8581C76.9848 42.4077 76.9435 42.1342 76.8481 42.0388C76.7253 41.9021 76.5205 41.8335 76.2197 41.8335H75.9741V41.6426H81.3546V43.1718H81.2318C81.1776 42.9262 81.1224 42.7214 81.0678 42.5707C81.0136 42.4206 80.9315 42.2978 80.8361 42.2158C80.7401 42.1342 80.6173 42.0796 80.4667 42.0517C80.3166 42.0244 80.1257 42.011 79.8791 42.011H77.9676L77.9667 42.0239Z" fill="black"/>
<path d="M90.217 48.6204H88.3597L85.9969 45.3562C85.9149 45.3562 85.8328 45.3701 85.7652 45.3701C85.6966 45.3701 85.6285 45.3701 85.5743 45.3701C85.533 45.3701 85.4784 45.3701 85.4241 45.3701C85.3695 45.3701 85.3148 45.3701 85.2601 45.3562V47.3919C85.2601 47.6375 85.2735 47.8284 85.3148 47.979C85.3421 48.1158 85.3963 48.2251 85.4649 48.2932C85.5335 48.3613 85.6016 48.4026 85.6971 48.416C85.7925 48.4299 85.888 48.4434 85.9974 48.4434H86.2708V48.6343H83.2656V48.4434H83.5386C83.8254 48.4434 84.0302 48.3479 84.1669 48.157C84.2355 48.0472 84.2768 47.7877 84.2768 47.3919V42.8849C84.2768 42.4484 84.2221 42.1884 84.1266 42.0656C83.9899 41.9155 83.7985 41.8335 83.539 41.8335H83.2661V41.6426H85.8064C86.1758 41.6426 86.5029 41.6565 86.7759 41.6838C87.0493 41.7112 87.2675 41.7519 87.4455 41.8066C87.623 41.8608 87.787 41.9433 87.9372 42.0388C88.0873 42.1342 88.224 42.2575 88.3468 42.3937C88.4566 42.5304 88.5521 42.6945 88.6197 42.8715C88.6883 43.049 88.7152 43.2265 88.7152 43.4318C88.7152 43.8687 88.5785 44.2376 88.3055 44.5513C88.0321 44.8655 87.5956 45.0837 87.0075 45.2209L88.4418 47.2149C88.6058 47.4466 88.7555 47.6385 88.8922 47.7881C89.0284 47.9383 89.1517 48.0611 89.2884 48.1431C89.4251 48.2251 89.5613 48.2932 89.698 48.334C89.8482 48.3753 90.0122 48.4026 90.217 48.4299V48.6204ZM85.2596 45.0286C85.3282 45.0286 85.3829 45.0286 85.4371 45.0286C85.4913 45.0286 85.5191 45.0286 85.5599 45.0286C85.888 45.0286 86.1883 44.9878 86.4339 44.9192C86.6799 44.8372 86.8987 44.7283 87.0622 44.5911C87.2263 44.4549 87.363 44.2908 87.445 44.0999C87.5266 43.9085 87.5678 43.7037 87.5678 43.485C87.5678 43.2667 87.527 43.0754 87.458 42.8844C87.3894 42.707 87.281 42.5429 87.1443 42.4196C87.0075 42.2834 86.8574 42.188 86.6665 42.1189C86.4756 42.0503 86.2837 42.0095 86.0655 42.0095C85.8602 42.0095 85.5872 42.0373 85.2591 42.105L85.2596 45.0286Z" fill="black"/>
<path d="M27.1755 52.1982V56.4189H26.6292V52.1982H27.1755Z" fill="#C3A11C"/>
<path d="M32.4336 54.5611C32.4062 53.9735 32.365 53.2631 32.365 52.7446H32.3511C32.2009 53.2363 32.0369 53.7692 31.8186 54.3429L31.0675 56.3915H30.6578L29.9748 54.3836C29.7699 53.7826 29.6059 53.2502 29.4831 52.7446H29.4692C29.4553 53.2636 29.4279 53.974 29.3876 54.6158L29.2783 56.4189H28.7593L29.0596 52.1982H29.756L30.4799 54.2335C30.6573 54.7525 30.7936 55.2163 30.9029 55.6538H30.9164C31.0262 55.2303 31.1763 54.7659 31.3673 54.2335L32.1184 52.1982H32.8149L33.0749 56.4189H32.542L32.4336 54.5611Z" fill="#C3A11C"/>
<path d="M38.2241 54.5611C38.1968 53.9735 38.1555 53.2631 38.1555 52.7446H38.1416C37.9914 53.2363 37.8279 53.7692 37.6091 54.3429L36.858 56.3915H36.4483L35.7653 54.3836C35.5605 53.7826 35.3964 53.2502 35.2736 52.7446H35.2597C35.2463 53.2636 35.2189 53.974 35.1777 54.6158L35.0683 56.4189H34.5632L34.8635 52.1982H35.56L36.2838 54.2335C36.4613 54.7525 36.5975 55.2163 36.7074 55.6538H36.7208C36.8302 55.2303 36.9803 54.7659 37.1712 54.2335L37.9224 52.1982H38.6189L38.8784 56.4189H38.3459L38.2241 54.5611Z" fill="#C3A11C"/>
<path d="M44.07 54.2611C44.07 55.7087 43.1822 56.4872 42.1168 56.4872C40.9972 56.4872 40.2183 55.6267 40.2183 54.3431C40.2183 53.0048 41.0515 52.1309 42.1715 52.1309C43.3189 52.1304 44.07 53.0043 44.07 54.2611ZM40.7919 54.3297C40.7919 55.231 41.2836 56.0368 42.1441 56.0368C43.0047 56.0368 43.4963 55.2449 43.4963 54.2884C43.4963 53.4557 43.0594 52.5678 42.1441 52.5678C41.2424 52.5674 40.7919 53.4001 40.7919 54.3297Z" fill="#C3A11C"/>
<path d="M45.5305 52.2539C45.7627 52.1992 46.1455 52.1719 46.5282 52.1719C47.0746 52.1719 47.4291 52.2673 47.689 52.4726C47.9073 52.6367 48.044 52.8823 48.044 53.2233C48.044 53.633 47.7706 53.9884 47.3341 54.1524V54.1659C47.7298 54.2618 48.208 54.6029 48.208 55.2173C48.208 55.5867 48.0579 55.8591 47.8531 56.0644C47.5523 56.3373 47.088 56.4601 46.3915 56.4601C46.0092 56.4601 45.7224 56.4328 45.5444 56.4059V52.2544L45.5305 52.2539ZM46.0773 53.9745H46.569C47.1422 53.9745 47.4837 53.6737 47.4837 53.2641C47.4837 52.7729 47.1014 52.5815 46.5546 52.5815C46.309 52.5815 46.1589 52.5949 46.0769 52.6223L46.0773 53.9745ZM46.0773 55.9958C46.1867 56.0093 46.3368 56.0232 46.5282 56.0232C47.088 56.0232 47.6065 55.8179 47.6065 55.2039C47.6065 54.6302 47.1154 54.3846 46.5143 54.3846H46.0639V55.9958H46.0773Z" fill="#C3A11C"/>
<path d="M50.2153 52.1982V56.4189H49.6689V52.1982H50.2153Z" fill="#C3A11C"/>
<path d="M51.9226 52.1982H52.469V55.9541H54.272V56.4045H51.9231L51.9226 52.1982Z" fill="#C3A11C"/>
<path d="M56.1701 52.1982V56.4189H55.6238V52.1982H56.1701Z" fill="#C3A11C"/>
<path d="M60.0623 54.4381H58.4233V55.9543H60.2532V56.4047H57.877V52.1846H60.1578V52.635H58.4233V53.9733H60.0623V54.4381Z" fill="#C3A11C"/>
<path d="M61.7146 56.4184V52.1982H62.3151L63.6673 54.3285C63.9815 54.8201 64.2276 55.271 64.4185 55.6941H64.4319C64.3773 55.1343 64.3633 54.6158 64.3633 53.9601V52.1982H64.8824V56.4184H64.336L62.9977 54.2743C62.697 53.8095 62.4245 53.3183 62.2058 52.8674H62.1923C62.2197 53.3993 62.2331 53.9054 62.2331 54.6014V56.4045H61.7141V56.4184H61.7146Z" fill="#C3A11C"/>
</svg>
