<svg width="40" height="42" viewBox="0 0 40 42" fill="none" xmlns="http://www.w3.org/2000/svg">
<g clip-path="url(#clip0_285_15265)">
<path fill-rule="evenodd" clip-rule="evenodd" d="M0.444747 18.0343V27.7446C0.444747 36.704 4.06784 41.7815 13.4126 41.7815C22.7578 41.7815 19.2286 41.9531 26.3543 41.7173C35.0889 41.4283 38.7818 37.2214 38.7818 28.6473C38.7818 26.0619 38.814 22.3805 38.814 18.1466C38.814 17.8589 38.8461 0.486641 38.8461 0.195507L0.406982 0.16333" fill="#FFDD00"/>
<path fill-rule="evenodd" clip-rule="evenodd" d="M1.5607 28.6626C1.5607 31.9787 2.33584 34.951 3.61829 36.6754C4.54969 37.9278 5.62637 38.7739 6.79746 39.3729C9.55928 40.7858 13.6512 40.7216 14.633 40.7216C15.5353 40.7216 18.5507 40.7216 22.2759 40.6895C27.4187 40.6451 30.015 40.2721 30.015 40.2721C30.015 40.2721 36.277 39.5977 37.4652 31.4732C37.6667 30.0936 37.8453 28.6283 37.8184 27.0738V1.22314L1.43469 1.25513L1.5607 28.6626Z" fill="white"/>
<path d="M15.5642 7.80632L20.1511 18.8006L31.9427 22.6833L27.157 11.141L15.4035 7.26028L15.5642 7.80632ZM31.9294 22.6264L36.7908 34.3151L37.2243 33.0146L37.6579 30.8951L37.8024 24.5368L31.9294 22.6264ZM2.65491 1.22314L3.55394 3.37476L15.3394 7.29245L12.8987 1.25532" fill="#0098D4"/>
<path d="M23.0467 1.25537L27.157 11.146L37.8184 14.6786L37.7542 12.1094L34.1897 3.53531L27.5102 1.28736M2.20523 33.7853L3.31312 36.1938L4.46917 37.687L6.15509 39.0518L8.61172 40.0955L6.05876 33.978L1.86804 32.6293L2.20523 33.7853ZM17.9405 37.9279L19.0644 40.6895L22.581 40.6735L25.9528 40.5772L18.1974 38.0194L17.9405 37.9279Z" fill="#0098D4"/>
<path d="M1.40259 22.7065L6.05881 34.0103L17.8443 37.8958L13.1237 26.3674L1.49334 22.55L1.40259 22.7065ZM25.166 30.8631L29.148 40.4649L31.5886 39.8065L34.0453 38.4096L35.9239 36.242L36.8396 34.1877L24.9733 30.285L25.166 30.8631Z" fill="#0098D4"/>
<path d="M8.33889 14.9032L13.0914 26.3672L24.9089 30.2529L20.1243 18.7567L8.41904 14.9463L8.33889 14.9032ZM37.8024 1.22314L33.2263 1.27131L34.2165 3.53122L37.8535 4.7287M1.37036 12.5589L8.27454 14.839L3.58614 3.37476L1.40254 2.66822" fill="#0098D4"/>
<path d="M1.53088 2.69405L37.7542 14.6398M27.1185 1.19214L37.7542 4.69962M23.0592 1.31449L36.8196 34.4204M33.2452 1.31449L37.8107 12.2986M1.53088 12.6342L37.7542 24.5802M1.42529 22.7856L8.57706 39.9918M12.873 1.31449L29.1156 40.3914M1.53088 22.5746L36.7995 34.2057M1.95573 32.6551L26.2308 40.6604M2.68694 1.31449L19.0644 40.7168" stroke="#231F20" stroke-width="0.300575" stroke-miterlimit="2"/>
<path d="M38.7722 0.191162H0.409912M37.8283 1.22872H1.43553" stroke="#231F20" stroke-width="0.381499" stroke-miterlimit="2"/>
<path d="M38.8256 0V26.1766C38.8256 26.1766 38.782 29.172 38.6589 30.3207C38.5358 31.4695 38.4208 33.0791 37.9614 34.3415C37.4689 35.6949 37.0177 36.5981 36.5664 37.2546C36.1152 37.911 35.5241 38.5925 34.7817 39.1619C33.8996 39.8384 33.5507 40.0441 32.9148 40.3729C32.1817 40.7518 31.7661 40.8651 31.0684 41.0703C30.3709 41.2753 29.5505 41.4395 28.8941 41.5216C28.2376 41.6035 27.417 41.6447 26.7606 41.6857C26.1041 41.7268 24.5039 41.7678 24.0114 41.7678H15.2213C14.7291 41.7678 13.1289 41.7268 12.4724 41.6857C11.816 41.6447 10.9954 41.6035 10.3389 41.5216C9.68229 41.4395 8.86187 41.2753 8.16438 41.0703C7.46689 40.8651 7.05129 40.7518 6.31796 40.3729C5.68213 40.0441 5.33339 39.8384 4.45131 39.1619C3.70874 38.5925 3.1178 37.911 2.66655 37.2546C2.21511 36.5981 1.76386 35.6949 1.27138 34.3415C0.812233 33.0791 0.697012 31.4695 0.573892 30.3207C0.450964 29.172 0.407227 26.1766 0.407227 26.1766V0" stroke="#231F20" stroke-width="0.46435" stroke-miterlimit="2"/>
<path d="M37.8215 1.04956V25.9118C37.8215 25.9118 37.78 28.7512 37.6635 29.8404C37.5467 30.9293 37.4269 32.5337 37.0103 33.7371C36.7935 34.3633 36.4203 35.3749 35.7579 36.4346C35.3575 37.0752 34.8121 37.7494 34.1082 38.2891C33.272 38.9303 32.8446 39.1827 32.2296 39.4693C31.3504 39.8787 31.0169 39.966 30.351 40.1436C29.6285 40.3363 28.9755 40.438 28.352 40.5049C27.6776 40.5771 26.9792 40.6012 26.4252 40.6253C25.8021 40.6525 24.2445 40.6922 23.7779 40.6922H19.6074H19.6186H15.4498C14.9831 40.6922 13.4256 40.6525 12.8024 40.6253C12.2485 40.6012 11.55 40.5771 10.8757 40.5049C10.2522 40.438 9.59919 40.3363 8.87665 40.1436C8.21076 39.966 7.87724 39.8787 6.99806 39.4693C6.38303 39.1827 5.95568 38.9303 5.11946 38.2891C4.41561 37.7494 3.87015 37.0752 3.46976 36.4346C2.80734 35.3749 2.43413 34.3633 2.21737 33.7371C1.8008 32.5337 1.68076 30.9293 1.564 29.8404C1.44743 28.7512 1.40601 25.9118 1.40601 25.9118V1.04956" stroke="#231F20" stroke-width="0.46435" stroke-miterlimit="2"/>
</g>
<defs>
<clipPath id="clip0_285_15265">
<rect width="38.8827" height="42" fill="white" transform="translate(0.174805)"/>
</clipPath>
</defs>
</svg>
