<svg width="32" height="42" viewBox="0 0 32 42" fill="none" xmlns="http://www.w3.org/2000/svg">
<g clip-path="url(#clip0_285_15266)">
<path d="M31.3266 0.251465H0.308594V26.2395C0.308594 29.6766 0.308594 32.9461 4.91937 35.6287L15.8176 41.7485L26.7158 35.6287C31.4104 32.9461 31.3266 29.6766 31.3266 26.2395V0.251465Z" fill="white" stroke="black" stroke-width="0.502994"/>
<path d="M17.7206 6.32941C17.2511 6.10306 16.4044 6.23719 15.6248 6.11144C14.0571 5.85994 13.8643 5.41563 13.8643 5.08869C13.8559 4.74497 13.5457 4.72821 13.5457 5.09707C13.5541 7.27671 16.832 6.16174 17.7625 6.72342M7.0571 5.5833C7.06549 4.99647 6.66309 4.61923 6.311 4.58569C6.52058 4.82881 6.56249 5.1809 6.59603 5.52462C6.52896 5.03839 6.16848 4.71983 5.8583 4.70306C6.02597 4.87911 6.11818 5.23959 6.13495 5.59168C6.08465 5.32342 5.83315 4.92102 5.41399 4.87911C5.60681 5.0803 5.66549 5.45755 5.7074 5.80126C5.64872 5.50785 5.34693 5.17252 5.0116 5.14737C5.15411 5.26474 5.27148 5.69228 5.29663 6.01923C5.25471 5.88509 5.01998 5.55815 4.65112 5.51623C4.84393 5.69228 4.92776 6.11983 4.9613 6.45515M6.42836 14.4528C6.32776 13.9917 5.92537 13.5055 5.47267 13.5641C5.68225 13.7067 5.84154 14.2432 5.90022 14.5869C5.7577 14.2013 5.40561 13.7905 4.98645 13.8408C5.21279 14.042 5.34693 14.5366 5.43076 14.9055C5.20441 14.4779 4.92776 14.1593 4.51699 14.2096C4.79363 14.4779 4.89423 14.9474 4.9613 15.3078C4.82716 15.0061 4.51699 14.6372 4.09782 14.6791C4.3577 14.9138 4.46669 15.4252 4.5589 15.8025C4.39124 15.5761 4.13974 15.2575 3.74573 15.2911C4.00561 15.5426 4.12297 16.0372 4.23196 16.4144M7.76968 30.8587C7.32537 30.5905 6.71339 30.6827 6.42836 31.0516C6.74693 30.9929 7.21639 31.1689 7.40082 31.3198C7.09902 31.127 6.47028 31.2444 6.22716 31.5797C6.51219 31.5043 6.97327 31.6971 7.21639 31.8396C6.89782 31.7306 6.40321 31.7558 6.09303 32.133C6.35291 32.0743 6.78046 32.2168 7.0571 32.3761C6.66309 32.2839 6.27746 32.4348 6.05112 32.7031C6.39483 32.6276 6.78046 32.8288 7.01519 32.9378C6.57088 32.9294 6.30261 33.1055 6.14333 33.2899C6.42836 33.2312 6.86429 33.3821 7.18285 33.5498M19.4308 33.6168C18.8523 33.5414 18.3745 33.8935 18.232 34.3043C18.3912 34.1785 18.8942 34.1031 19.2212 34.2037C18.7685 34.1785 18.3158 34.5474 18.2236 34.8827C18.408 34.7318 18.9948 34.6899 19.2128 34.7821C18.802 34.7989 18.408 35.109 18.2906 35.4528C18.4835 35.327 19.02 35.2767 19.3218 35.3522C18.8775 35.4192 18.5589 35.7378 18.4583 36.0312C18.7266 35.8552 19.0787 35.8719 19.5146 35.8971C19.0619 36.0647 18.911 36.2575 18.7601 36.5593C19.0116 36.4001 19.4559 36.3917 19.8918 36.4252" fill="#F33B1D"/>
<path d="M16.4296 2.84183L14.3841 2.91728C14.2835 2.92567 14.208 2.97597 14.208 3.09333C14.2164 3.83105 14.3589 4.3089 14.8871 4.69453C14.82 5.10531 14.8619 5.31489 15.2895 5.6586C15.3314 5.32327 15.4655 5.17237 15.6751 5.02986C15.6919 5.03824 15.7086 5.03824 15.717 5.04662C15.6919 5.19752 15.6919 5.3568 15.7254 5.44902C15.8092 5.68375 16.22 5.69213 16.329 5.52447C16.4296 5.76758 16.6392 5.77596 16.8068 5.77596C16.9829 5.77596 17.0667 5.65022 17.1254 5.53285C17.226 5.61668 17.3266 5.7089 17.4188 5.82626C17.7122 6.22866 17.7625 6.74842 17.7625 7.24303C17.6703 7.25141 17.5781 7.2598 17.4859 7.26818V7.06698C17.4775 6.78195 16.8152 6.73165 16.6643 6.97477C16.4967 6.79034 15.9769 6.82387 15.9769 7.11728V7.2095C15.8595 7.0586 15.7673 6.89932 15.6919 6.74004C15.4823 6.87417 15.3565 6.97477 15.3901 7.45261C15.2978 7.46099 15.2056 7.46938 15.1218 7.47776C15.1302 8.03105 15.3733 8.18195 17.3517 8.14004C17.402 8.69333 16.8487 9.00351 16.438 9.26339C15.3649 9.87537 14.2332 10.546 13.6212 11.6694C13.1098 12.558 12.9841 13.6143 13.0428 14.637L13.6296 14.3772L13.6967 14.6957C12.6404 15.1987 10.7122 16.2215 9.44635 16.8083C9.13617 16.9508 8.33138 17.152 8.16372 16.867C7.58527 15.8694 7.1242 15.1149 6.45354 14.352C6.10982 13.958 3.82958 15.8442 4.24875 16.4814C5.20443 17.9317 6.76372 20.0107 9.36252 20.0275C12.0535 20.0442 14.3925 19.055 14.9038 18.9041L15.0128 19.2478C14.6691 19.3987 14.3673 19.5077 14.0068 19.6251C14.4763 21.4694 15.0212 22.1903 16.2871 23.3137L16.0272 23.5065C15.8008 23.3724 15.4152 22.9448 15.2056 22.7436C12.5146 24.0179 11.5086 25.2921 10.8631 26.6083C10.1505 28.1927 10.2847 29.9951 10.5865 31.6634C10.6452 31.94 10.3434 32.0742 10.117 31.9903C9.49665 31.8478 9.15294 31.2275 8.55773 31.0011C8.28946 30.8837 7.93737 30.7496 7.64396 30.7999C7.16611 30.8837 6.65473 33.2981 7.14096 33.5328C8.04635 33.9772 9.03557 34.0694 10.0416 34.5891C10.7038 34.8574 11.341 35.2933 12.0955 35.176C12.523 35.134 12.9505 34.8406 12.9925 34.3879C13.3697 32.7616 13.8978 31.0346 15.1386 29.861C15.7338 29.2742 16.505 28.8047 17.2679 28.4442C16.9661 27.2873 16.7398 26.1305 16.7649 24.9233L17.1338 24.9065C17.402 29.5005 18.626 30.4646 20.7805 32.6023C20.9984 32.8203 20.9817 33.2311 20.6631 33.3568C20.244 33.5664 19.7493 33.5748 19.2715 33.5999C18.7601 33.6251 19.1458 36.4586 19.9002 36.4334C21.2248 36.3915 22.5996 35.3604 23.3961 34.346C23.7314 33.9269 24.1338 33.5077 24.4523 33.0969C24.8464 32.5855 24.4188 31.9903 24.3014 31.5209C23.9745 30.1796 23.8236 26.3233 23.8068 25.7867L24.2763 25.7951L24.3434 24.8227C22.9434 23.0873 23.1697 20.3712 22.5913 18.6191C22.3649 17.9065 22.1134 17.1688 22.1134 16.4143C22.1134 15.3915 23.2703 13.4718 23.2452 11.7616C23.2368 11.0406 22.8344 10.1017 22.8428 9.67417C22.8511 8.43345 23.5637 8.70171 23.5469 6.11968C23.5386 5.4071 23.4547 4.87896 23.2703 4.14962C24.5194 2.83345 22.8008 1.51728 21.8116 2.33884C21.0152 2.12926 20.9146 1.91968 19.3553 1.91968C18.0224 1.91968 17.2595 2.28016 16.4296 2.83345M14.0152 10.5293C13.135 11.6107 12.6404 12.1556 12.6739 14.7796C4.36611 10.0346 6.79725 9.35561 4.97809 6.52207C4.69306 6.07776 6.54575 5.04662 7.13258 5.48255C8.31461 6.35441 7.87869 7.99752 8.85952 8.74363C9.83198 9.48135 11.5673 9.8083 14.0152 10.5293ZM19.0871 4.43465C18.9613 4.43465 18.735 4.36758 18.6679 4.27537C17.9386 3.1604 17.7541 3.56279 17.6452 3.94842C17.5529 4.29213 17.1505 4.30052 17.2679 3.83944C17.5613 2.7077 18.3577 2.86698 19.3469 4.43465M21.4847 3.30291C21.6859 3.03465 21.9961 2.77477 22.3314 2.66579C22.826 2.49812 23.0272 2.90052 22.6332 3.03465C22.3062 3.17716 22.0296 3.37836 21.7949 3.61309M14.9793 4.75321C15.105 4.82866 15.2811 4.92088 15.541 4.99632C15.3984 5.11369 15.2643 5.28135 15.2224 5.46579C14.9961 5.3065 14.9038 5.01309 14.9793 4.75321ZM16.3206 5.19752C16.3206 5.3065 16.2955 5.41549 16.2619 5.46579C16.1781 5.59992 15.8679 5.59153 15.8008 5.4071C15.7757 5.33165 15.7757 5.19752 15.8092 5.07177C15.9769 5.11369 16.1529 5.14722 16.3206 5.19752ZM16.4212 5.22267C16.6475 5.28974 16.8655 5.36519 17.0583 5.49094C17.0164 5.59153 16.941 5.69213 16.7901 5.69213C16.6559 5.69213 16.505 5.68375 16.4212 5.52447C16.3793 5.44064 16.3961 5.32327 16.4212 5.22267ZM15.4739 7.44423C15.4487 7.2095 15.4739 7.0083 15.6583 6.87417C15.7505 7.04183 15.8511 7.20111 15.9685 7.34363V7.40231M16.0523 7.39812V7.13405C16.0523 6.8574 16.6392 6.87417 16.6475 7.13405V7.34363M16.723 7.33525V7.10052C16.723 6.82387 17.402 6.84064 17.402 7.09213V7.27656" fill="black"/>
</g>
<defs>
<clipPath id="clip0_285_15266">
<rect width="31.521" height="42" fill="white" transform="translate(0.057373)"/>
</clipPath>
</defs>
</svg>
