<svg width="601" height="601" viewBox="0 0 601 601" fill="none" xmlns="http://www.w3.org/2000/svg">
<path d="M600.649 0.609131H0.649414V300.609H600.649V0.609131Z" fill="#E3000F"/>
<path d="M600.649 300.609H0.649414V600.609H600.649V300.609Z" fill="white"/>
<path d="M150.649 103.175H450.649V403.175C450.649 443.175 400.649 483.175 300.649 523.175C200.649 483.175 150.649 443.175 150.649 403.175V103.175Z" fill="white" stroke="black" stroke-width="3"/>
<path d="M291.136 213.629L286.375 230.548L279.267 229.454L273.934 234.115H269.343L257.099 231.785L247.151 225.958L240.136 217.412L235.8 205.37L234.78 196.047L238.606 193.975V201.226L240.136 207.959L246.003 215.081L250.85 217.93L257.099 216.894L257.864 215.081L256.461 213.629L248.937 211.326L241.794 203.478L240.901 192.421L247.151 187.042L250.85 181.285V174.957L248.937 168.151L245.11 164.063L237.458 160.567L199.068 159.79L188.993 158.195V164.063L194.987 172.48L210.037 176.883L178.28 185.429L182.999 193.975L190.141 197.471L206.848 196.047L178.917 224.016L182.999 226.735H193.202L210.037 214.434L178.917 276.975L186.442 275.551L199.324 264.804L218.327 237.871L214.756 246.935L209.399 263.12L204.043 298.211L188.1 340.941H193.712L201.874 337.166L210.292 323.202L232.994 261.566L232.356 296.528L226.617 345.344L235.29 342.873L244.983 332.007L253.018 309.217L255.951 275.551L260.16 304.297L264.752 312.195L269.343 309.969L272.404 300.153L273.934 271.357H275.337L278.781 294.791V309.969L267.812 330.712V335.762L244.09 364.729L238.351 354.044L223.301 349.358L220.112 350.523L224.321 353.243L223.301 357.257H232.356L237.841 364.729L227.51 361.815L223.301 362.543L218.327 365.7L211.695 366.671L208.379 371.63H212.333V375.049H216.796L220.75 369.707H227.51L237.075 371.63L222.026 385.613V390.834L225.469 387.191L227.51 390.834L231.464 383.413L249.447 372.378L260.925 375.049L265.644 373.701L263.476 371.63L267.812 368.263L264.114 366.671L253.018 368.263L252.125 366.671L275.337 338.502L279.546 340.164L282.974 337.166L284.138 333.043L286.051 324.756L287.836 321.989H290.15L292.422 335.762L290.15 346.509L284.138 350.523L270.895 352.101L267.812 358.415L264.752 364.729L273.168 362.543L278.781 363.86L288.834 360.235L287.836 368.263L280.822 376.938L261.563 381.341L245.621 384.763L236.183 393.772L234.397 406.618L237.841 413.842L244.09 419.021H256.334L247.916 415.396L242.177 408.561V399.728L247.151 390.834L258.247 387.191L245.621 400.912V405.161L247.151 408.561L260.16 397.755L281.659 387.191L293.738 375.049L292.422 385.613L286.801 394.476L273.168 398.362L268.504 400.912V405.161L270.895 406.618L258.936 414.632L270.895 412.082L282.974 405.161L297.326 389.498L296.01 413.053L288.834 425.438L290.15 432.238L294.336 433.33L300.913 442.437L307.372 433.33L311.677 432.238L312.395 425.438L304.98 412.082V390.834L313.232 402.611L325.669 411.475L343.489 416.332L331.53 407.104L333.563 405.161L331.53 401.883L315.384 394.476L309.644 386.22L307.372 375.049L316.7 386.22L337.629 397.755L353.894 410.746L356.525 408.561L355.568 401.883L347.196 390.834L355.568 394.476L361.308 401.883V411.475L353.894 418.275L345.761 421.31L354.611 422.16L362.863 418.275L366.81 410.746V397.755L361.308 389.498L352.1 384.763L326.626 380.027L316.102 372.378L312.395 365.7L311.079 358.415L319.211 362.543H338.346L332.606 352.101L319.211 350.523L311.079 340.93V325.51L314.547 321.989L320.766 340.93L327.703 337.166L348.273 366.671H335.835L332.606 369.1L337.629 369.707L333.563 375.049L341.934 372.378H355.568L373.627 386.22L375.181 382.334L379.248 383.184L366.81 370.678L382.716 369.1L392.044 373.835L390.848 369.1L395.752 366.671L385.945 364.729L378.171 361.815L368.963 364.729H364.298L368.245 356.472H375.181L378.171 348.701H372.311L362.863 354.044V359.022L359.156 361.815H353.415L334.4 329.639L332.606 321.989L323.397 303.533V284.835L326.148 274.271L328.779 298.312L334.4 311.061L339.542 309.969L341.934 285.928L345.163 271.357L346.479 294.791L352.1 316.161L364.298 338.502L375.899 342.873L367.647 287.02V260.308L392.044 323.203L403.166 336.317L413.93 338.502L396.828 294.791L390.131 259.094L379.367 234.082L403.166 263.586L415.245 273.057L423.019 272.45L388.098 211.498L406.276 223.64L415.963 222.911L419.551 219.633L389.891 192.799L395.991 193.892H406.276L415.963 189.942L420.866 181.75L399.698 179.2L384.151 173.736L389.891 172.886L401.014 169.122L407.352 162.08V155.766L358.797 159.166L349.469 163.051L346.957 169.122V181.143L356.884 191.706V197.777L355.09 204.334L349.469 210.405L340.499 213.629L341.815 218.176L348.392 216.112L355.09 211.498L358.797 203.478L359.754 193.892H362.624V204.334L358.797 216.112L348.392 228.011L334.759 233.11H324.832L316.222 226.311V222.911L321.125 221.09L320.049 218.176V211.498L321.125 208.341L322.56 205.67L324.832 206.884H327.942L326.507 203.478V198.506L329.496 186.364L327.942 181.143L330.214 184.057H333.443L330.214 179.2L327.942 172.886L327.105 166.087L325.43 163.051L322.56 158.195L320.049 157.588L321.125 156.616L324.832 153.459L320.049 155.038H311.677L305.219 153.459L297.326 154.188L293.02 158.195H290.27L287.28 161.23L283.214 163.051L279.267 168.151L280.582 174.957L283.214 169.122L288.595 168.151L296.249 170.822L301.272 168.151L306.372 169.972L308.753 176.043L303.516 174.957H291.136L281.137 178.341L268.281 187.042L281.137 180.274L291.136 178.341H299.706L308.753 180.274L306.372 183.175H291.136L303.516 189.942V194.776L286.375 203.478H299.706L291.136 213.629Z" fill="#DB0914" stroke="black" stroke-width="2"/>
</svg>
