<svg width="35" height="42" viewBox="0 0 35 42" fill="none" xmlns="http://www.w3.org/2000/svg">
<g clip-path="url(#clip0_285_15270)">
<path d="M17.6398 41.965C18.4617 41.9656 20.9712 41.8495 24.0232 40.5866C28.5977 38.6943 30.7514 35.9923 31.8136 34.3928C32.8764 32.7921 34.1469 30.8099 34.5185 27.3974C34.7758 25.032 34.6976 20.4552 34.6976 20.4552V0H17.3545H0.0114492L0.0116907 20.4552C0.0116907 20.4552 -0.067001 25.032 0.190488 27.3974C0.56206 30.8099 1.83269 32.7921 2.89523 34.3928C3.95742 35.9923 6.1108 38.6943 10.6856 40.5866C13.7376 41.8495 16.2471 41.9656 17.0691 41.965C17.268 41.9673 17.4914 41.965 17.6396 41.965H17.6398Z" fill="#E30613"/>
<path d="M13.8855 4.19629L10.0302 7.43041L12.5934 10.4853L14.5709 8.82632L13.55 7.60307L12.7806 8.24882L12.2247 7.58674L13.718 6.33607L15.8635 8.89399L9.97188 13.8377L7.82638 11.2781L9.16979 10.1517L9.72396 10.8137L9.04554 11.3819L10.0664 12.6052L11.9552 11.0214L9.39204 7.96766L6.84171 10.1062L6.06704 9.18391L4.35718 10.6183L13.9437 22.0429C13.8317 22.1333 13.8323 22.3118 13.9384 22.4384C14.0446 22.5644 14.2184 22.5953 14.3281 22.502L14.4197 22.6111C14.1846 22.8082 14.1583 23.153 14.3555 23.3881C14.5527 23.6232 14.8957 23.6617 15.1308 23.4645C15.1308 23.4645 15.1722 23.5147 15.227 23.5794C15.1057 23.6692 15.108 23.8542 15.2142 23.9802C15.3209 24.1067 15.4924 24.1417 15.6079 24.0402C15.6674 24.1102 15.7246 24.1738 15.7246 24.1738C15.7246 24.1738 16.8242 25.6246 16.7874 27.2235C16.7507 28.8224 16.2263 30.1822 16.2263 30.1822C16.2263 30.1822 15.8436 30.0101 15.535 30.2971C15.3116 30.5047 15.3443 30.8577 15.4679 31.0624C15.1611 31.0548 14.8502 31.1522 14.5964 31.3652C14.0452 31.8277 13.9734 32.6497 14.436 33.2009C14.898 33.7516 15.7205 33.8239 16.2718 33.3613C16.5249 33.149 16.676 32.8602 16.7221 32.5569C16.9677 32.6969 17.2739 32.6847 17.4933 32.5009C17.733 32.2991 17.7902 31.9561 17.6513 31.6732C18.0853 31.5542 19.2783 31.2812 20.5301 31.4725C21.6548 31.6452 22.3583 31.9747 22.6721 32.1527C22.5152 32.4029 22.5233 32.7267 22.7141 32.9547C22.8967 33.1723 23.1936 33.2388 23.4596 33.1461C23.4508 33.4529 23.5488 33.7632 23.7618 34.0176C24.2243 34.5682 25.0463 34.64 25.5975 34.178C26.1482 33.7148 26.2205 32.8947 25.7579 32.344C25.5456 32.0908 25.2574 31.9397 24.9541 31.8937C25.0935 31.6481 25.0818 31.3395 24.8975 31.1207C24.7062 30.8915 24.3865 30.8297 24.1118 30.944C23.9916 30.6045 23.7886 29.8532 23.8148 28.7162C23.8516 27.1173 24.502 25.9384 24.502 25.9384C24.7558 26.1175 25.0993 26.1192 25.3368 25.9197C25.5555 25.736 25.6214 25.435 25.5263 25.169C25.8332 25.1766 26.1429 25.0792 26.3961 24.8662C26.9462 24.4037 27.0168 23.5817 26.5548 23.0305C26.0922 22.4798 25.272 22.4075 24.7208 22.8701C24.467 23.083 24.3159 23.3723 24.2704 23.6762C23.9782 23.4167 23.6772 23.4015 23.4083 23.6138C23.0752 23.8775 23.2298 24.3541 23.2298 24.3541C23.2298 24.3541 21.8519 24.6306 20.2711 24.3885C18.6897 24.1476 17.4256 22.719 17.4256 22.719C17.4256 22.719 17.3725 22.6677 17.3218 22.6111C17.4326 22.5207 17.4338 22.3422 17.327 22.2156C17.2243 22.0937 17.0581 22.0651 16.9496 22.1444C16.8901 22.0779 16.844 22.026 16.844 22.026C17.0791 21.8288 17.1438 21.4502 16.9461 21.2152C16.7489 20.9801 16.3995 20.9503 16.1638 21.1475L16.1329 21.1784L16.0419 21.0711C16.1609 20.9742 16.1557 20.7998 16.0489 20.6738C15.9428 20.5472 15.7689 20.5181 15.6575 20.6114L14.0405 18.6864L16.5908 16.5409L14.0277 13.4877L12.0531 15.1444L13.0763 16.3642L13.8416 15.7207L14.3975 16.3846L13.0541 17.511L10.9669 15.0242L16.8948 10.0513L18.9808 12.5363L17.4548 13.8197L16.8988 13.1576L17.6683 12.5124L16.6416 11.2927L14.6658 12.9517L17.2267 16.0072L21.0808 12.7732L13.8853 4.19641L13.8855 4.19629Z" fill="white"/>
<path d="M17.6082 39.921C18.3409 39.9216 20.5768 39.8183 23.2963 38.6931C27.3726 37.0066 29.2912 34.4779 30.238 33.0528C31.1841 31.626 32.3164 29.8602 32.6477 26.8199C32.877 24.7123 32.807 20.5129 32.807 20.5129V1.88647L17.3545 1.88653H1.90196L1.90207 20.5129C1.90207 20.5129 1.8319 24.7124 2.06138 26.8199C2.39248 29.8603 3.52456 31.6266 4.47119 33.0529C5.41771 34.4779 7.33687 37.0067 11.4129 38.6937C14.1324 39.8184 16.3683 39.9216 17.1009 39.9216C17.2777 39.9234 17.4585 39.921 17.6084 39.921L17.6082 39.921Z" stroke="white" stroke-width="0.486512"/>
<path d="M21.7984 27.5462L19.5934 29.4637C19.356 29.6696 19.02 29.6719 18.8432 29.4689C18.6665 29.2653 18.7155 28.9328 18.9529 28.7269L21.1579 26.8095C21.3953 26.603 21.7313 26.6007 21.908 26.8042C22.0848 27.0078 22.0358 27.3397 21.7984 27.5462Z" fill="#E30613"/>
<path d="M19.7859 26.7136L21.7027 28.9186C21.9086 29.156 21.9115 29.492 21.708 29.6688C21.5044 29.8455 21.1725 29.7965 20.966 29.5591L19.0485 27.3541C18.8426 27.1161 18.8397 26.7807 19.0433 26.6039C19.2469 26.4272 19.5794 26.4762 19.7859 26.7136Z" fill="#E30613"/>
</g>
<defs>
<clipPath id="clip0_285_15270">
<rect width="34.7083" height="42" fill="white"/>
</clipPath>
</defs>
</svg>
