<svg width="34" height="42" viewBox="0 0 34 42" fill="none" xmlns="http://www.w3.org/2000/svg">
<g clip-path="url(#clip0_285_15260)">
<path d="M32.9848 27.1894C32.9848 35.2357 25.7785 41.7346 16.9363 41.7346C8.09424 41.7346 0.890137 35.2357 0.890137 27.1894V0.220947H32.987V27.1894H32.9848Z" fill="#E30613" stroke="black" stroke-width="0.442105"/>
<path d="M5.29346 31.8315H28.4156V33.4894H5.29346V31.8315Z" fill="white"/>
<path d="M16.954 1.82666H16.744V2.38747H16.0676V2.82515H16.744V3.85084C15.904 4.00116 15.9592 4.95389 15.9592 4.95389L16.954 4.89863L17.9465 4.95389C17.9465 4.95389 18.0018 4.00116 17.1615 3.85084V2.82515H17.8382V2.38747H17.1618V1.82666H16.954Z" fill="white"/>
<path d="M16.9539 1.75708H16.6754V2.3873L16.7439 2.31656H15.999V2.89351H16.7439L16.6754 2.82499V3.85067L16.7329 3.78214C15.842 3.9413 15.8885 4.94709 15.8907 4.95814L15.8929 5.02667L15.9636 5.02203L16.9562 4.96897H16.9495L17.9443 5.02203L18.0128 5.02667L18.0174 4.95814C18.0174 4.94709 18.0658 3.9413 17.175 3.78214L17.2325 3.85067V2.82499L17.1637 2.89351H17.9069V2.31656H17.1637L17.2325 2.3873V1.75708H16.9539ZM17.0932 1.82649V2.45583H17.8384L17.7676 2.3873V2.82499L17.8384 2.75624H17.0932V3.90814L17.1509 3.9192C17.9199 4.05625 17.8802 4.91393 17.8779 4.9493L17.9509 4.8852L16.9562 4.82993H16.9495L15.9548 4.8852L16.0277 4.9493C16.0255 4.91393 15.9879 4.05625 16.755 3.9192L16.8125 3.90814V2.75646H16.0675L16.1383 2.82521V2.3873L16.0675 2.45583H16.8125V1.82649L16.7439 1.8959H17.1617L17.0932 1.82649Z" fill="black"/>
<path d="M13.7708 8.06839V5.70312H8.20032V8.06839L8.57611 8.20102H13.4614L13.7708 8.06839Z" fill="white"/>
<path d="M9.14632 5.64136H8.13611V8.11936L8.18032 8.13704L8.54285 8.26746L8.5539 8.26967H13.4767L13.49 8.26525L13.7906 8.13483L13.8326 8.11715V5.64136H9.14632ZM9.83379 5.78062H13.7641L13.6956 5.70988V8.07073L13.7376 8.00883L13.437 8.13704L13.4635 8.13262H8.56716L8.58927 8.13704L8.22895 8.00662L8.27316 8.07294V5.70988L8.20464 5.78062H9.83379Z" fill="black"/>
<path d="M25.7121 5.70312H20.1416V8.06839L20.4509 8.20102H25.3361L25.7117 8.06839V5.70312H25.7121Z" fill="white"/>
<path d="M21.039 5.64136H20.0725V8.11715L20.1145 8.13483L20.4151 8.26525L20.4284 8.26967H25.3579V8.26746L25.7337 8.13704L25.7779 8.11936V5.64136H21.0385H21.039ZM21.6533 5.78062H25.7118L25.6234 5.70988V8.07073L25.6676 8.00662L25.3139 8.13483L25.336 8.13262H20.4419L20.4708 8.13704L20.1702 8.00662L20.2122 8.07073V5.70988L20.1415 5.77841H21.6535L21.6533 5.78062Z" fill="black"/>
<path d="M8.56726 8.20117H13.4569V18.5862H8.56726V8.20117Z" fill="white"/>
<path d="M8.5672 8.26963H13.4569L13.3861 8.20111V18.5862L13.4569 18.5176H8.5672L8.63572 18.5862V8.20111L8.5672 8.26963ZM8.5672 18.6569H13.5254V8.13037H8.49646V18.6569H8.5672Z" fill="black"/>
<path d="M25.3363 8.20117H20.4489V18.5862H25.3363V8.20117Z" fill="white"/>
<path d="M25.3362 8.13037H20.3802V18.6569H25.4026V8.13037H25.3362ZM25.3362 18.5176H20.4488L20.5193 18.5862V8.20111L20.4488 8.26963H25.3362L25.2699 8.20111V18.5862L25.3362 18.5176Z" fill="black"/>
<path d="M10.1455 3.53683L9.70337 2.76536H10.5876L11.0297 1.99609L11.4718 2.76536H12.356L11.9139 3.53683L12.356 4.31051H11.4718L11.0297 5.06209L10.5876 4.31051H9.70337L10.1455 3.53683Z" fill="white"/>
<path d="M12.3584 4.23317H11.4322L11.4101 4.26854L10.9679 5.03559H11.0873L10.643 4.26854L10.6231 4.23317H9.6969L9.75658 4.33706L10.2009 3.57001L10.2208 3.53464L10.2009 3.49927L9.75658 2.73222L9.6969 2.83611H10.6231L10.643 2.80075L11.0873 2.03192H10.9679L11.4101 2.80075L11.4322 2.83611H12.3584L12.2987 2.73222L11.8544 3.49927L11.8345 3.53464L11.8544 3.57001L12.2987 4.33706L12.3584 4.23317ZM11.9759 3.57001L12.4181 2.80075L12.4777 2.69685H11.4719L11.5316 2.73222L11.0873 1.96251L11.0276 1.8584L10.9679 1.96251L10.5236 2.73222L10.5833 2.69685H9.57532L9.635 2.80075L10.0793 3.57001V3.49927L9.635 4.26854L9.57532 4.37243H10.5833L10.5236 4.33706L10.9679 5.10632L11.0276 5.21022L11.0873 5.10632L11.5316 4.33706L11.4719 4.37243H12.4777L12.4181 4.26854L11.9759 3.49927V3.57001Z" fill="black"/>
<path d="M23.7668 3.53683L24.2089 2.76536H23.3247L22.8826 1.99609L22.4405 2.76536H21.5563L21.9984 3.53683L21.5563 4.31051H22.4405L22.8826 5.06209L23.3247 4.31051H24.2089L23.7668 3.53683Z" fill="white"/>
<path d="M21.5474 4.37241H22.434L22.3743 4.33704L22.8164 5.1063L22.883 5.2102L22.9493 5.1063L23.3914 4.33704L23.3251 4.37241H24.3198L24.2756 4.26851L23.8335 3.49925V3.56778L24.2756 2.80072L24.3198 2.69683H23.3251L23.3914 2.72999L22.9493 1.96227L22.883 1.85815L22.8164 1.96205L22.3743 2.72999L22.4342 2.69683H21.4282L21.4879 2.80072L21.93 3.56778V3.49925L21.4879 4.26851L21.4282 4.37241H21.5474ZM22.0518 3.49925L21.6073 2.7322L21.5474 2.83609H22.476L22.4959 2.80072L22.9491 2.03212H22.8164L23.2585 2.80072L23.2809 2.83609H24.2093L24.1427 2.7322L23.7006 3.49925L23.6785 3.53462L23.7006 3.56999L24.1427 4.33704L24.2093 4.23314H23.2809L23.2585 4.26851L22.8164 5.03778H22.9493L22.4961 4.26851L22.4762 4.23314H21.5476L21.6075 4.33704L22.052 3.56999L22.0719 3.53462L22.0518 3.49925Z" fill="black"/>
<path d="M16.954 4.73486C15.7735 4.73486 14.5754 5.76718 14.5754 7.05813H19.3303C19.3303 5.76718 18.1344 4.73486 16.954 4.73486Z" fill="white"/>
<path d="M16.9539 4.66431C15.7978 4.66431 14.5068 5.68778 14.5068 7.05831V7.12904H19.3987V7.05831C19.3987 5.68778 18.1076 4.66431 16.9539 4.66431ZM19.3302 6.98978H14.5754L14.6461 7.05831C14.6461 5.76736 15.8641 4.80357 16.9517 4.80357C18.0415 4.80357 19.2595 5.76736 19.2595 7.05831L19.3302 6.98978Z" fill="black"/>
<path d="M14.5003 8.20099H19.4077L19.6952 8.11257V7.05151H14.2131V8.11257L14.5003 8.20099Z" fill="white"/>
<path d="M16.9539 6.98975H14.151V8.1569L14.1996 8.17459L14.4693 8.26522L14.4804 8.26964H19.4275L19.4388 8.26522L19.7085 8.17459L19.7549 8.1569V6.98975H16.9539ZM19.6154 7.05827V8.10827L19.6618 8.04196L19.3919 8.1348L19.4165 8.13038H14.4914L14.5135 8.1348L14.2438 8.04196L14.2903 8.10827V7.05827L14.2217 7.12901H19.6839L19.6154 7.05827Z" fill="black"/>
<path d="M14.5446 18.4359H19.3635V8.20117H14.5446V18.4359Z" fill="white"/>
<path d="M16.9539 8.13037H14.4692V18.5154H19.4385V8.13037H16.9539ZM19.2992 8.20111V18.4447L19.368 18.3762H14.538L14.6065 18.4447V8.20111L14.538 8.26963H19.368L19.2992 8.20111Z" fill="black"/>
<path d="M20.6677 18.2148V16.8H19.1203V18.2148H17.7056V16.8H16.2024V18.2148H14.7877V16.8H13.2403V18.2148H11.9582V16.8H10.4551V18.2148H9.17295V16.8H7.42664V19.4748L7.84664 19.5853H26.0393L26.2603 19.4748V16.8H24.713V18.2148H23.4532V16.8H21.9498" fill="white"/>
<path d="M9.18401 16.7402H7.36475V19.5299L7.4178 19.5432L7.84001 19.6449L7.84885 19.6471H26.0658L26.0881 19.6382L26.2869 19.5365L26.3311 19.5189V16.7402H9.18401ZM10.4617 16.8795H26.2647L26.1984 16.811V19.4747L26.2205 19.4128L26.0216 19.5144L26.0439 19.5078H7.85791L7.87339 19.51L7.44897 19.4083L7.50202 19.4747V16.8088L7.43349 16.8795H10.4617Z" fill="black"/>
<path d="M19.4628 31.898H28.4088C28.4088 31.898 27.6351 30.5496 26.773 26.637C25.9772 23.0338 26.2646 19.4749 26.2646 19.4749H7.43314C7.43314 19.4749 7.72051 23.0338 6.92693 26.637C6.06482 30.5496 5.29114 31.898 5.29114 31.898H14.4582" fill="white"/>
<path d="M19.4629 31.9421H28.4973L28.4531 31.8537C28.431 31.8537 27.6794 30.461 26.8176 26.6147C26.0439 23.0779 26.3091 19.5145 26.3091 19.4791L26.3312 19.4172H7.37156L7.37598 19.4791C7.37819 19.5145 7.65451 23.0779 6.86977 26.6147C6.02093 30.461 5.24945 31.8537 5.24282 31.8537L5.2384 31.876H5.23619L5.21851 31.9423H14.4585V31.8316H5.29145L5.3423 31.92C5.35114 31.8976 6.12924 30.5271 6.98251 26.6589C7.77166 23.0779 7.49535 19.499 7.49093 19.4681L7.43345 19.5322H26.2649L26.1986 19.4703C26.1986 19.5057 25.911 23.0779 26.707 26.6589C27.0607 28.2728 27.6355 30.5052 28.3426 31.92L28.4091 31.8316H19.4631L19.4629 31.9421Z" fill="black"/>
<path d="M28.409 33.5115H28.4532V31.8315H19.4343V31.9421H28.409L28.3427 31.8979V33.4676L28.409 33.401H5.28689L5.3532 33.4676V31.8979L5.28689 31.9421H14.4827V31.8315H5.24268V33.5115H28.409Z" fill="black"/>
<path d="M19.2751 8.37792V8.13477H14.6108V8.37792H19.2751Z" fill="black"/>
<path d="M25.2921 8.37792V8.13477H20.5394V8.37792H25.2921Z" fill="black"/>
<path d="M13.395 8.37792V8.13477H8.64233V8.37792H13.395Z" fill="black"/>
<path d="M16.965 23.4536C18.351 23.4757 19.2838 24.7578 19.2838 25.9515V33.4452H19.5734V25.9515C19.5734 24.6252 18.5256 23.1884 16.9672 23.1663L16.965 23.4536Z" fill="black"/>
<path d="M16.8678 23.1885V33.4453H17.0402V23.1885H16.8678Z" fill="black"/>
<path d="M16.954 23.1663C15.3867 23.1663 14.3323 24.6031 14.3323 25.9515V33.4452H14.6219V25.9515C14.6219 24.7578 15.5591 23.4536 16.954 23.4536V23.1663Z" fill="black"/>
<path d="M26.1984 19.5853V19.3643H7.49731V19.5853H26.1984Z" fill="black"/>
<path d="M19.4674 31.7654H28.3427V32.0085H19.4674V31.7654Z" fill="black"/>
<path d="M5.33984 31.7654H14.4561V32.0085H5.33984V31.7654Z" fill="black"/>
</g>
<defs>
<clipPath id="clip0_285_15260">
<rect width="32.7158" height="42" fill="white" transform="translate(0.578369)"/>
</clipPath>
</defs>
</svg>
