<svg width="43" height="42" viewBox="0 0 43 42" fill="none" xmlns="http://www.w3.org/2000/svg">
<path fill-rule="evenodd" clip-rule="evenodd" d="M27.6008 38.5699L27.1276 39.1887L27.2158 39.2531C27.5476 39.4981 27.9494 39.5079 28.2714 39.3861C28.5556 39.2783 28.788 39.0697 28.8594 38.8079C28.3932 38.8513 27.9466 38.7561 27.6008 38.5699ZM30.9608 37.6039C30.699 37.8279 30.3154 37.9959 29.8268 38.0561L29.9052 38.9437L30.0088 38.9381C30.3658 38.9185 30.657 38.6791 30.825 38.3865C30.965 38.1429 31.0252 37.8559 30.9538 37.6025M25.8718 36.8745C25.3342 36.9431 24.8918 37.4457 24.9492 37.9945L24.9604 38.0967L26.0132 38.0281C25.8606 37.6809 25.806 37.2637 25.8732 36.8689M17.0532 35.4269C16.6766 35.7909 16.3112 35.9281 15.9794 35.9561L16.048 36.8647L16.1586 36.8521C16.7998 36.7807 17.259 36.0961 17.0532 35.4269ZM13.2844 35.2309C13.073 35.4297 12.9568 35.7139 12.9344 35.9967C12.9064 36.3425 13.0142 36.6967 13.2816 36.8997L13.3628 36.9613L14.0446 36.1563C14.0516 36.1591 14.06 36.1619 14.067 36.1647C13.9718 36.1143 13.8766 36.0569 13.787 35.9883C13.5574 35.8147 13.367 35.5683 13.2844 35.2309ZM26.3464 34.8249C25.8116 34.8095 25.2488 35.2757 25.2278 35.9449L25.225 36.0597L26.016 36.0247C26.1154 35.6089 26.3548 35.2281 26.6964 34.9089C26.5858 34.8543 26.4682 34.8263 26.3478 34.8235M12.6278 33.3535C12.3772 33.3815 12.1476 33.5285 11.9838 33.7273C11.7948 33.9541 11.6814 34.2481 11.7402 34.5267L11.7598 34.6177L12.877 34.5421C12.6866 34.2187 12.5732 33.8281 12.6278 33.3535ZM13.8878 31.3935C13.3096 31.3879 12.7314 31.8583 12.7678 32.5317L12.7734 32.6367L13.5112 32.6073L13.5252 32.5639C13.6316 32.2293 13.794 31.8639 14.3652 31.5195C14.214 31.4341 14.0488 31.3935 13.8836 31.3921M7.80758 24.9661L7.28678 25.6241L7.34978 25.6913C7.81738 26.1855 8.74838 25.9503 8.99758 25.2909C8.62658 25.3119 8.22898 25.2167 7.80618 24.9675M11.1172 24.0995C10.8218 24.4271 10.4592 24.6497 10.0406 24.7351L10.1036 25.5065L10.1988 25.5093C10.5222 25.5191 10.8176 25.2909 10.9968 24.9913C11.1522 24.7295 11.2208 24.4005 11.1172 24.0995ZM6.39498 22.7415C6.13598 22.7653 5.89658 22.8969 5.71878 23.0831C5.50598 23.3085 5.37438 23.6109 5.42198 23.9035L5.43738 23.9987L6.44678 23.9413C6.29138 23.5255 6.31938 23.1251 6.39498 22.7401M6.83878 20.7661C6.62598 20.7717 6.41318 20.8571 6.23958 20.9887C5.94978 21.2071 5.74538 21.5655 5.81958 21.9393L5.83778 22.0303L6.63438 21.9911C6.64558 21.6481 6.77998 21.2267 7.16358 20.8263C7.05998 20.7829 6.95078 20.7633 6.84158 20.7661M7.33018 11.9041L6.65958 12.7273L6.72678 12.7959C6.94238 13.0171 7.24898 13.0787 7.52478 13.0409C7.73338 13.0115 7.92798 12.9261 8.06518 12.7945C7.70258 12.6013 7.47298 12.2807 7.33018 11.9041ZM6.03658 10.0379C5.85458 10.0813 5.68238 10.1905 5.54658 10.3417C5.35898 10.5489 5.23718 10.8359 5.26658 11.1369L5.27638 11.2377L6.32638 11.1929C6.22978 11.0669 6.13878 10.9269 6.07858 10.7575C6.00718 10.5587 5.98058 10.3235 6.03378 10.0379M6.53218 8.18993C5.89378 8.24173 5.42478 8.77513 5.48918 9.30993L5.50178 9.40793L6.36138 9.37013C6.27878 8.89133 6.38378 8.50493 6.53218 8.18293M7.41418 11.4449L7.45618 11.6017C7.59618 12.1197 7.84818 12.5145 8.40118 12.7175C8.70778 12.7511 8.97658 12.6559 9.19778 12.4305C9.58138 13.0633 9.66818 13.9523 9.44698 14.6481L9.29298 15.1325L10.427 13.8501C10.8512 14.4787 10.7952 15.4531 10.6118 16.0579L10.4746 16.5129L11.7178 15.1437C12.0328 15.4923 12.3058 16.0215 12.4178 16.5199C13.1094 15.2053 14.1454 14.1259 15.187 13.3643L15.1002 12.2457C13.0366 11.0571 11.183 9.97773 9.87818 9.21053C10.0742 8.93193 10.14 8.63933 10.0938 8.37613C10.0462 8.10873 9.83198 7.86653 9.63178 7.70133C9.17118 7.59493 8.42358 7.76573 8.15058 8.13953L7.94618 8.03733C7.57238 7.82173 7.19858 7.86653 6.89198 8.03733C6.66658 8.41953 6.44958 8.78493 6.59098 9.43733C6.59378 9.44293 6.58258 9.55773 6.58538 9.56333C6.48318 9.63193 6.35018 9.69913 6.31378 9.80133C6.19758 10.1667 6.20598 10.4663 6.28158 10.6763C6.35718 10.8863 6.48458 11.0767 6.65398 11.2979C6.89058 11.4603 7.15098 11.4897 7.41418 11.4365V11.4449ZM8.41238 6.96493C8.13658 6.97053 7.86498 7.07693 7.66478 7.29953L7.59618 7.37513L8.09038 7.86653L8.15898 7.82173C8.38438 7.67473 8.62238 7.49413 9.09838 7.46753C9.18238 7.46333 9.27338 7.46333 9.37278 7.46767C9.16138 7.13447 8.78478 6.95527 8.41238 6.96227M13.7268 32.6383L13.6932 32.7755H13.4888C13.2368 32.8161 13.0954 32.9029 12.9442 33.0471C12.7062 33.6253 12.8854 34.2315 13.2004 34.6487C13.2844 34.7327 13.3768 34.7607 13.4888 34.7663L13.4594 34.9161C13.4622 35.3585 13.6568 35.6301 13.9144 35.8261C14.1734 36.0221 14.4996 36.1313 14.7446 36.2097C14.9714 36.1243 15.2556 35.9381 15.4264 35.6315L15.6756 35.7463C16.0956 35.7911 16.5562 35.7155 17.1022 35.0631C17.1344 34.9021 17.133 34.7299 17.0896 34.5535C18.2096 34.0397 19.086 33.3159 19.9778 32.5459L20.122 33.9403L20.2788 33.8003C20.8906 33.2515 21.3064 32.4507 21.5164 31.7227L21.6144 32.7629L21.7754 32.6047C22.4082 31.9789 22.7904 30.8757 22.8002 29.9307C22.8044 29.4323 22.6854 28.9017 22.7218 28.4033C22.7904 27.4233 23.5352 26.6687 24.5558 26.6967C24.0518 27.1307 23.8558 27.7047 23.8894 28.2633C23.9328 28.9003 24.2758 29.5191 24.7994 29.9321C25.5246 30.5061 26.1378 30.5621 26.7104 30.6993C27.283 30.8379 27.829 31.0493 28.5248 31.9565L28.7376 32.2337L28.6494 30.7567C30.2426 32.0307 29.8772 34.5787 28.0614 35.4313C27.8528 35.1443 27.6036 34.9735 27.3488 34.9147C27.2438 34.8909 27.1388 34.8853 27.038 34.8951L26.9904 34.9343C26.5158 35.3179 26.2218 35.7995 26.1798 36.3217L26.2428 36.4827L26.1728 36.5499H26.1729L26.1393 36.6521C25.9615 37.1911 26.0861 37.8715 26.3927 38.2523L26.4529 38.3265C26.7595 38.4665 27.1375 38.4651 27.4847 38.2369C27.9047 38.5239 28.5249 38.6849 29.1087 38.5547L29.1717 38.5407C29.3439 38.3699 29.4629 38.1319 29.4853 37.8407C30.2203 37.8085 30.7635 37.5523 30.9805 37.2527C31.0701 36.8901 31.0547 36.5107 30.8041 36.2125C31.4943 35.5797 32.1089 34.7593 32.6549 33.9179L32.8019 35.4719L32.9587 35.3403C33.2149 35.1247 33.5173 34.6823 33.7903 34.1545C33.9639 33.8171 34.1179 33.4545 34.2341 33.0849L34.3027 33.7961L34.4469 33.7121C35.1287 33.3131 35.5907 32.4759 35.6425 31.5813C35.6957 30.6867 35.3261 29.7263 34.3405 29.1145C33.7889 28.7701 33.3129 28.7099 32.9069 28.7211C32.5009 28.7323 32.1677 28.8037 31.8779 28.7407C31.2927 28.6161 30.7915 28.2073 30.7579 27.3477C30.7509 27.1517 30.8111 26.8311 30.9945 26.5483C31.1779 26.2683 31.4747 26.0163 31.9619 25.9337C33.1981 25.7167 34.3223 25.6131 35.1007 25.2449C37.0131 24.3349 37.9707 22.1985 37.2441 20.0089C37.1153 19.6253 36.9277 19.3915 36.7989 19.1521C36.6701 18.9127 36.5861 18.6677 36.6407 18.2099C36.6785 17.9005 36.7905 17.7199 36.9515 17.5379C37.1125 17.3573 37.3267 17.1809 37.5395 16.9135C37.6935 16.7203 37.8979 16.3563 37.9581 15.8789C38.0183 15.4015 37.9273 14.8135 37.4933 14.2031L37.3211 13.9623L37.2987 14.2577C37.2469 14.9339 36.8731 15.2993 36.4279 15.5681C36.2809 15.6577 36.0149 15.8929 35.8189 16.2863C35.6677 16.5887 35.5655 16.9835 35.6075 17.4609C35.4619 17.2705 35.3205 17.0871 35.1805 16.8869C34.9523 16.5621 34.7661 16.2401 34.7255 16.0245C34.7143 15.9657 34.6849 15.8551 34.6695 15.6899C34.6541 15.5261 34.6555 15.3161 34.7087 15.0879C34.8151 14.6329 35.1231 14.0939 35.9687 13.6879C37.3575 13.0075 38.1891 10.9439 37.0537 9.27647L36.8829 9.02587L36.8591 9.32827C36.7947 10.1361 36.2557 10.8823 35.3751 11.0685C35.0727 11.1357 34.7241 11.2057 34.3951 11.3961C33.4739 11.9211 33.0105 12.9557 33.1673 14.0253C32.8537 13.5983 32.6521 13.2805 32.5303 13.0621C32.3721 12.7821 32.3427 12.6701 32.3427 12.6701C31.8457 10.9075 32.7333 9.52567 34.1263 9.03007C36.8297 8.06687 37.6207 5.03587 36.6029 3.06187L36.4643 2.79167L36.4027 3.08847C36.2263 3.94387 35.5361 4.94767 34.4735 5.26407L34.3027 3.33627L34.1403 3.82767C33.8085 4.83147 33.3395 5.12267 32.7655 5.47407C32.1915 5.82547 31.5167 6.22727 30.8867 7.38507C30.0327 8.94327 29.9305 11.0013 31.1793 12.7723L35.9393 19.5203C36.6323 20.5003 36.6911 21.4943 36.4517 22.3343C36.2123 23.1659 35.6635 23.8351 35.1553 24.1403C34.1991 24.7157 33.4613 24.6863 32.5303 24.8291C33.0357 23.6951 32.7711 22.2951 31.4103 21.5209C30.0495 20.7467 29.0807 20.2049 25.8943 18.4017C25.2391 18.5319 24.5797 18.4269 24.0239 18.2169C22.2795 19.7107 20.5099 19.9837 18.8495 20.0971C17.1373 20.2147 15.5357 20.1909 13.9579 21.1219L13.4749 21.4061V20.8461C13.4748 20.0649 13.6149 19.4069 13.7717 18.9029C13.8319 18.7097 13.8935 18.5431 13.9523 18.3961L12.4515 18.5193L8.53152 21.0379C8.23892 20.7649 7.91412 20.6711 7.62292 20.7061L7.57252 20.7453C6.91032 21.2647 6.80952 21.8177 6.85432 22.1873L6.86692 22.2937H6.85852C6.86692 22.3105 6.87672 22.3273 6.88652 22.3441C6.80532 22.3917 6.73392 22.4449 6.67092 22.5023L6.65832 22.5555C6.53092 23.0945 6.45392 23.5887 6.78292 24.1431L6.83752 24.2355C6.86132 24.2523 6.88792 24.2677 6.91452 24.2817C7.11612 24.3867 7.35972 24.4203 7.61452 24.3587C7.63552 24.4623 7.66632 24.5589 7.70692 24.6457L7.76852 24.6877C8.31732 25.0559 8.78492 25.1343 9.21752 25.0461L9.30712 25.0279C9.44712 24.9103 9.56192 24.7507 9.63192 24.5505C9.64032 24.5533 9.64732 24.5575 9.65572 24.5603L9.73972 24.5561C10.2913 24.5309 10.7407 24.2593 11.0907 23.7945L11.1411 23.7273C11.1649 23.5509 11.1495 23.3619 11.0865 23.1729C12.1701 23.2527 13.2425 23.6923 13.9859 24.2929L14.1819 24.4525L13.9831 22.1719C14.4353 22.1677 14.9085 22.3441 15.3089 22.6129C15.7415 22.9041 16.0887 23.3017 16.2399 23.6629L16.4933 24.2705L16.3351 22.0963C16.5087 22.1159 16.8139 22.1901 17.1373 22.3665C17.5419 22.5877 17.9773 22.9629 18.2713 23.5775L18.5275 24.1305L18.3483 22.0697C19.5089 22.6759 20.3223 22.6633 21.2323 22.6297C22.1325 22.6017 23.1517 22.5765 24.7883 23.1281C22.4531 23.8575 19.9051 24.6051 19.9051 24.6051H19.9009L19.8967 24.6052C18.6227 25.0868 17.7463 26.134 17.5167 27.5732C17.4383 28.0324 17.4929 28.4328 17.5419 28.8192C17.5909 29.2042 17.6357 29.5738 17.5545 29.9882C17.3165 31.2328 16.4345 32.035 15.6379 32.3164C15.4825 31.8488 15.1311 31.5968 14.7629 31.5506C13.9425 31.909 13.8529 32.266 13.7381 32.6216L13.7268 32.6383ZM19.9148 9.62227C20.2004 9.59847 20.3656 9.64887 20.5714 9.89247C20.4328 10.0353 20.2648 10.1515 20.0758 10.2229C19.7328 10.3531 19.3212 10.3447 18.8648 10.0787C18.8424 10.0661 18.8088 10.0479 18.7668 10.0325C18.7248 10.0171 18.6758 10.0003 18.6114 10.0143C18.5792 10.0213 18.54 10.0409 18.5148 10.0745C18.4896 10.1081 18.4798 10.1487 18.4784 10.1865C18.4782 10.2621 18.5008 10.3391 18.5512 10.4483C18.596 10.5491 18.6884 10.7451 18.897 10.9005C19.1056 11.0559 19.4276 11.1679 19.912 11.1301C19.9638 11.1259 20.0198 11.1133 20.0926 11.1035C20.1668 11.0951 20.2508 11.0923 20.3278 11.1036C20.4048 11.1176 20.472 11.1456 20.5252 11.2002C20.5784 11.2548 20.6232 11.3388 20.6414 11.4802C20.6568 11.609 20.6274 11.6818 20.5728 11.7406C20.5182 11.7994 20.4272 11.8428 20.3124 11.8694C20.0842 11.9212 19.7762 11.9002 19.5732 11.875C18.9138 11.7924 18.4168 11.5362 17.7826 10.9916L17.5866 10.8236L17.7098 12.4434C16.6962 12.5134 15.9388 12.0584 15.4558 11.714L15.2696 11.5796L15.4152 13.4682C13.969 14.493 12.5158 16.159 11.9992 18.203L11.9628 18.3486L14.2868 18.1568C14.2112 18.3346 14.0978 18.5922 13.9802 18.9702C13.829 19.4574 13.6918 20.0902 13.6932 20.849V21.0366L13.8542 20.9414C15.488 19.9782 17.14 20.0048 18.8396 19.8872C20.5196 19.7724 22.2528 19.5078 23.986 17.9748C24.7952 18.3108 25.8522 18.42 26.7678 17.8222L26.87 17.7564L26.7916 17.664C26.1756 16.9388 25.7486 16.3144 25.6912 15.564L27.7506 15.3498L27.6582 15.2042C27.2242 14.5322 26.9162 13.5802 27.0282 12.7332L29.033 12.5624L28.879 12.4C28.3386 11.84 27.7268 10.881 27.738 9.95981L30.1922 9.72881L29.6112 9.57481C29.3648 9.50901 28.9112 9.24021 28.4926 8.84681C28.0992 8.47301 27.7422 7.98721 27.5896 7.46501L29.5846 6.45421L29.1254 6.45841C28.4786 6.46541 27.619 6.31421 26.9708 5.82421L28.4786 4.49701L28.011 4.63701C27.5616 4.77141 26.737 4.83861 26.142 4.65241L27.1388 3.41901L26.7104 3.62621C26.296 3.82501 25.2768 4.11761 24.4326 3.71581C24.5054 3.15581 24.1974 2.72041 23.79 2.57341C23.6836 2.53421 23.5688 2.51601 23.454 2.51741C23.1292 2.52301 22.8002 2.70081 22.5944 3.06761C21.2042 2.93461 19.9918 3.46241 19.268 4.55161C19.1924 4.66501 19.1462 4.76021 19.0944 4.83721C19.0426 4.91561 18.9852 4.98001 18.8704 5.05281L17.7798 5.81161C17.5796 5.95161 17.406 6.17001 17.3486 6.44021C17.294 6.69641 17.357 6.99461 17.5866 7.27881C17.4886 7.72261 17.5642 8.07961 17.749 8.32321C17.9408 8.57661 18.239 8.70401 18.5358 8.71241C18.8326 8.72081 19.135 8.61161 19.3422 8.38061C19.5284 8.17341 19.6208 7.86541 19.5746 7.48741C20.1094 7.48041 20.5112 7.74641 20.745 8.12581C20.9018 8.38061 20.9788 8.68441 20.962 8.98261C20.85 8.90701 20.7226 8.86081 20.5784 8.83561C20.3712 8.80061 20.1318 8.80761 19.8392 8.83281L17.2618 9.04701C16.5072 9.11001 16.0494 8.77401 15.7834 8.35261C15.5174 7.93261 15.467 7.40901 15.5426 7.18501L15.5874 7.05201L15.4474 7.04361C15.3858 7.04081 15.3256 7.04081 15.2668 7.04361C14.858 7.06321 14.5388 7.23261 14.3288 7.48321C14.088 7.76881 13.9886 8.15241 14.0222 8.53041C14.0558 8.90841 14.2238 9.28501 14.5276 9.55661C14.8314 9.82821 15.2724 9.99061 15.831 9.94581L19.891 9.61541M19.681 5.09341C19.6068 5.19001 19.5298 5.28941 19.4934 5.40841C19.436 5.57501 19.4598 5.76961 19.569 5.91101C19.6866 6.07201 19.9064 6.16161 20.1024 6.10281C20.2956 6.01881 20.3936 5.87461 20.465 5.71081L19.6824 5.09481L19.681 5.09341ZM19.723 5.40281L20.192 5.77241C20.1416 5.85641 20.0464 5.91801 19.947 5.90541C19.7916 5.89141 19.6684 5.74301 19.674 5.58761C19.674 5.52321 19.6936 5.46021 19.723 5.40281Z" fill="#E10B13"/>
</svg>
