<svg width="600" height="700" viewBox="0 0 600 700" fill="none" xmlns="http://www.w3.org/2000/svg">
<path d="M50 50H550V500C550 553.333 466.667 603.333 300 650C133.333 603.333 50 553.333 50 500V50Z" fill="black"/>
<path d="M65 65H535V495C535 545 456.667 591.667 300 635C143.333 591.667 65 545 65 495V65Z" fill="#E3000F"/>
<path d="M261.079 153.638L253.651 128.878L239.62 141.258L235.493 134.655V123.926L227.239 134.655L216.097 141.258V149.924L204.955 153.638L174.417 181.7V204.81L188.448 211.413H204.955L214.034 200.683H231.366L235.493 211.413L218.986 231.221L204.955 257.632L188.448 276.615L169.465 269.187L150.482 264.235L129.023 289.821L111.69 299.725V317.057V337.691L129.023 350.071L135.626 326.961L129.023 321.184L124.071 317.057L129.023 306.328H135.626L150.482 284.043L169.465 289.821L188.448 306.328H157.085L141.403 317.057V350.071V374.832L150.482 397.941L174.417 404.544L169.465 382.26L157.085 374.832V366.578L169.465 359.15L157.085 350.071V326.961H169.465L231.366 366.578L239.62 359.15L285.839 374.832L328.757 366.578L358.47 387.212L395.611 408.671L406.34 453.24L389.008 476.349L378.278 499.459L412.118 490.38V476.349L431.926 458.192L420.371 415.274L436.053 432.606L442.655 476.349L417.07 521.744L454.21 515.141V499.459L460.813 483.778L470.717 476.349L454.21 415.274L436.053 397.941L417.07 382.26V359.15V337.691L412.118 317.057H425.323L442.655 306.328L454.21 317.057L442.655 326.961V345.944L454.21 366.578H460.813H474.844L483.923 387.212V350.071L500.43 345.944H488.875V326.961L483.923 299.725L474.844 264.235L454.21 251.029L436.053 246.077L425.323 251.029L412.118 269.187L417.07 289.821L425.323 299.725L406.34 306.328L378.278 289.821L351.867 284.043H316.377L299.87 269.187L307.298 264.235V241.125V211.413L299.87 181.7L275.935 153.638H261.079Z" fill="#FFFBFB"/>
<path d="M227.239 146.21L216.097 149.924M216.097 149.924L204.955 153.638L174.417 181.7V204.81L188.448 211.413H204.955L214.034 200.683H231.366L235.493 211.413L218.986 231.221L204.955 257.632L188.448 276.615L169.465 269.187L150.482 264.235L129.023 289.821L111.69 299.725V317.057V337.691L129.023 350.071L135.626 326.961L129.023 321.184L124.071 317.057L129.023 306.328H135.626L150.482 284.043L169.465 289.821L188.448 306.328H157.085L141.403 317.057V350.071V374.832L150.482 397.941L174.417 404.544L169.465 382.26L157.085 374.832V366.578L169.465 359.15L157.085 350.071V326.961H169.465L231.366 366.578L239.62 359.15L285.839 374.832L328.757 366.578L358.47 387.212L395.611 408.671L406.34 453.24L389.008 476.349L378.278 499.459L412.118 490.38V476.349L431.926 458.192L420.371 415.274L436.053 432.606L442.655 476.349L417.07 521.744L454.21 515.141V499.459L460.813 483.778L470.717 476.349L454.21 415.274L436.053 397.941L417.07 382.26V359.15V337.691L412.118 317.057H425.323L442.655 306.328L454.21 317.057L442.655 326.961V345.944L454.21 366.578H460.813H474.844L483.923 387.212V350.071L500.43 345.944H488.875V326.961L483.923 299.725L474.844 264.235L454.21 251.029L436.053 246.077L425.323 251.029L412.118 269.187L417.07 289.821L425.323 299.725L406.34 306.328L378.278 289.821L351.867 284.043H316.377L299.87 269.187L307.298 264.235V241.125V211.413L299.87 181.7L275.935 153.638H261.079L253.651 128.878L239.62 141.258L235.493 134.655V123.926L227.239 134.655L216.097 141.258V149.924Z" stroke="black" stroke-width="4"/>
</svg>
