<svg width="42" height="42" viewBox="0 0 42 42" fill="none" xmlns="http://www.w3.org/2000/svg">
<g clip-path="url(#clip0_285_15272)">
<path d="M0 21V0H21H42V21V42H21H0V21Z" fill="#FDFDFC"/>
<path d="M0 21V0H21H42V21V42H21H0V21ZM41.307 21V0.693H21H0.693L0.682261 20.958C0.676354 32.1037 0.680493 41.2466 0.691459 41.2755C0.707388 41.3175 4.79294 41.326 21.0092 41.3175L41.307 41.307V21ZM17.6164 40.3636C17.5687 40.3443 17.471 40.2085 17.3992 40.0618C17.0775 39.404 17.1584 38.8403 17.6223 38.5071C17.7843 38.3907 17.808 38.354 17.808 38.2185C17.808 38.1251 17.7734 38.0193 17.721 37.9527C17.6454 37.8566 17.6025 37.8419 17.3955 37.8411C17.083 37.8399 16.8609 37.7351 16.6407 37.4849C16.1752 36.9561 16.1725 35.8741 16.6345 34.9861C17.1234 34.0463 17.9873 33.6606 18.6035 34.107C18.7937 34.2448 18.921 34.261 19.0583 34.1648C19.2273 34.0465 19.2481 33.9561 19.1739 33.6605C19.0654 33.2278 19.162 32.9164 19.5017 32.6032C20.4558 31.7237 22.5647 31.9301 23.0591 32.9513C23.1525 33.1441 23.1572 33.3899 23.0765 33.8556C23.0535 33.9885 23.066 34.0193 23.1834 34.1181C23.3325 34.2435 23.5232 34.2643 23.6063 34.1642C23.7694 33.9676 24.1785 33.8732 24.5019 33.9574C24.8124 34.0383 25.0036 34.1637 25.2929 34.4762C25.9125 35.1454 26.1697 36.3144 25.8717 37.107C25.6989 37.5668 25.3185 37.842 24.8559 37.842C24.6383 37.842 24.5128 37.947 24.466 38.1684C24.4389 38.2964 24.4541 38.3215 24.6906 38.5401C25.0137 38.8387 25.0934 39.0307 25.0641 39.4397C25.0381 39.803 24.7993 40.3358 24.6436 40.3775C24.4973 40.4167 17.7144 40.4033 17.6164 40.3636ZM21.9246 39.4861C22.4793 39.309 23.0704 38.8442 23.3716 38.3483C23.7514 37.7231 23.8501 36.9095 23.6297 36.2217C23.3773 35.4344 22.7767 34.8106 22.0071 34.5363C21.5984 34.3907 20.9406 34.3553 20.5351 34.457C19.7934 34.6432 19.1483 35.1585 18.8214 35.826C18.4292 36.6266 18.4292 37.3802 18.8213 38.1756C19.1431 38.8283 19.76 39.3223 20.5051 39.5238C20.9004 39.6307 21.5235 39.6142 21.9246 39.4861ZM20.8394 38.5951C20.3475 38.4983 19.8733 38.1307 19.6639 37.6839C19.5638 37.4704 19.551 37.3929 19.551 37.002C19.551 36.6133 19.5641 36.533 19.6617 36.325C20.3039 34.9554 22.2857 35.107 22.7026 36.5577C22.9634 37.4646 22.3645 38.4205 21.4248 38.5974C21.1684 38.6457 21.0951 38.6454 20.8394 38.5951ZM1.596 40.2697C1.596 40.2351 1.69286 39.9534 1.81125 39.6439C1.92963 39.3343 2.30512 38.2966 2.64566 37.338C3.36475 35.3137 3.63238 34.6072 4.05643 33.6137C4.79789 31.8765 5.62912 30.4383 6.56461 29.274C7.01969 28.7076 7.98953 27.7657 8.63217 27.266C9.60101 26.5126 10.4767 25.9567 12.831 24.6003C15.6222 22.9922 16.6668 22.2582 17.8165 21.0973C18.3792 20.529 18.6245 20.236 19.0984 19.5658C19.4551 19.0614 20.1028 18.0042 20.3216 17.5696C20.4765 17.2617 20.526 17.2206 20.5633 17.3693C20.6042 17.5322 20.5502 20.9859 20.4983 21.525C20.4215 22.3228 20.3309 22.972 20.1994 23.667C18.8193 30.9605 13.5364 36.9962 6.468 39.3549C4.98956 39.8482 3.23628 40.2202 1.9845 40.306C1.65538 40.3286 1.596 40.323 1.596 40.2697ZM37.5897 39.9015C32.8781 38.8413 28.7102 36.1879 25.7491 32.3634C25.2152 31.6737 24.5136 30.6156 24.5598 30.5694C24.5816 30.5476 24.8841 30.5496 25.2871 30.5743C25.6665 30.5975 26.7046 30.6549 27.594 30.7018C28.4833 30.7487 29.5228 30.805 29.904 30.8268C31.8806 30.9402 31.9428 30.937 32.466 30.6919C32.8108 30.5305 33.3521 29.9964 33.538 29.6343C33.6901 29.3381 33.7487 29.2951 33.9489 29.3327C34.4175 29.4206 34.6174 30.0189 34.3528 30.5416C34.2243 30.7955 33.51 31.4888 33.18 31.68C33.0298 31.767 32.7558 31.8887 32.571 31.9506C32.2606 32.0544 32.1805 32.0632 31.521 32.065C31.1283 32.0661 30.3383 32.0405 29.7656 32.008C28.9737 31.9632 28.7124 31.9608 28.6752 31.998C28.5826 32.0906 29.1006 33.019 29.62 33.6911C30.4534 34.7695 31.6061 35.6697 33.537 36.75C35.907 38.076 36.3889 38.3714 37.149 38.9641C37.5708 39.2931 38.262 39.9288 38.262 39.9878C38.262 40.0439 38.1708 40.0322 37.5897 39.9015ZM16.144 39.4392C15.8835 39.3467 15.7935 39.3005 15.5085 39.1129C15.2522 38.9443 15.2354 38.8678 15.3734 38.4989C15.4824 38.2075 15.7719 37.758 15.8505 37.758C15.8837 37.758 15.9798 37.8519 16.064 37.9667C16.1483 38.0815 16.3106 38.2359 16.4246 38.3098C16.5387 38.3837 16.632 38.4576 16.632 38.4739C16.632 38.4903 16.6011 38.5769 16.5632 38.6664C16.5254 38.7558 16.4829 38.9787 16.4687 39.1616C16.4546 39.3446 16.4241 39.4991 16.401 39.5049C16.3779 39.5107 16.2623 39.4812 16.144 39.4392ZM25.858 39.494C25.8426 39.4786 25.83 39.3656 25.83 39.2429C25.83 39.1202 25.7884 38.8931 25.7376 38.7383L25.6452 38.4569L25.7664 38.37C25.9888 38.2103 26.2095 37.9995 26.2812 37.8781C26.3202 37.8121 26.3839 37.758 26.4227 37.758C26.56 37.758 26.9732 38.5305 26.9808 38.8016C26.9845 38.931 26.9594 38.9686 26.775 39.1099C26.6595 39.1983 26.4191 39.3272 26.2409 39.3963C25.8785 39.5368 25.8963 39.5323 25.858 39.494ZM17.276 33.2398C17.2381 33.1412 17.2951 32.6226 17.3756 32.3331C17.4708 31.9908 17.5498 31.9416 17.9461 31.9781C18.2934 32.0102 18.7113 32.1175 18.7717 32.1902C18.8001 32.2244 18.7675 32.3036 18.6661 32.4461C18.5854 32.5596 18.4845 32.7664 18.4418 32.9057L18.3642 33.159L17.9916 33.1851C17.7867 33.1995 17.5658 33.2325 17.5008 33.2586C17.3435 33.3216 17.3062 33.3185 17.276 33.2398ZM24.717 33.2362C24.6246 33.2011 24.4081 33.1694 24.2359 33.1657L23.9227 33.159L23.8303 32.8906C23.7795 32.7431 23.6794 32.5393 23.608 32.4379C23.5365 32.3365 23.478 32.2375 23.478 32.2179C23.478 32.0856 24.5412 31.8987 24.7272 31.9982C24.9393 32.1117 25.1301 33.3148 24.9342 33.303C24.9071 33.3014 24.8094 33.2714 24.717 33.2362ZM22.9838 27.5625C22.2805 25.8543 21.7926 23.925 21.5897 22.05C21.5321 21.5182 21.4629 20.4966 21.4624 20.1714C21.462 19.9098 21.462 19.9098 21.6921 19.6834C22.0632 19.3181 22.7886 19.026 23.3245 19.026H23.4686L24.9445 21.7728C25.7562 23.2836 26.4469 24.5417 26.4792 24.5685C26.5555 24.6319 26.5901 24.5671 26.7107 24.1351C27.0058 23.0783 27.6085 21.9521 28.4293 20.9237C28.6195 20.6854 28.7692 20.4603 28.762 20.4234C28.7549 20.3866 27.4765 19.3582 25.9212 18.1381L23.0935 15.9198L22.2882 15.9084L21.483 15.897L21.4724 8.78055C21.4639 3.11512 21.4725 1.6573 21.5144 1.6307C21.5902 1.58258 34.5726 1.58818 34.6488 1.63636C34.7025 1.67033 34.6948 1.78665 34.59 2.52821C34.5237 2.99725 34.4581 3.59751 34.4442 3.86213L34.419 4.34326L34.125 4.50644C33.1301 5.0586 32.6461 5.34292 32.255 5.60492C31.6467 6.0124 26.8051 9.86387 26.5639 10.1321C26.3201 10.4033 26.1623 10.7097 26.1525 10.931C26.1455 11.0887 26.157 11.1074 26.3094 11.189C26.5485 11.317 26.649 11.4735 26.649 11.718C26.649 11.9758 26.5447 12.1258 26.2749 12.2562C26.0771 12.3518 26.0742 12.3562 26.1023 12.5082C26.1758 12.9052 26.4222 13.1922 26.7782 13.2957C26.9067 13.3331 27.0555 13.3527 27.1089 13.3393C27.1623 13.3259 27.3359 13.2147 27.4945 13.0923C27.7131 12.9237 27.7962 12.8296 27.8375 12.7045C27.908 12.4906 27.9789 12.4158 28.2175 12.3034C28.5006 12.17 28.9841 12.1735 29.2612 12.311C29.9372 12.6463 29.6514 13.2623 28.7822 13.3435C28.5227 13.3677 28.4718 13.3896 28.1907 13.5974C27.9887 13.7468 27.8878 13.8488 27.8966 13.8945C27.9137 13.9836 28.4431 14.164 28.9724 14.2611C29.491 14.3563 30.0767 14.3286 30.429 14.1922C30.8149 14.0428 31.1495 13.6877 31.3309 13.2349C31.4986 12.8163 31.6579 12.6412 31.9814 12.5202C32.4917 12.3293 32.9777 12.3076 35.469 12.3644C37.2753 12.4057 37.4025 12.3942 37.8526 12.1492C38.172 11.9753 38.5592 11.5289 38.7645 11.0978C38.8606 10.8961 38.9623 10.6839 38.9905 10.6263C39.0512 10.5026 39.129 10.4819 39.3879 10.5207C39.744 10.5741 39.9844 10.9531 39.9227 11.364C39.8782 11.6609 39.5045 12.2399 39.0787 12.6718C38.7599 12.995 38.6392 13.0862 38.3432 13.2272C37.891 13.4425 37.6063 13.5142 36.981 13.5703C36.7038 13.5952 36.4655 13.6281 36.4514 13.6433C36.4373 13.6585 36.3738 13.8316 36.3102 14.028C36.0847 14.7246 35.6772 15.4469 35.137 16.107C34.7422 16.5895 33.8383 17.481 33.0348 18.1805C31.2603 19.7252 30.9372 20.0156 30.4207 20.5301C28.6255 22.3183 27.725 24.0622 27.558 26.0739C27.5382 26.312 27.5051 26.5218 27.4845 26.5402C27.4377 26.5819 23.2869 27.972 23.2091 27.972C23.1769 27.972 23.0795 27.795 22.9838 27.5625ZM1.596 11.193V1.596H8.58652C12.5465 1.596 15.5869 1.61196 15.5998 1.63282C15.6123 1.65308 15.5464 1.85625 15.4533 2.08432C15.0485 3.07598 14.7075 4.11008 14.008 6.468C13.1162 9.47405 12.6808 10.6776 11.9721 12.096C11.2496 13.542 10.5494 14.5275 9.49359 15.5839C8.32913 16.7492 7.05051 17.6516 4.40431 19.1758C3.24665 19.8426 2.71155 20.1581 2.15709 20.5008C1.89973 20.6599 1.66821 20.79 1.64259 20.79C1.60861 20.79 1.596 18.1929 1.596 11.193ZM32.2479 8.37793C32.1395 8.34323 31.9814 8.24939 31.8965 8.16938C31.7555 8.03634 31.7448 8.01039 31.7715 7.86546C31.8108 7.65207 31.9569 7.39771 32.1017 7.29072C32.3071 7.13898 32.6377 7.17017 33.06 7.38114C33.411 7.5565 33.894 7.90324 33.894 7.97991C33.894 8.00228 33.8042 8.06553 33.6945 8.12047C33.1546 8.39079 32.5977 8.48989 32.2479 8.37793ZM37.0125 5.23162C36.9374 5.19776 36.876 5.14108 36.876 5.10566C36.876 5.07025 36.9232 4.87822 36.981 4.67894C37.2536 3.73824 36.9654 2.72482 36.1916 1.90281C36.0786 1.78281 35.9985 1.66468 36.0136 1.64031C36.0322 1.61018 36.7179 1.596 38.1565 1.596C40.0237 1.596 40.2797 1.60375 40.338 1.662C40.3928 1.71678 40.4039 1.84709 40.4034 2.4285C40.403 2.81378 40.3886 3.15113 40.3714 3.17819C40.3481 3.21489 40.0759 3.19001 39.2991 3.08016C38.5432 2.97325 38.2432 2.94535 38.2035 2.97827C38.1587 3.01541 38.1596 3.07861 38.2084 3.3283C38.2464 3.52272 38.2623 3.80857 38.2525 4.11809C38.2345 4.68216 38.144 4.92499 37.8711 5.14162C37.735 5.24965 37.6695 5.27035 37.4301 5.28085C37.2488 5.28881 37.1005 5.27133 37.0125 5.23162Z" fill="#009136"/>
<path d="M0 21V0H21H42V21V42H21H0V21ZM41.307 21V0.693H21H0.693L0.682261 20.958C0.676354 32.1037 0.680493 41.2466 0.691459 41.2755C0.707388 41.3175 4.79294 41.326 21.0092 41.3175L41.307 41.307V21ZM17.6164 40.3636C17.5687 40.3443 17.471 40.2085 17.3992 40.0618C17.0775 39.404 17.1584 38.8403 17.6223 38.5071C17.7843 38.3907 17.808 38.354 17.808 38.2185C17.808 38.1251 17.7734 38.0193 17.721 37.9527C17.6454 37.8566 17.6025 37.8419 17.3955 37.8411C17.083 37.8399 16.8609 37.7351 16.6407 37.4849C16.1752 36.9561 16.1725 35.8741 16.6345 34.9861C17.1234 34.0463 17.9873 33.6606 18.6035 34.107C18.7937 34.2448 18.921 34.261 19.0583 34.1648C19.2273 34.0465 19.2481 33.9561 19.1739 33.6605C19.0654 33.2278 19.162 32.9164 19.5017 32.6032C20.4558 31.7237 22.5647 31.9301 23.0591 32.9513C23.1525 33.1441 23.1572 33.3899 23.0765 33.8556C23.0535 33.9885 23.066 34.0193 23.1834 34.1181C23.3325 34.2435 23.5232 34.2643 23.6063 34.1642C23.7694 33.9676 24.1785 33.8732 24.5019 33.9574C24.8124 34.0383 25.0036 34.1637 25.2929 34.4762C25.9125 35.1454 26.1697 36.3144 25.8717 37.107C25.6989 37.5668 25.3185 37.842 24.8559 37.842C24.6383 37.842 24.5128 37.947 24.466 38.1684C24.4389 38.2964 24.4541 38.3215 24.6906 38.5401C25.0137 38.8387 25.0934 39.0307 25.0641 39.4397C25.0381 39.803 24.7993 40.3358 24.6436 40.3775C24.4973 40.4167 17.7144 40.4033 17.6164 40.3636ZM21.9246 39.4861C22.4793 39.309 23.0704 38.8442 23.3716 38.3483C23.7514 37.7231 23.8501 36.9095 23.6297 36.2217C23.3773 35.4344 22.7767 34.8106 22.0071 34.5363C21.5984 34.3907 20.9406 34.3553 20.5351 34.457C19.7934 34.6432 19.1483 35.1585 18.8214 35.826C18.4292 36.6266 18.4292 37.3802 18.8213 38.1756C19.1431 38.8283 19.76 39.3223 20.5051 39.5238C20.9004 39.6307 21.5235 39.6142 21.9246 39.4861ZM37.5897 39.9015C32.8781 38.8413 28.7102 36.1879 25.7491 32.3634C25.2152 31.6737 24.5136 30.6156 24.5598 30.5694C24.5816 30.5476 24.8841 30.5496 25.2871 30.5743C25.6665 30.5975 26.7046 30.6549 27.594 30.7018C28.4833 30.7487 29.5228 30.805 29.904 30.8268C31.8806 30.9402 31.9428 30.937 32.466 30.6919C32.8108 30.5305 33.3521 29.9964 33.538 29.6343C33.6901 29.3381 33.7487 29.2951 33.9489 29.3327C34.4175 29.4206 34.6174 30.0189 34.3528 30.5416C34.2243 30.7955 33.51 31.4888 33.18 31.68C33.0298 31.767 32.7558 31.8887 32.571 31.9506C32.2606 32.0544 32.1805 32.0632 31.521 32.065C31.1283 32.0661 30.3383 32.0405 29.7656 32.008C28.9737 31.9632 28.7124 31.9608 28.6752 31.998C28.5826 32.0906 29.1006 33.019 29.62 33.6911C30.4534 34.7695 31.6061 35.6697 33.537 36.75C35.907 38.076 36.3889 38.3714 37.149 38.9641C37.5708 39.2931 38.262 39.9288 38.262 39.9878C38.262 40.0439 38.1708 40.0322 37.5897 39.9015ZM22.9838 27.5625C22.2805 25.8543 21.7926 23.925 21.5897 22.05C21.5321 21.5182 21.4629 20.4966 21.4624 20.1714C21.462 19.9098 21.462 19.9098 21.6921 19.6834C22.0632 19.3181 22.7886 19.026 23.3245 19.026H23.4686L24.9445 21.7728C25.7562 23.2836 26.4469 24.5417 26.4792 24.5685C26.5555 24.6319 26.5901 24.5671 26.7107 24.1351C27.0058 23.0783 27.6085 21.9521 28.4293 20.9237C28.6195 20.6854 28.7692 20.4603 28.762 20.4234C28.7549 20.3866 27.4765 19.3582 25.9212 18.1381L23.0935 15.9198L22.2882 15.9084L21.483 15.897L21.4724 8.78055C21.4639 3.11512 21.4725 1.6573 21.5144 1.6307C21.5902 1.58258 34.5726 1.58818 34.6488 1.63636C34.7025 1.67033 34.6948 1.78665 34.59 2.52821C34.5237 2.99725 34.4581 3.59751 34.4442 3.86213L34.419 4.34326L34.125 4.50644C33.1301 5.0586 32.6461 5.34292 32.255 5.60492C31.6467 6.0124 26.8051 9.86387 26.5639 10.1321C26.3201 10.4033 26.1623 10.7097 26.1525 10.931C26.1455 11.0887 26.157 11.1074 26.3094 11.189C26.5485 11.317 26.649 11.4735 26.649 11.718C26.649 11.9758 26.5447 12.1258 26.2749 12.2562C26.0771 12.3518 26.0742 12.3562 26.1023 12.5082C26.1758 12.9052 26.4222 13.1922 26.7782 13.2957C26.9067 13.3331 27.0555 13.3527 27.1089 13.3393C27.1623 13.3259 27.3359 13.2147 27.4945 13.0923C27.7131 12.9237 27.7962 12.8296 27.8375 12.7045C27.908 12.4906 27.9789 12.4158 28.2175 12.3034C28.5006 12.17 28.9841 12.1735 29.2612 12.311C29.9372 12.6463 29.6514 13.2623 28.7822 13.3435C28.5227 13.3677 28.4718 13.3896 28.1907 13.5974C27.9887 13.7468 27.8878 13.8488 27.8966 13.8945C27.9137 13.9836 28.4431 14.164 28.9724 14.2611C29.491 14.3563 30.0767 14.3286 30.429 14.1922C30.8149 14.0428 31.1495 13.6877 31.3309 13.2349C31.4986 12.8163 31.6579 12.6412 31.9814 12.5202C32.4917 12.3293 32.9777 12.3076 35.469 12.3644C37.2753 12.4057 37.4025 12.3942 37.8526 12.1492C38.172 11.9753 38.5592 11.5289 38.7645 11.0978C38.8606 10.8961 38.9623 10.6839 38.9905 10.6263C39.0512 10.5026 39.129 10.4819 39.3879 10.5207C39.744 10.5741 39.9844 10.9531 39.9227 11.364C39.8782 11.6609 39.5045 12.2399 39.0787 12.6718C38.7599 12.995 38.6392 13.0862 38.3432 13.2272C37.891 13.4425 37.6063 13.5142 36.981 13.5703C36.7038 13.5952 36.4655 13.6281 36.4514 13.6433C36.4373 13.6585 36.3738 13.8316 36.3102 14.028C36.0847 14.7246 35.6772 15.4469 35.137 16.107C34.7422 16.5895 33.8383 17.481 33.0348 18.1805C31.2603 19.7252 30.9372 20.0156 30.4207 20.5301C28.6255 22.3183 27.725 24.0622 27.558 26.0739C27.5382 26.312 27.5051 26.5218 27.4845 26.5402C27.4377 26.5819 23.2869 27.972 23.2091 27.972C23.1769 27.972 23.0795 27.795 22.9838 27.5625ZM32.2479 8.37793C32.1395 8.34323 31.9814 8.24939 31.8965 8.16938C31.7555 8.03634 31.7448 8.01039 31.7715 7.86546C31.8108 7.65207 31.9569 7.39771 32.1017 7.29072C32.3071 7.13898 32.6377 7.17017 33.06 7.38114C33.411 7.5565 33.894 7.90324 33.894 7.97991C33.894 8.00228 33.8042 8.06553 33.6945 8.12047C33.1546 8.39079 32.5977 8.48989 32.2479 8.37793ZM37.0125 5.23162C36.9374 5.19776 36.876 5.14108 36.876 5.10566C36.876 5.07025 36.9232 4.87822 36.981 4.67894C37.2536 3.73824 36.9654 2.72482 36.1916 1.90281C36.0786 1.78281 35.9985 1.66468 36.0136 1.64031C36.0322 1.61018 36.7179 1.596 38.1565 1.596C40.0237 1.596 40.2797 1.60375 40.338 1.662C40.3928 1.71678 40.4039 1.84709 40.4034 2.4285C40.403 2.81378 40.3886 3.15113 40.3714 3.17819C40.3481 3.21489 40.0759 3.19001 39.2991 3.08016C38.5432 2.97325 38.2432 2.94535 38.2035 2.97827C38.1587 3.01541 38.1596 3.07861 38.2084 3.3283C38.2464 3.52272 38.2623 3.80857 38.2525 4.11809C38.2345 4.68216 38.144 4.92499 37.8711 5.14162C37.735 5.24965 37.6695 5.27035 37.4301 5.28085C37.2488 5.28881 37.1005 5.27133 37.0125 5.23162Z" fill="#E3001B"/>
<path d="M0 21V0H21H42V21V42H21H0V21ZM41.307 21V0.693H21H0.693L0.682261 20.958C0.676354 32.1037 0.680493 41.2466 0.691459 41.2755C0.707388 41.3175 4.79294 41.326 21.0092 41.3175L41.307 41.307V21Z" fill="#020202"/>
</g>
<defs>
<clipPath id="clip0_285_15272">
<rect width="42" height="42" fill="white"/>
</clipPath>
</defs>
</svg>
