<svg width="81" height="42" viewBox="0 0 81 42" fill="none" xmlns="http://www.w3.org/2000/svg">
<g clip-path="url(#clip0_285_15264)">
<path d="M6.48753 28.5578L0.465698 31.0373C5.02411 27.5234 7.74425 25.7044 12.733 22.8342C17.3331 20.1879 20.0335 18.85 24.9259 16.7937L56.3587 6.80089C60.5435 5.62471 62.9532 5.09658 67.2465 4.41453C72.4794 3.58318 75.4837 3.32247 80.7817 3.23999L74.5921 5.06705L79.4021 4.9179L73.4176 6.78225L78.4327 7.11783L72.2617 8.88897L77.9107 8.49745L72.9515 9.69064V9.76521C69.667 10.3317 67.8238 10.7308 64.5992 11.5736C61.3458 12.424 59.5272 12.9837 56.3587 14.1091L25.0005 23.9752C22.4847 25.1266 21.0872 25.8287 18.6617 27.1595C15.7845 28.7384 14.1961 29.7013 11.4653 31.5221L11.3162 31.4899L5.92824 33.3542L10.7569 30.012L4.71642 32.5288L8.4824 29.1171L2.57243 31.4848L6.48753 28.5578Z" fill="#FAB20B"/>
<path d="M10.4028 33.7965L5.92834 35.6049C9.56681 32.6196 11.7569 31.0755 15.7907 28.6509C19.286 26.55 21.3429 25.4845 25.0752 23.8409L56.3589 13.96C59.6231 12.8005 61.501 12.2322 64.8603 11.3871C68.027 10.5904 69.8381 10.2201 73.0634 9.70923L78.6192 9.72787L73.9956 11.1448L77.2955 11.4058L71.8143 13.1769L77.165 13.4379L70.4347 15.2836L74.9464 15.1158L69.633 16.9988L72.9515 16.8497C69.1371 17.5957 66.9943 18.0679 63.2197 18.9937C60.5029 19.6601 58.9767 20.0622 56.2843 20.8207L26.3428 32.156C24.1654 33.1955 22.9257 33.772 20.843 34.9898C18.6431 36.2762 17.394 37.0592 15.194 38.3642L17.9073 35.344L13.2178 37.5999L15.9025 34.7101L10.0298 37.3016L13.367 34.0576L7.96036 36.0897L10.4027 33.7966L10.4028 33.7965Z" fill="#231F20"/>
<path d="M25.1124 3.89258H56.2097V26.3393C56.0655 34.8531 49.1385 41.6476 40.6238 41.6271C32.1298 41.6068 25.2562 34.8321 25.1124 26.3393V3.89258Z" fill="white"/>
<mask id="mask0_285_15264" style="mask-type:luminance" maskUnits="userSpaceOnUse" x="25" y="3" width="32" height="39">
<path d="M25.1124 3.89258H56.2097V26.3393C56.0655 34.853 49.1386 41.6474 40.6238 41.6269C32.1299 41.6066 25.2562 34.832 25.1124 26.3393V3.89258Z" fill="white"/>
</mask>
<g mask="url(#mask0_285_15264)">
<path d="M49.8331 10.9866C49.5797 11.1724 49.4224 11.2625 49.1339 11.3875C48.8986 11.4893 48.7616 11.5472 48.5093 11.5926C48.3476 11.6216 48.2541 11.6298 48.0897 11.6298L48.3042 11.8816C48.3622 11.827 48.405 11.8023 48.4814 11.779C48.5407 11.7609 48.5991 11.7134 48.6399 11.7603C48.6642 11.7884 48.672 11.8191 48.6586 11.8536C48.6456 11.8874 48.6125 11.8873 48.584 11.9095C48.5127 11.9648 48.4614 11.9866 48.4068 12.0586C48.3346 12.1542 48.3078 12.2279 48.3017 12.3477L48.5093 12.4876C48.5358 12.3938 48.5621 12.3416 48.6211 12.2639C48.6803 12.186 48.7178 12.1355 48.8076 12.0961C48.8423 12.0809 48.8669 12.0506 48.9008 12.068C48.9241 12.0803 48.9261 12.1006 48.9381 12.124C48.9857 12.2181 48.9448 12.2901 48.9288 12.3944C48.9096 12.5183 48.8883 12.5883 48.8356 12.7021L49.2085 12.7488C49.1558 12.6191 49.1421 12.5341 49.1525 12.3945C49.1587 12.3092 49.1685 12.2601 49.1992 12.1801C49.2194 12.127 49.2243 12.09 49.2646 12.0496C49.2865 12.0273 49.2986 12.0015 49.3299 12.0029C49.3561 12.0044 49.3654 12.0237 49.3858 12.0402C49.4238 12.0707 49.435 12.0988 49.4698 12.1334C49.5041 12.168 49.5248 12.1865 49.563 12.2173L49.7867 12.0123C49.7028 11.9903 49.6544 11.9589 49.6003 11.891C49.5533 11.8324 49.5217 11.7887 49.5257 11.7138C49.5297 11.6391 49.5685 11.6014 49.6189 11.546C49.6719 11.488 49.7209 11.4776 49.7867 11.4342C49.8701 11.3791 49.9172 11.3484 50.0012 11.2943L49.8331 10.9866Z" fill="#FAB20B" stroke="#231F20" stroke-width="0.0422834" stroke-miterlimit="10"/>
<path d="M48.1366 11.6809C48.0699 11.7192 48.0366 11.7646 48.0201 11.8395C48.0017 11.9218 48.0171 11.9847 48.0714 12.0492C48.0653 11.9862 48.0802 11.9421 48.1227 11.8954C48.1633 11.8509 48.2023 11.8326 48.2626 11.8301L48.1366 11.6809Z" fill="#FAB20B" stroke="#231F20" stroke-width="0.0422834" stroke-miterlimit="10"/>
<path d="M48.3186 12.356C48.28 12.4064 48.2661 12.4471 48.2671 12.5106C48.2686 12.6225 48.3289 12.7071 48.4349 12.7437C48.3903 12.6908 48.3775 12.6387 48.393 12.5713C48.4044 12.5212 48.4227 12.4917 48.463 12.4595L48.3186 12.356Z" fill="#FAB20B" stroke="#231F20" stroke-width="0.0422834" stroke-miterlimit="10"/>
<path d="M48.8869 12.7063C48.863 12.7503 48.8572 12.7828 48.8636 12.8322C48.8788 12.9484 48.9907 13.0301 49.106 13.0094C49.0463 12.9788 49.0168 12.927 49.0207 12.8602C49.0241 12.8029 49.0475 12.764 49.0966 12.7343L48.8869 12.7063Z" fill="#FAB20B" stroke="#231F20" stroke-width="0.0422834" stroke-miterlimit="10"/>
<path d="M49.7399 12.0537C49.7907 12.1019 49.8126 12.1432 49.8239 12.2123C49.8414 12.3196 49.8098 12.4039 49.7261 12.4733C49.7604 12.403 49.759 12.3414 49.7216 12.2728C49.6936 12.2219 49.6636 12.1958 49.6097 12.175L49.7399 12.0537Z" fill="#FAB20B" stroke="#231F20" stroke-width="0.0422834" stroke-miterlimit="10"/>
<path d="M52.828 10.9182C53.0642 11.1254 53.2128 11.2289 53.4893 11.3785C53.7149 11.5005 53.8465 11.57 54.0936 11.6373C54.2522 11.6804 54.3448 11.6968 54.5082 11.7109L54.2729 11.9429C54.2195 11.8835 54.1794 11.8552 54.1054 11.8253C54.0477 11.8021 53.9938 11.7496 53.9491 11.793C53.9225 11.8188 53.9121 11.8486 53.9225 11.8842C53.9327 11.9191 53.9655 11.9217 53.9919 11.9464C54.0583 12.0077 54.1076 12.034 54.1554 12.1105C54.2191 12.2121 54.2393 12.2877 54.2349 12.4075L54.0158 12.5287C53.9974 12.433 53.9759 12.3785 53.924 12.2962C53.8715 12.2134 53.8386 12.1597 53.7528 12.1127C53.7196 12.0944 53.6975 12.0622 53.6626 12.0766C53.6383 12.0866 53.6342 12.1069 53.6207 12.1291C53.565 12.2188 53.5993 12.294 53.6064 12.3993C53.6146 12.5244 53.6296 12.596 53.6721 12.7138L53.2966 12.7278C53.3607 12.6034 53.3814 12.5198 53.3831 12.3799C53.3846 12.2943 53.3791 12.2444 53.3553 12.1623C53.34 12.1075 53.3382 12.0704 53.3018 12.0265C53.282 12.0025 53.2721 11.9757 53.2409 11.9745C53.2147 11.973 53.2037 11.9922 53.182 12.0067C53.1413 12.0338 53.1274 12.0607 53.0902 12.0922C53.0526 12.1236 53.0305 12.1403 52.9899 12.1676L52.7848 11.9438C52.8705 11.9291 52.9215 11.902 52.9811 11.8392C53.0327 11.7849 53.0685 11.7442 53.0709 11.6693C53.0733 11.5945 53.0381 11.5536 52.9926 11.4941C52.945 11.4316 52.897 11.4168 52.8353 11.368C52.7573 11.306 52.713 11.2711 52.6339 11.2099L52.828 10.9182Z" fill="#FAB20B" stroke="#231F20" stroke-width="0.0422834" stroke-miterlimit="10"/>
<path d="M54.4575 11.7578C54.5204 11.8018 54.5495 11.8498 54.5598 11.9259C54.5706 12.0094 54.55 12.0709 54.4902 12.1304C54.5018 12.0683 54.4917 12.023 54.4526 11.9727C54.416 11.9249 54.3786 11.9032 54.3191 11.8956L54.4575 11.7578Z" fill="#FAB20B" stroke="#231F20" stroke-width="0.0422834" stroke-miterlimit="10"/>
<path d="M54.2173 12.4143C54.2513 12.468 54.2613 12.5096 54.2552 12.5728C54.2444 12.6843 54.1761 12.7632 54.068 12.7905C54.1169 12.7415 54.1337 12.6908 54.1247 12.6222C54.1176 12.5712 54.102 12.5403 54.0647 12.5047L54.2173 12.4143Z" fill="#FAB20B" stroke="#231F20" stroke-width="0.0422834" stroke-miterlimit="10"/>
<path d="M53.6207 12.7141C53.6406 12.7599 53.6437 12.7927 53.633 12.8415C53.6076 12.9557 53.489 13.0275 53.376 12.9967C53.438 12.9714 53.4717 12.9226 53.4738 12.8555C53.4756 12.7982 53.4555 12.7574 53.4091 12.7235L53.6207 12.7141Z" fill="#FAB20B" stroke="#231F20" stroke-width="0.0422834" stroke-miterlimit="10"/>
<path d="M52.8277 11.9895C52.7729 12.0329 52.7476 12.0723 52.7304 12.1401C52.7036 12.2454 52.7277 12.3322 52.805 12.4086C52.7768 12.3357 52.7838 12.2744 52.8271 12.2093C52.8594 12.1612 52.8915 12.1378 52.9471 12.1216L52.8277 11.9895Z" fill="#FAB20B" stroke="#231F20" stroke-width="0.0422834" stroke-miterlimit="10"/>
<path d="M51.0404 5.2024C50.9591 5.16959 50.9148 5.1599 50.8225 5.14752C50.7382 5.13633 50.6657 5.12649 50.5835 5.15587C50.4888 5.18943 50.4567 5.26191 50.4212 5.35573C50.3886 5.44178 50.3796 5.52829 50.4111 5.6312C50.4775 5.54082 50.56 5.50249 50.6721 5.50994C50.7873 5.51755 50.8668 5.5702 50.9191 5.67296C50.8533 5.79273 50.8069 5.85701 50.714 5.95739C50.6086 6.07119 50.5386 6.12831 50.4063 6.20915C50.5995 6.20124 50.7151 6.16709 50.8818 6.06925C50.9964 6.00183 51.0566 5.95142 51.1428 5.85015L51.1382 5.52381L51.0404 5.2024Z" fill="#FAB20B" stroke="#231F20" stroke-width="0.0422834" stroke-miterlimit="10"/>
<path d="M50.7513 5.92014C50.6028 5.99456 50.5025 6.01813 50.3365 6.01798C50.1522 6.01798 50.0397 5.988 49.8797 5.89672C49.8715 5.88688 49.8698 5.87599 49.8751 5.86406C49.8809 5.85063 49.8931 5.84377 49.9079 5.84541C50.0693 5.8921 50.1692 5.90179 50.3367 5.88732C50.5778 5.86659 50.7221 5.81335 50.9191 5.67285C50.8909 5.72535 50.8735 5.75429 50.8401 5.80336C50.8075 5.85078 50.7881 5.87659 50.7513 5.92014Z" fill="#ED1B29" stroke="#231F20" stroke-width="0.0338267" stroke-miterlimit="10"/>
<path d="M46.8781 4.82459H49.423C49.5687 4.80803 49.6801 4.85636 49.7679 4.97374C49.8495 5.08291 49.8343 5.18284 49.8239 5.31871C49.809 5.50858 49.6934 5.58718 49.628 5.76616C49.5438 5.99659 49.45 6.12709 49.4602 6.37214C49.4701 6.6157 49.5092 6.78036 49.6747 6.95949C49.8169 7.11356 49.9415 7.18739 50.1502 7.21125C50.3809 7.2375 50.5314 7.17158 50.7189 7.03406C50.8625 6.92847 50.9338 6.84211 51.008 6.67984C51.0858 6.50891 51.0715 6.39183 51.0825 6.20435C51.0951 5.98988 51.0869 5.86668 51.0545 5.6543C51.032 5.50694 50.9729 5.43043 50.9705 5.28143C50.969 5.22311 50.9455 5.17941 50.9798 5.13228C51.0045 5.09798 51.0314 5.08485 51.073 5.07635C51.0977 5.07128 51.1133 5.07128 51.1383 5.07635L52.0891 5.18821C52.1328 5.19119 52.1606 5.20372 52.1917 5.23489C52.2226 5.26591 52.2311 5.29411 52.2384 5.33751C52.2469 5.38822 52.2293 5.41745 52.2198 5.46801C52.1889 5.63073 52.1376 5.71366 52.0799 5.86892C51.9533 6.20942 51.873 6.39884 51.7163 6.72652C51.7667 6.86925 51.8223 6.9483 51.94 7.04346C52.0787 7.15562 52.1905 7.19619 52.3688 7.202C52.5469 7.20782 52.6607 7.17337 52.807 7.0715C52.9585 6.96605 53.0185 6.8609 53.0866 6.68923C53.1452 6.54202 53.1581 6.44657 53.152 6.28832C53.1442 6.08712 53.0777 5.98108 53.0028 5.7942C52.9411 5.64028 52.8629 5.57122 52.8164 5.41193C52.7883 5.31603 52.7613 5.25965 52.7697 5.16017C52.7768 5.0765 52.7859 5.0234 52.835 4.95509C52.893 4.87381 52.9551 4.84785 53.0495 4.81519C53.1259 4.78879 53.1739 4.78223 53.2546 4.78715H55.7341C55.7042 5.00804 55.6314 5.14377 55.4637 5.29053C55.2691 5.461 55.0821 5.42849 54.8299 5.48636C54.6073 5.53736 54.4731 5.5229 54.2519 5.57957C54.0658 5.6273 53.9365 5.6191 53.7858 5.73812C53.7192 5.79062 53.685 5.82686 53.6367 5.89666L55.6315 5.90591C55.6208 6.12188 55.5482 6.26416 55.3798 6.40004C55.277 6.48266 55.2018 6.51697 55.0721 6.53993C54.793 6.51607 54.6316 6.52025 54.3542 6.55858C54.1665 6.58453 54.0489 6.57707 53.8788 6.66119C53.762 6.71877 53.6996 6.7641 53.6083 6.85702L55.6032 6.90371C55.6126 7.06434 55.5764 7.17232 55.4727 7.29522C55.3455 7.44586 55.1965 7.43825 55.0066 7.49105C54.7392 7.56518 54.5729 7.51775 54.2982 7.55638C54.075 7.5877 53.9433 7.5883 53.7295 7.65899C53.5978 7.70239 53.5253 7.73356 53.4031 7.79889L55.5938 8.00397C55.6136 8.10017 55.6113 8.16117 55.5846 8.25573C55.5555 8.3576 55.5268 8.42188 55.4446 8.48885C55.3453 8.56954 55.2543 8.55656 55.1277 8.57282C54.9361 8.59713 54.8261 8.55045 54.6336 8.53553C54.3606 8.51435 54.2078 8.4887 53.9345 8.4796C53.6583 8.47035 53.5019 8.47244 53.2261 8.48885L55.5192 9.17866C55.4478 9.33586 55.375 9.42028 55.2302 9.51424C55.0548 9.62789 54.9129 9.67696 54.7082 9.6355C54.6594 9.62565 54.6324 9.6173 54.5869 9.59821L53.1608 9.0668L54.9878 10.3532C54.8011 10.4674 54.6658 10.5047 54.4471 10.5023C54.2433 10.5001 54.1193 10.4658 53.9438 10.3624L52.7692 9.40223L52.6853 9.4768L53.5429 10.6141C53.2483 10.6236 53.0677 10.5823 52.8064 10.4463C52.6179 10.3481 52.5308 10.2577 52.3776 10.1107C52.219 9.959 52.1379 9.86295 52.014 9.68188L51.8181 10.0828L52.9648 10.8006L52.4614 11.6117L51.7157 10.7261V11.388L52.9461 13.4201H51.93L51.2961 13.9794L50.6995 13.4201H49.6741L50.9046 11.3972V10.7353L50.1681 11.6116L49.6834 10.8191L50.8114 10.0826L50.6249 9.68173H50.6209C50.4977 9.8628 50.3996 9.9578 50.2345 10.1111C50.0789 10.2557 49.9939 10.3486 49.8057 10.4467C49.5444 10.5827 49.3637 10.624 49.0692 10.6145L49.9268 9.47725L49.8428 9.40268L48.6683 10.3629C48.4926 10.4661 48.3685 10.5006 48.1649 10.5028C47.9463 10.5052 47.8107 10.4679 47.6242 10.3536L49.4513 9.06724L48.025 9.59866C47.9792 9.61775 47.9522 9.6261 47.9037 9.63595C47.699 9.67756 47.5571 9.62849 47.3817 9.51469C47.2366 9.42072 47.1641 9.33631 47.0927 9.1791L49.3858 8.4893C49.1099 8.47274 48.9536 8.47066 48.6774 8.48005C48.4038 8.4893 48.251 8.5148 47.9782 8.53598C47.7856 8.5509 47.6758 8.59758 47.484 8.57327C47.3573 8.55716 47.2664 8.56999 47.1671 8.4893C47.0849 8.42248 47.0564 8.35805 47.0272 8.25618C47.0001 8.16162 46.9977 8.10062 47.0178 8.00442L49.2085 7.79934C49.0865 7.73401 49.0137 7.70299 48.8822 7.65944C48.6681 7.58889 48.5367 7.58815 48.3135 7.55683C48.0389 7.5182 47.8724 7.56577 47.605 7.4915C47.4151 7.4387 47.2663 7.44631 47.1389 7.29567C47.035 7.17277 46.999 7.06479 47.0084 6.90416L49.0033 6.85747C48.9121 6.76456 48.8498 6.71921 48.7329 6.66164C48.5627 6.57767 48.4454 6.58498 48.2574 6.55903C47.9801 6.5207 47.8187 6.51652 47.5395 6.54038C47.4098 6.51742 47.3344 6.48311 47.2318 6.40048C47.0634 6.26476 46.991 6.12232 46.9801 5.90636L48.9749 5.89711C48.9266 5.82746 48.8926 5.79107 48.8258 5.73857C48.6748 5.6197 48.5455 5.62775 48.3597 5.58002C48.1387 5.52335 48.0043 5.53781 47.7817 5.48681C47.5295 5.42894 47.3435 5.46011 47.1479 5.29097C46.9886 5.15361 46.9174 5.03116 46.8767 4.82489L46.8781 4.82459Z" fill="#231F20" stroke="#231F20" stroke-width="0.0422834" stroke-miterlimit="10"/>
<path d="M51.2384 5.20703L51.358 5.22702C51.358 5.27803 51.3553 5.32501 51.4163 5.34365C51.4729 5.3611 51.4961 5.32769 51.5264 5.28951L51.6362 5.34111L51.6001 5.41808L51.5483 5.39377C51.4542 5.4755 51.3 5.42255 51.2758 5.29965L51.2242 5.291L51.2384 5.20703Z" fill="#FAB20B" stroke="#231F20" stroke-width="0.0422834" stroke-miterlimit="10" stroke-linecap="round" stroke-linejoin="round"/>
<path d="M25.1123 31.2542H56.2096V41.6268H41.8541V37.6744C41.7626 37.0421 41.2625 36.6024 40.6237 36.593C39.9738 36.5835 39.4488 37.0312 39.3559 37.6744V41.6268H25.1123V31.2542Z" fill="#ED1B29" stroke="#231F20" stroke-width="0.211387" stroke-miterlimit="3.8637"/>
<path d="M28.4439 2.88125C27.5999 3.50573 27.6676 5.02375 28.5638 5.57068C29.1996 5.95876 29.9028 5.90149 30.4675 5.41556C30.2739 6.11358 30.4675 6.72657 31.0267 7.18699C31.9001 7.90603 33.5204 7.35329 33.7723 6.25035L34.0815 6.459C33.2716 7.1588 33.3391 8.58003 34.2114 9.20019C34.8296 9.63958 35.5147 9.65793 36.1554 9.25209C35.9934 9.95204 36.2124 10.5518 36.7874 10.9825C37.66 11.6365 39.149 11.12 39.4294 10.066L39.7385 10.2745C38.8871 10.9282 38.9297 12.4215 39.8167 13.0257C40.4777 13.476 41.2521 13.4372 41.8651 12.9231C41.6041 13.6406 41.7972 14.3304 42.3928 14.8081C43.2708 15.5127 44.8953 14.9064 45.0973 13.799L45.4684 14.0491C44.6178 14.6627 44.6099 16.1151 45.4537 16.738C46.1066 17.2199 46.9199 17.1878 47.5329 16.6561C47.2893 17.3578 47.4757 18.0185 48.0504 18.4894C48.9008 19.1862 50.4645 18.6623 50.7234 17.5938L51.0944 17.844C50.2748 18.5325 50.3434 19.9775 51.2243 20.5854C51.8383 21.0091 52.5098 21.02 53.1372 20.6164C52.9648 21.355 53.2555 22.0224 53.9135 22.3993C54.7886 22.9003 56.0423 22.3741 56.2975 21.3988L58.9868 23.2129L57.6974 30.259L21.9625 6.15549L25.4028 1.05493L28.4439 2.88125Z" fill="#009865" stroke="#231F20" stroke-width="0.211387" stroke-miterlimit="3.8637"/>
<path d="M35.7514 8.41718C35.999 8.05012 36.4973 7.95333 36.8643 8.20076C37.2314 8.44835 37.3282 8.94665 37.0806 9.31371C36.8331 9.68076 36.3348 9.7777 35.9678 9.53012C35.6007 9.28253 35.5038 8.78423 35.7514 8.41718Z" fill="#009865" stroke="#231F20" stroke-width="0.211387" stroke-miterlimit="3.8637"/>
<path d="M33.7884 7.09292C34.0358 6.72587 34.5341 6.62907 34.9012 6.87666C35.2682 7.12424 35.3652 7.6224 35.1176 7.9896C34.87 8.35665 34.3717 8.4536 34.0047 8.20586C33.6376 7.95828 33.5408 7.46013 33.7884 7.09292Z" fill="#009865" stroke="#231F20" stroke-width="0.211387" stroke-miterlimit="3.8637"/>
<path d="M31.9655 5.86343C32.2131 5.49638 32.7116 5.39958 33.0785 5.64717C33.4455 5.8946 33.5423 6.39291 33.2947 6.76011C33.0471 7.12716 32.5488 7.22395 32.1818 6.97637C31.8147 6.72878 31.7179 6.23063 31.9655 5.86343Z" fill="#009865" stroke="#231F20" stroke-width="0.211387" stroke-miterlimit="3.8637"/>
<path d="M33.5863 5.42677C33.8339 5.05971 34.3322 4.96277 34.6993 5.21035C35.0665 5.45794 35.1633 5.95624 34.9157 6.32329C34.6681 6.69034 34.1696 6.78714 33.8027 6.53956C33.4357 6.29197 33.3387 5.79382 33.5863 5.42677Z" fill="#009865" stroke="#231F20" stroke-width="0.211387" stroke-miterlimit="3.8637"/>
<path d="M39.4314 10.8992C39.679 10.532 40.1773 10.4352 40.5444 10.6828C40.9114 10.9304 41.0081 11.4287 40.7605 11.7957C40.513 12.1628 40.0147 12.2597 39.6477 12.012C39.2808 11.7646 39.1838 11.2663 39.4314 10.8992Z" fill="#009865" stroke="#231F20" stroke-width="0.211387" stroke-miterlimit="3.8637"/>
<path d="M37.6087 9.66989C37.8563 9.30284 38.3546 9.20589 38.7217 9.45363C39.0887 9.70121 39.1855 10.1994 38.9379 10.5664C38.6903 10.9335 38.192 11.0304 37.825 10.7828C37.4579 10.5352 37.3611 10.0369 37.6087 9.66989Z" fill="#009865" stroke="#231F20" stroke-width="0.211387" stroke-miterlimit="3.8637"/>
<path d="M39.2293 9.23288C39.4769 8.86583 39.9751 8.76888 40.3423 9.01662C40.7092 9.2642 40.806 9.76236 40.5585 10.1294C40.3111 10.4965 39.8128 10.5934 39.4456 10.3458C39.0785 10.0982 38.9817 9.59993 39.2293 9.23288Z" fill="#009865" stroke="#231F20" stroke-width="0.211387" stroke-miterlimit="3.8637"/>
<path d="M45.0745 14.7055C45.3221 14.3385 45.8203 14.2415 46.1873 14.4893C46.5544 14.7369 46.6515 15.2352 46.4039 15.6022C46.1563 15.9693 45.6582 16.0661 45.2911 15.8185C44.9239 15.5709 44.8268 15.0726 45.0745 14.7055Z" fill="#009865" stroke="#231F20" stroke-width="0.211387" stroke-miterlimit="3.8637"/>
<path d="M43.2518 13.476C43.4993 13.1089 43.9975 13.0121 44.3646 13.2597C44.7316 13.5073 44.8287 14.0055 44.5811 14.3727C44.3335 14.7397 43.8351 14.8365 43.468 14.5889C43.1008 14.3413 43.004 13.843 43.2518 13.476Z" fill="#009865" stroke="#231F20" stroke-width="0.211387" stroke-miterlimit="3.8637"/>
<path d="M44.8723 13.0392C45.1199 12.6722 45.6184 12.5754 45.9853 12.8229C46.3522 13.0705 46.449 13.5687 46.2014 13.9359C45.9538 14.3029 45.4557 14.3999 45.0886 14.1521C44.7217 13.9046 44.6248 13.4064 44.8723 13.0392Z" fill="#009865" stroke="#231F20" stroke-width="0.211387" stroke-miterlimit="3.8637"/>
<path d="M50.7177 18.5119C50.9653 18.1448 51.4634 18.048 51.8305 18.2956C52.1975 18.5432 52.2946 19.0413 52.0471 19.4085C51.7995 19.7756 51.3013 19.8725 50.934 19.6248C50.5668 19.3772 50.47 18.8791 50.7177 18.5119Z" fill="#009865" stroke="#231F20" stroke-width="0.211387" stroke-miterlimit="3.8637"/>
<path d="M48.8946 17.2822C49.1422 16.9152 49.6406 16.8182 50.0076 17.0658C50.3746 17.3134 50.4713 17.8117 50.2241 18.1788C49.9765 18.5458 49.4781 18.6428 49.111 18.3952C48.744 18.1476 48.6472 17.6493 48.8946 17.2822Z" fill="#009865" stroke="#231F20" stroke-width="0.211387" stroke-miterlimit="3.8637"/>
<path d="M48.8946 17.2822C49.1422 16.9152 49.6406 16.8182 50.0076 17.0658C50.3746 17.3134 50.4713 17.8117 50.2241 18.1788C49.9765 18.5458 49.4781 18.6428 49.111 18.3952C48.744 18.1476 48.6472 17.6493 48.8946 17.2822Z" fill="#009865" stroke="#231F20" stroke-width="0.211387" stroke-miterlimit="3.8637"/>
<path d="M50.5154 16.8454C50.763 16.4784 51.2612 16.3814 51.6284 16.6292C51.9954 16.8767 52.0921 17.3749 51.8445 17.742C51.5969 18.109 51.0987 18.206 50.7317 17.9584C50.3648 17.7108 50.2678 17.2125 50.5154 16.8454Z" fill="#009865" stroke="#231F20" stroke-width="0.211387" stroke-miterlimit="3.8637"/>
<path d="M56.3608 22.3181C56.6084 21.951 57.1065 21.8542 57.4736 22.1016C57.8406 22.3494 57.9377 22.8477 57.6901 23.2146C57.4426 23.5815 56.9441 23.6784 56.5771 23.4308C56.21 23.1833 56.1132 22.6851 56.3608 22.3181Z" fill="#009865" stroke="#231F20" stroke-width="0.211387" stroke-miterlimit="3.8637"/>
<path d="M54.5378 21.0885C54.7854 20.7215 55.2836 20.6247 55.6509 20.8723C56.018 21.1197 56.1146 21.618 55.8672 21.9852C55.6196 22.3523 55.1214 22.4491 54.7544 22.2015C54.3873 21.9539 54.2902 21.4556 54.5378 21.0885Z" fill="#009865" stroke="#231F20" stroke-width="0.211387" stroke-miterlimit="3.8637"/>
<path d="M56.1586 20.6516C56.4062 20.2846 56.9043 20.1876 57.2714 20.4352C57.6384 20.6828 57.7354 21.1811 57.4878 21.5481C57.2402 21.9152 56.7421 22.012 56.375 21.7644C56.008 21.517 55.911 21.0187 56.1586 20.6516Z" fill="#009865" stroke="#231F20" stroke-width="0.211387" stroke-miterlimit="3.8637"/>
<path d="M28.1453 3.28684C28.3927 2.91978 28.8912 2.82284 29.2582 3.07057C29.6253 3.31816 29.7221 3.81631 29.4745 4.18336C29.227 4.55041 28.7286 4.64736 28.3615 4.39977C27.9945 4.15219 27.8975 3.65389 28.1453 3.28684Z" fill="#009865" stroke="#231F20" stroke-width="0.211387" stroke-miterlimit="3.8637"/>
<path d="M30.1083 4.61074C30.3559 4.24369 30.8542 4.1469 31.2213 4.39448C31.5883 4.64207 31.6851 5.14022 31.4375 5.50727C31.1901 5.87432 30.6918 5.97127 30.3248 5.72368C29.9576 5.4761 29.8608 4.97794 30.1083 4.61074Z" fill="#009865" stroke="#231F20" stroke-width="0.211387" stroke-miterlimit="3.8637"/>
<path d="M41.3945 12.2234C41.642 11.8563 42.1403 11.7594 42.5072 12.0071C42.8742 12.2547 42.9713 12.753 42.7237 13.12C42.4761 13.4871 41.978 13.5839 41.6108 13.3363C41.2436 13.0887 41.1469 12.5904 41.3945 12.2234Z" fill="#009865" stroke="#231F20" stroke-width="0.211387" stroke-miterlimit="3.8637"/>
<path d="M47.0376 16.0297C47.2852 15.6626 47.7833 15.5658 48.1504 15.8134C48.5174 16.061 48.6144 16.5593 48.3668 16.9264C48.1192 17.2934 47.6208 17.3904 47.2539 17.1428C46.8867 16.895 46.79 16.3967 47.0376 16.0297Z" fill="#009865" stroke="#231F20" stroke-width="0.211387" stroke-miterlimit="3.8637"/>
<path d="M52.6808 19.8359C52.9281 19.4689 53.4266 19.3719 53.7936 19.6196C54.1607 19.8672 54.2573 20.3654 54.01 20.7326C53.7624 21.0996 53.264 21.1964 52.8971 20.9488C52.5302 20.7013 52.4332 20.203 52.6808 19.8359Z" fill="#009865" stroke="#231F20" stroke-width="0.211387" stroke-miterlimit="3.8637"/>
<path d="M57.3254 25.3751L51.7672 25.314L50.1998 21.6032L46.2447 21.4992L44.5793 17.7671L40.6184 17.7716L38.9578 14.0654L34.9918 14.0439L33.3726 10.3431L29.3655 10.3163L27.7568 6.60013L23.9152 6.52764M57.9775 27.2092L54.7094 27.2535L52.9202 23.4383L49.0005 23.448L47.4441 19.6546L43.4523 19.6382L41.8175 15.9269L37.7896 15.9311L36.1759 12.189L32.2149 12.1935L30.56 8.44598L26.5836 8.44002L24.4335 3.45923" fill="#009865"/>
<path d="M57.3254 25.3751L51.7672 25.314L50.1998 21.6032L46.2447 21.4992L44.5793 17.7671L40.6184 17.7716L38.9578 14.0654L34.9918 14.0439L33.3726 10.3431L29.3655 10.3163L27.7568 6.60013L23.9152 6.52764M57.9775 27.2092L54.7094 27.2535L52.9202 23.4383L49.0005 23.448L47.4441 19.6546L43.4523 19.6382L41.8175 15.9269L37.7896 15.9311L36.1759 12.189L32.2149 12.1935L30.56 8.44598L26.5836 8.44002L24.4335 3.45923" stroke="#231F20" stroke-width="0.211387" stroke-miterlimit="3.8637"/>
<path d="M57.3413 25.7187L24.0177 3.24194Z" fill="#009865"/>
<path d="M57.3413 25.7187L24.0177 3.24194" stroke="#231F20" stroke-width="0.295954" stroke-miterlimit="3.8637"/>
<path d="M33.4461 6.3186L33.342 6.82914L33.4366 6.86702L33.6919 6.46522L33.4461 6.3186Z" fill="#231F20"/>
<path d="M33.9288 6.62134L33.7725 6.89055L33.8906 6.94723L34.1601 6.73916L33.9288 6.62134Z" fill="#231F20"/>
<path d="M39.1069 10.1118L39.0028 10.6223L39.0974 10.6602L39.3527 10.2583L39.1069 10.1118Z" fill="#231F20"/>
<path d="M39.5892 10.4148L39.4329 10.684L39.551 10.7407L39.8206 10.5326L39.5892 10.4148Z" fill="#231F20"/>
<path d="M44.7513 13.929L44.6473 14.4395L44.7417 14.4774L44.9971 14.0754L44.7513 13.929Z" fill="#231F20"/>
<path d="M45.2337 14.2319L45.0775 14.501L45.1955 14.5577L45.465 14.3496L45.2337 14.2319Z" fill="#231F20"/>
<path d="M50.4095 17.7043L50.3054 18.2149L50.3998 18.2528L50.6553 17.851L50.4095 17.7043Z" fill="#231F20"/>
<path d="M50.892 18.0071L50.7358 18.2761L50.8538 18.3328L51.1232 18.1248L50.892 18.0071Z" fill="#231F20"/>
<path d="M35.7672 26.7672L35.0774 26.7485L34.7697 26.3476C34.7239 26.296 34.7081 26.2486 34.7137 26.1798C34.7184 26.1247 34.7294 26.0874 34.7697 26.0493C34.8237 25.9985 34.8868 25.9858 34.9561 26.012L35.8231 25.3688C35.7921 25.2642 35.7946 25.1916 35.8325 25.0891C35.8616 25.0108 35.8877 24.9637 35.9538 24.9119C36.0236 24.8576 36.0796 24.8381 36.1682 24.8374L36.8674 24.7161C36.8918 24.4809 37.0691 24.288 37.3056 24.2966C37.5666 24.3058 37.7501 24.4684 37.7998 24.7161C37.8651 25.0424 37.8278 25.2195 37.7438 25.5178C37.866 25.3463 37.9271 25.3137 37.9397 25.0144C37.9489 24.7907 37.9116 24.6881 37.8743 24.483C38.2046 24.2655 38.4014 24.1559 38.76 23.9889C39.0678 23.8457 39.2475 23.7756 39.571 23.6719C39.857 23.6418 40.0198 23.6334 40.3075 23.6346C40.5368 23.6361 40.6664 23.6418 40.8949 23.6627C40.9496 23.6706 40.982 23.6843 41.0254 23.7186C41.0768 23.7593 41.1007 23.7954 41.1186 23.8585C41.2581 24.0528 41.3562 24.1532 41.5474 24.2967C41.7294 24.4335 41.8464 24.4973 42.0602 24.5763C42.0651 24.6709 42.063 24.7249 42.0508 24.8187C42.0354 24.9377 42.0186 25.0049 41.9762 25.117C42.0776 25.0366 42.1271 24.9737 42.1813 24.856C42.2296 24.7511 42.2451 24.6827 42.2466 24.567C42.7331 24.6972 43.0079 24.7689 43.4957 24.8933C43.8878 24.9934 44.1262 24.9962 44.5025 25.1451C44.8081 25.2659 44.9817 25.3446 45.2482 25.5366C45.4862 25.7082 45.5563 25.8835 45.7983 26.0493C46.0008 26.1883 46.1359 26.2328 46.3576 26.3384C46.5265 26.4189 46.623 26.462 46.7958 26.5342C46.8742 26.808 46.9131 26.9644 46.9729 27.2427C47.0444 27.5747 47.0772 27.7639 47.1221 28.1003C47.3663 28.2502 47.5017 28.3386 47.7373 28.5012C47.9218 28.6282 48.0243 28.7022 48.2034 28.8368C48.2312 28.8605 48.2446 28.8784 48.2593 28.9113C48.2731 28.9419 48.2774 28.9617 48.278 28.9953C48.3092 29.3656 48.3217 29.5749 48.3339 29.9461C48.3447 30.2698 48.3467 30.4523 48.3433 30.7758C48.315 30.8592 48.2887 30.9048 48.2315 30.9717C48.1326 31.0866 48.0443 31.1381 47.8959 31.1675H46.1061C46.1061 31.0462 46.1168 30.976 46.1528 30.8598C46.1796 30.7727 46.1828 30.7111 46.246 30.6453C46.3194 30.569 46.3944 30.567 46.4978 30.5427C46.6043 30.5179 46.6684 30.5136 46.7774 30.5241L46.7494 29.9648C46.4274 29.7664 46.2518 29.6425 45.957 29.4055C45.6939 29.1943 45.5517 29.0664 45.3137 28.8275C45.3001 28.8007 45.2958 28.7829 45.295 28.7529C45.2935 28.7195 45.3064 28.7018 45.3137 28.669C45.3283 28.6036 45.3502 28.5684 45.351 28.5012C45.3525 28.4188 45.339 28.3683 45.2994 28.2961C45.3034 28.3811 45.2935 28.4333 45.2577 28.5106C45.2249 28.5813 45.1961 28.619 45.1365 28.6691C45.1964 28.9424 45.2212 29.0993 45.2484 29.3776C45.2701 29.602 45.3071 29.7321 45.2764 29.9555C45.2682 30.0143 45.2665 30.0484 45.2484 30.1047C45.2319 30.1542 45.2163 30.1797 45.1924 30.2259C45.0995 30.4055 45.0112 30.4862 44.8755 30.6361C44.661 30.8734 44.521 30.9943 44.2552 31.1726H42.4051C42.3783 31.0722 42.3762 31.0083 42.3958 30.9065C42.4137 30.8137 42.426 30.7535 42.489 30.6828C42.5571 30.6064 42.625 30.5948 42.7221 30.5615C42.8199 30.5282 42.8853 30.5485 42.9831 30.5148C43.0675 30.4857 43.1142 30.4625 43.1882 30.4122C43.2061 30.2935 43.208 30.2243 43.1976 30.1045C43.1877 29.9938 43.175 29.9309 43.1416 29.8249C43.022 29.7106 42.9613 29.6372 42.8712 29.4985C42.7701 29.3433 42.7237 29.246 42.6662 29.0697C42.6542 29.0409 42.6427 29.0253 42.6195 29.0044C42.5976 28.985 42.5822 28.9761 42.5541 28.9671C42.296 28.9355 42.1504 28.917 41.8922 28.8831C41.623 28.8481 41.4712 28.8275 41.2024 28.7899C41.0928 28.69 41.0237 28.6396 40.8947 28.5662C40.7674 28.4936 40.6898 28.4602 40.5498 28.4171L40.4192 27.9696V28.4543C40.444 28.5666 40.465 28.6293 40.5125 28.734C40.565 28.8499 40.6027 28.9128 40.6803 29.0136C40.6803 29.4245 40.6491 29.6615 40.5404 30.0577C40.4124 30.5238 40.2946 30.783 40.0276 31.1857H38.2098C38.1928 31.0817 38.1928 31.0195 38.2098 30.9153C38.2277 30.8054 38.2374 30.7353 38.303 30.6449C38.3717 30.5502 38.4402 30.5191 38.5454 30.4677C38.6571 30.4132 38.729 30.3936 38.853 30.3837L38.8064 28.7337C38.7387 28.6265 38.7054 28.5622 38.6572 28.4446C38.5982 28.3012 38.5729 28.2154 38.5454 28.0624C38.5164 28.1903 38.5121 28.2678 38.5267 28.398C38.5422 28.5374 38.5661 28.6177 38.6293 28.7429L37.3802 29.5913L37.1844 30.0295H35.4878C35.4453 29.9636 35.4331 29.9118 35.4411 29.8337C35.4482 29.7673 35.4646 29.7275 35.5065 29.6751L36.2057 28.7522C36.2579 28.6948 36.2849 28.6593 36.3269 28.5936C36.3688 28.528 36.3703 28.4767 36.4202 28.4165C36.4729 28.3528 36.5131 28.3214 36.5879 28.286C36.7608 28.1723 36.8616 28.1125 37.0448 28.0155C37.2604 27.9015 37.3862 27.8437 37.6135 27.7545L37.6227 27.5401C37.2949 27.5016 37.1101 27.4643 36.793 27.3723C36.5821 27.3111 36.4677 27.2621 36.2616 27.1858C36.2033 27.1642 36.1735 27.1424 36.1125 27.1299C36.0659 27.1205 36.0386 27.1242 35.9912 27.1205C35.8966 27.1134 35.8428 27.1147 35.7488 27.102C35.5898 27.0807 35.5002 27.06 35.3479 27.0088L35.3387 26.8783L35.7672 26.7672Z" fill="#231F20"/>
<path d="M36.2424 25.4158L36.5501 25.6675L36.4196 25.6956L36.345 25.7982L36.2424 25.4158Z" fill="white"/>
<path d="M35.9347 29.6943H36.0465L35.9841 29.9275H35.8722L35.9347 29.6943Z" fill="white"/>
<path d="M35.6737 29.6665H35.7856L35.7231 29.8996H35.6112L35.6737 29.6665Z" fill="white"/>
<path d="M38.693 30.7385H38.8048L38.7425 30.9716H38.6306L38.693 30.7385Z" fill="white"/>
<path d="M38.4141 30.7385H38.5259L38.4633 30.9716H38.3514L38.4141 30.7385Z" fill="white"/>
<path d="M42.9947 30.7383H43.1066L43.0442 30.9714H42.9324L42.9947 30.7383Z" fill="white"/>
<path d="M42.7157 30.7383H42.8275L42.7652 30.9714H42.6533L42.7157 30.7383Z" fill="white"/>
<path d="M46.6489 30.7383H46.7608L46.6984 30.9714H46.5865L46.6489 30.7383Z" fill="white"/>
<path d="M46.3792 30.7197H46.4911L46.4288 30.9528H46.3169L46.3792 30.7197Z" fill="white"/>
</g>
<path d="M25.1124 3.89258H56.2097V26.3393C56.0655 34.8531 49.1385 41.6476 40.6238 41.6271C32.1298 41.6068 25.2562 34.8321 25.1124 26.3393V3.89258Z" stroke="#231F20" stroke-width="0.507341" stroke-miterlimit="3.8637"/>
<path d="M26.97 1.267C26.9621 1.0576 26.9147 0.907405 26.8158 0.773172C26.6459 0.547959 26.3418 0.421631 25.9703 0.421631C25.3382 0.421631 24.9392 0.72977 24.9392 1.21584C24.9392 1.52786 25.0854 1.73726 25.3856 1.85986C25.4685 1.89148 25.6582 1.95472 25.7728 1.98634C26.1245 2.0812 26.0296 2.05748 26.0612 2.06539C26.1561 2.09313 26.2232 2.11669 26.2905 2.14056C26.4326 2.19589 26.492 2.27091 26.492 2.38546C26.492 2.60277 26.3063 2.73715 26.0099 2.73715C25.7966 2.73715 25.6426 2.68569 25.5359 2.57503C25.4569 2.4921 25.4253 2.40515 25.4174 2.23929H24.8445C24.8603 2.83976 25.2712 3.18355 25.9744 3.18355C26.658 3.18355 27.0727 2.86348 27.0727 2.33027C27.0727 2.08925 26.966 1.89178 26.7646 1.75352C26.6341 1.66657 26.4721 1.60736 26.1325 1.52428L26.0693 1.50847L26.0099 1.49266C25.8834 1.46104 25.9272 1.47297 25.8796 1.46104C25.7176 1.41361 25.6505 1.3899 25.5992 1.36216C25.528 1.32263 25.4925 1.25552 25.4925 1.16856C25.4925 0.978996 25.6545 0.868328 25.9231 0.868328C26.2274 0.868328 26.4011 1.00659 26.421 1.26745H26.97V1.267Z" fill="#231F20"/>
<path d="M28.903 2.40504C28.903 2.53539 28.8833 2.59863 28.8161 2.6735C28.7214 2.77627 28.591 2.8316 28.4408 2.8316C28.259 2.8316 28.1485 2.73286 28.1485 2.57477C28.1485 2.40086 28.2433 2.33375 28.5357 2.28632C28.7727 2.25082 28.8123 2.24277 28.903 2.18743V2.40504ZM29.4759 3.12005C29.4244 2.99358 29.4086 2.87903 29.4086 2.60639L29.4165 1.82411C29.4165 1.54744 29.381 1.4487 29.2507 1.34206C29.1045 1.21961 28.8754 1.1604 28.5711 1.1604C28.026 1.1604 27.7256 1.37771 27.6942 1.79652H28.188C28.2235 1.59114 28.3224 1.51209 28.5553 1.51209C28.7964 1.51209 28.907 1.59114 28.907 1.76102C28.907 1.91509 28.8556 1.9388 28.4448 1.99026C28.1722 2.02576 28.0615 2.04947 27.9589 2.08899C27.7296 2.17983 27.6111 2.35373 27.6111 2.5946C27.6111 2.95017 27.8639 3.17151 28.263 3.17151C28.5395 3.17151 28.745 3.09649 28.9111 2.93451C28.9111 3.00566 28.9149 3.03325 28.9427 3.1202H29.4759L29.4759 3.12005Z" fill="#231F20"/>
<path d="M31.3855 2.38908C31.346 2.64591 31.2037 2.77627 30.9707 2.77627C30.6981 2.77627 30.5321 2.54718 30.5321 2.17177C30.5321 1.78056 30.702 1.55549 30.9904 1.55549C31.1918 1.55549 31.33 1.67407 31.3697 1.87944H31.8832C31.8398 1.43304 31.4962 1.1604 30.9823 1.1604C30.3938 1.1604 30.0065 1.56728 30.0065 2.1837C30.0065 2.78029 30.3938 3.17136 30.9746 3.17136C31.4881 3.17136 31.828 2.88291 31.8951 2.38908H31.3855Z" fill="#231F20"/>
<path d="M33.0614 0.484869H32.5398V3.12015H33.0614V2.18768C33.0614 1.96635 33.0733 1.88745 33.1127 1.80437C33.1798 1.66611 33.3063 1.58721 33.4723 1.58721C33.5868 1.58721 33.6817 1.62659 33.741 1.69773C33.7883 1.76097 33.8041 1.83197 33.8041 1.99797V3.12001H34.3257V1.90714C34.3257 1.67805 34.298 1.54366 34.2268 1.42912C34.1163 1.25521 33.9146 1.1605 33.658 1.1605C33.3973 1.1605 33.2233 1.25133 33.0573 1.47267V1.38974L33.0613 1.35022L33.0614 0.484869Z" fill="#231F20"/>
<path d="M36.6302 1.7649C36.6143 1.59099 36.5787 1.49628 36.4958 1.40142C36.3575 1.24348 36.1125 1.1604 35.8004 1.1604C35.2671 1.1604 34.9628 1.3698 34.9628 1.74118C34.9628 1.92284 35.0499 2.07706 35.196 2.15984C35.3106 2.22323 35.3896 2.24679 35.7491 2.32972C35.8874 2.35731 35.994 2.38893 36.0376 2.40489C36.1325 2.44441 36.1799 2.4996 36.1799 2.57865C36.1799 2.72884 36.0455 2.81967 35.8282 2.81967C35.5714 2.81967 35.4489 2.72078 35.4252 2.4996H34.9235C34.9511 2.94615 35.2553 3.17121 35.8203 3.17121C36.3654 3.17121 36.7053 2.92631 36.7053 2.53122C36.7053 2.36134 36.6303 2.2113 36.5038 2.12822C36.3853 2.04917 36.2272 1.99384 35.9587 1.94253C35.5439 1.85558 35.4886 1.82784 35.4886 1.6936C35.4886 1.57906 35.5993 1.51179 35.7849 1.51179C36.0102 1.51179 36.1128 1.58294 36.1405 1.7646H36.6302L36.6302 1.7649Z" fill="#231F20"/>
<path d="M37.789 1.96649C37.8166 1.70175 37.9826 1.53575 38.2157 1.53575C38.4488 1.53575 38.595 1.68982 38.6266 1.96649H37.789ZM38.6266 2.52758C38.5476 2.71715 38.429 2.7962 38.2354 2.7962C37.9549 2.7962 37.8008 2.62229 37.7888 2.30237H39.1597V2.22347C39.1597 1.58333 38.7844 1.16064 38.2194 1.16064C37.6624 1.16064 37.2555 1.58736 37.2555 2.16799C37.2555 2.77248 37.6427 3.1716 38.2312 3.1716C38.6778 3.1716 39.0254 2.92282 39.1281 2.52773H38.6266V2.52758Z" fill="#231F20"/>
<path d="M40.315 1.21195H39.8171V3.12015H40.3387V2.13249C40.3387 1.96649 40.3545 1.87566 40.3902 1.79661C40.4533 1.67028 40.5917 1.58721 40.7419 1.58721C40.8959 1.58721 41.0066 1.64642 41.05 1.75321C41.0736 1.8163 41.0815 1.88744 41.0815 2.0257V3.12015H41.6029V1.91921C41.6029 1.67028 41.5754 1.54381 41.5003 1.4215C41.3974 1.25938 41.1962 1.16064 40.9511 1.16064C40.6744 1.16064 40.481 1.2555 40.315 1.47669V1.21195Z" fill="#231F20"/>
<path d="M43.1369 1.90332H42.1373V2.37343H43.1369V1.90332Z" fill="#231F20"/>
<path d="M45.1996 2.1086H44.5004L44.6702 1.63446C44.6939 1.56347 44.7413 1.42908 44.7691 1.34601C44.8045 1.23534 44.8203 1.19597 44.8558 1.06158C44.9033 1.25518 44.9388 1.37778 45.0298 1.63446L45.1996 2.1086ZM45.1521 0.480957H44.5595L43.556 3.12013H44.1487L44.362 2.53145H45.3418L45.5512 3.12013H46.1557L45.1521 0.480957Z" fill="#231F20"/>
<path d="M47.1957 1.21195H46.698V3.12015H47.2194V2.13249C47.2194 1.96649 47.2351 1.87566 47.2709 1.79661C47.3341 1.67028 47.4722 1.58721 47.6226 1.58721C47.7766 1.58721 47.887 1.64642 47.9307 1.75321C47.9543 1.8163 47.9622 1.88744 47.9622 2.0257V3.12015H48.4836V1.91921C48.4836 1.67028 48.4559 1.54381 48.381 1.4215C48.2781 1.25938 48.0766 1.16064 47.8315 1.16064C47.555 1.16064 47.3615 1.2555 47.1956 1.47669V1.21195H47.1957Z" fill="#231F20"/>
<path d="M49.7689 0.484869H49.2472V3.12015H49.7689V2.18768C49.7689 1.96635 49.7806 1.88745 49.8202 1.80437C49.8876 1.66611 50.014 1.58721 50.1797 1.58721C50.2942 1.58721 50.3891 1.62659 50.4483 1.69773C50.4957 1.76097 50.5114 1.83197 50.5114 1.99797V3.12001H51.0331V1.90714C51.0331 1.67805 51.0053 1.54366 50.9344 1.42912C50.8237 1.25521 50.6219 1.1605 50.3653 1.1605C50.1046 1.1605 49.9307 1.25133 49.7647 1.47267V1.38974L49.7688 1.35022L49.7689 0.484869Z" fill="#231F20"/>
<path d="M52.9582 2.40504C52.9582 2.53539 52.9384 2.59863 52.8714 2.6735C52.7764 2.77627 52.6464 2.8316 52.496 2.8316C52.3145 2.8316 52.2038 2.73286 52.2038 2.57477C52.2038 2.40086 52.2985 2.33375 52.591 2.28632C52.8282 2.25082 52.8674 2.24277 52.9582 2.18743V2.40504ZM53.5312 3.12005C53.4796 2.99358 53.4638 2.87903 53.4638 2.60639L53.4717 1.82411C53.4717 1.54744 53.4362 1.4487 53.3058 1.34206C53.1597 1.21961 52.9304 1.1604 52.6263 1.1604C52.081 1.1604 51.781 1.37771 51.7492 1.79652H52.243C52.2785 1.59114 52.3775 1.51209 52.6107 1.51209C52.8517 1.51209 52.9624 1.59114 52.9624 1.76102C52.9624 1.91509 52.9107 1.9388 52.5 1.99026C52.2274 2.02576 52.1167 2.04947 52.0141 2.08899C51.7847 2.17983 51.6663 2.35373 51.6663 2.5946C51.6663 2.95017 51.9191 3.17151 52.3182 3.17151C52.5946 3.17151 52.8004 3.09649 52.9661 2.93451C52.9661 3.00566 52.9701 3.03325 52.9977 3.1202H53.5312L53.5312 3.12005Z" fill="#231F20"/>
<path d="M54.6938 0.484863H54.1724V3.12015H54.6938V0.484863Z" fill="#231F20"/>
<path d="M56.4407 1.21191H56.0537V0.63501H55.5323V1.21191H55.212V1.5636H55.5323V2.44462C55.5323 2.77245 55.5442 2.85925 55.6071 2.95411C55.6942 3.09237 55.8405 3.1477 56.1326 3.1477C56.2197 3.1477 56.3144 3.13979 56.4449 3.12801V2.72889C56.3776 2.73681 56.3263 2.73681 56.2868 2.73681C56.0852 2.73681 56.0537 2.70131 56.0537 2.46416V1.56346H56.4407L56.4407 1.21191Z" fill="#231F20"/>
</g>
<defs>
<clipPath id="clip0_285_15264">
<rect width="80.6591" height="42" fill="white" transform="translate(0.294189)"/>
</clipPath>
</defs>
</svg>
