<svg width="29" height="42" viewBox="0 0 29 42" fill="none" xmlns="http://www.w3.org/2000/svg">
<path d="M7.23429 8.64795C1.95895 8.64797 1.41286 8.65132 1.40873 8.66208C1.40029 8.68407 1.42182 9.01597 1.44405 9.20465C1.53732 9.99592 1.76137 10.6866 2.08694 11.187C2.4838 11.7969 3.02249 12.1492 3.70052 12.2396C3.81715 12.2552 4.47405 12.2556 15.4392 12.2566L27.0536 12.258L27.0621 12.2326C27.0681 12.2169 27.0707 11.5716 27.0692 10.4297L27.0663 8.65219L14.2411 8.64936C11.2764 8.64881 8.99273 8.64794 7.23429 8.64795ZM17.5799 15.7734C10.7135 15.7734 8.10509 15.7757 8.10042 15.7833C8.09688 15.789 8.0918 15.9036 8.08912 16.0376C8.07077 16.954 8.27062 17.7751 8.65006 18.3421C9.08207 18.9877 9.73007 19.333 10.5858 19.3736C10.6668 19.3774 14.4076 19.3811 18.8995 19.3807L27.0663 19.3792L27.0692 17.6004C27.0707 16.4584 27.0681 15.8131 27.0621 15.7974L27.0536 15.7734H17.5799ZM1.41297 16.0744C1.40443 16.0829 1.40443 19.341 1.41297 19.3496C1.42214 19.3587 4.6825 19.3573 4.68817 19.3482C4.69464 19.3377 1.42144 16.0659 1.41297 16.0744ZM5.88069 20.5153L3.64542 20.5181L1.41156 20.5195L1.40873 23.5517C1.40739 25.2188 1.40766 26.5872 1.41014 26.5937C1.41374 26.6032 2.47972 26.6064 6.69737 26.6064C9.96582 26.6064 11.9826 26.6021 11.986 26.5966C11.989 26.5917 10.6176 25.2218 8.93688 23.5517L5.88069 20.5153ZM21.0232 22.9031L14.9617 22.9045L14.9574 22.9766C14.947 23.2199 15.0107 23.7634 15.0888 24.0985C15.234 24.7212 15.4653 25.2105 15.8038 25.6174C16.2157 26.1125 16.8227 26.4246 17.5078 26.492C17.5705 26.4982 17.6285 26.5046 17.6364 26.5061C17.6442 26.5077 19.7781 26.5082 22.3782 26.5075L27.1045 26.5061L27.1017 24.7103C27.1001 23.7225 27.0957 22.9113 27.0918 22.9074C27.0879 22.9034 24.3573 22.9018 21.0232 22.9031ZM13.122 27.7651L9.94149 27.7665C8.19214 27.7672 5.55744 27.7704 4.08626 27.7735L1.41156 27.7792L1.40732 28.1211C1.39791 29.1865 1.46867 30.0119 1.64469 30.9018C1.81206 31.748 2.10159 32.662 2.44724 33.4324C2.51325 33.5795 2.57613 33.7182 2.58571 33.7404L2.60267 33.78H10.8133C17.5766 33.78 19.0236 33.7775 19.0211 33.7672C19.0194 33.7604 17.6924 32.4078 16.0708 30.7605L13.122 27.7651ZM26.9477 30.2165L24.3422 30.2193L21.7367 30.2222L21.7325 30.2886C21.7308 30.3252 21.7352 30.4445 21.741 30.5542C21.7773 31.25 21.9251 31.8559 22.1846 32.367C22.6349 33.2538 23.3916 33.7404 24.4114 33.7997C24.6207 33.8119 25.8761 33.8011 25.8894 33.787C25.8954 33.7806 25.981 33.5908 26.0787 33.3645C26.2348 33.0033 26.2747 32.8987 26.4065 32.5125C26.5429 32.1129 26.5667 32.0321 26.6721 31.6182C26.7763 31.2092 26.7969 31.1161 26.8685 30.711C26.9124 30.4629 26.9477 30.251 26.9477 30.2391V30.2165ZM20.2913 34.9372L12.6473 34.9485C8.44276 34.9542 4.60631 34.9583 4.12158 34.9583C3.54464 34.9583 3.2399 34.9621 3.2399 34.9682C3.2399 34.9734 3.33741 35.1224 3.45608 35.2989C5.09691 37.7381 7.60097 39.5598 10.4826 40.4123C11.4958 40.7121 12.6178 40.9008 13.6307 40.9407C14.1139 40.9598 14.804 40.9519 15.2033 40.9224C17.8221 40.7288 20.2763 39.7862 22.3061 38.1954C22.5561 37.9995 22.9674 37.65 22.9674 37.633C22.9674 37.6268 22.3649 37.0176 21.6293 36.2794L20.2913 34.9372Z" fill="#1E8D2C"/>
<path d="M6.43456 1.12549C6.4264 1.12549 6.0621 1.94428 5.45398 3.32968C4.92175 4.54217 4.48494 5.54005 4.4847 5.54658C4.48435 5.55581 4.5434 5.5593 4.74609 5.5593C5.00518 5.5593 5.00628 5.55884 5.01738 5.53811C5.02352 5.52662 5.1376 5.25972 5.27029 4.94608C5.40299 4.63244 5.51684 4.37365 5.52321 4.3696C5.53796 4.36023 7.2888 4.35882 7.3021 4.36819C7.30756 4.37203 7.42094 4.63576 7.55361 4.95456C7.68627 5.27336 7.79876 5.54005 7.8037 5.54658C7.81049 5.55558 7.87657 5.5593 8.07357 5.5593C8.31614 5.5593 8.33355 5.55803 8.33355 5.54235C8.33355 5.51072 6.44816 1.12549 6.43456 1.12549ZM23.493 1.15092C23.4825 1.14837 23.4803 1.51962 23.4803 3.3537V5.5593H23.7219H23.9649V3.94855C23.9649 2.94926 23.9678 2.33699 23.9734 2.33355C23.9783 2.3305 24.6298 3.00572 25.4203 3.83551C26.2107 4.6653 26.944 5.43553 27.0508 5.54658C27.1576 5.65764 27.2483 5.74863 27.2528 5.74863C27.2576 5.74863 27.2613 4.79485 27.2613 3.53455V1.32047H27.0197H26.7767L26.7753 2.94253C26.7734 4.20974 26.7702 4.566 26.7611 4.566C26.7548 4.566 26.0199 3.79869 25.1278 2.86058C24.2357 1.92247 23.5 1.15261 23.493 1.15092ZM2.94883 1.25689C2.90792 1.25558 2.87156 1.25888 2.81319 1.26396C2.48616 1.29239 2.22765 1.41266 2.02194 1.63415C1.82336 1.84796 1.73294 2.1156 1.75207 2.42822C1.76756 2.68148 1.84963 2.85897 2.03607 3.0372C2.1862 3.18072 2.37724 3.2956 2.73124 3.45402C2.80963 3.4891 2.97275 3.56576 3.09295 3.62498C3.43537 3.79369 3.56769 3.90673 3.64965 4.10114C3.77386 4.39578 3.66229 4.7805 3.39108 4.99271C3.23034 5.11848 3.04663 5.17951 2.82732 5.17922C2.55668 5.17887 2.31089 5.04866 2.17171 4.83164C2.11804 4.74794 2.05579 4.61016 2.02759 4.5109C2.01398 4.463 1.99896 4.419 1.99509 4.41482C1.98909 4.40833 1.54184 4.52661 1.53024 4.53774C1.52797 4.53991 1.54462 4.60232 1.56697 4.67621C1.64174 4.92339 1.75788 5.11998 1.92586 5.28378C2.03894 5.39404 2.13787 5.46274 2.27062 5.52115C2.35782 5.55952 2.52796 5.60698 2.6182 5.61864C2.67681 5.62622 2.98117 5.62416 3.06045 5.61582C3.1793 5.60331 3.35848 5.54702 3.48716 5.48159C3.70635 5.37014 3.91055 5.17247 4.02973 4.95597C4.2059 4.63594 4.23833 4.19709 4.10744 3.88638C4.06039 3.77467 3.9908 3.68075 3.87007 3.56281C3.68586 3.38286 3.51259 3.27834 3.08871 3.09513C2.78599 2.96429 2.53933 2.83463 2.443 2.75602C2.37063 2.69698 2.3029 2.6076 2.2692 2.5243C2.24004 2.4522 2.23853 2.43952 2.23953 2.34203C2.24074 2.22469 2.26236 2.14749 2.3229 2.03966C2.43851 1.83372 2.67001 1.70895 2.93611 1.70903C3.12255 1.7091 3.2543 1.74966 3.39391 1.85315C3.4548 1.8983 3.54511 2.00325 3.61856 2.11172C3.63537 2.13655 3.65521 2.15694 3.66237 2.15694C3.67487 2.15694 3.98782 1.96072 4.02267 1.93087C4.032 1.92287 4.03656 1.91077 4.03397 1.90402C4.02286 1.87507 3.83796 1.63546 3.79942 1.60024C3.77619 1.579 3.7145 1.52728 3.66237 1.48579C3.57879 1.41928 3.55066 1.40455 3.42499 1.35297C3.28546 1.29571 3.27969 1.29278 3.11273 1.27243C3.03542 1.26301 2.98974 1.2582 2.94883 1.25689ZM10.6621 1.25689C10.4234 1.26359 10.1853 1.30716 9.96833 1.38688C9.65519 1.50192 9.4086 1.66102 9.16577 1.90402C8.81798 2.25206 8.61918 2.63661 8.54125 3.11208C8.51395 3.27869 8.51175 3.62061 8.53702 3.77758C8.59698 4.15009 8.73362 4.47442 8.95383 4.76523C9.03642 4.87429 9.28175 5.11501 9.39185 5.19617C9.68648 5.41338 9.99612 5.54523 10.3625 5.60734C10.4528 5.62264 10.505 5.62468 10.7511 5.62147L11.0365 5.61723L11.2131 5.57484C11.4392 5.51985 11.626 5.44329 11.8348 5.32051L11.9874 5.23009L11.9888 4.93337C11.9908 4.69906 11.9898 4.63644 11.9804 4.63665C11.9737 4.6368 11.9013 4.69167 11.8193 4.75816C11.614 4.92468 11.4303 5.02725 11.2047 5.10009C11.0583 5.14733 11.0321 5.15179 10.8698 5.16792C10.607 5.19403 10.4227 5.17553 10.1873 5.09727C9.57255 4.89287 9.13268 4.36939 9.02024 3.70835C8.99871 3.58178 8.99994 3.31641 9.02165 3.18838C9.14634 2.4532 9.70025 1.87112 10.4092 1.73305C10.5541 1.70483 10.6706 1.70155 10.8655 1.72034C11.0294 1.73614 11.0593 1.74305 11.1933 1.78533C11.3567 1.83686 11.3524 1.83379 11.5409 1.93934C11.6425 1.9962 11.7114 2.04489 11.8249 2.13857C11.9072 2.20645 11.9783 2.26149 11.9832 2.26149C11.9885 2.26149 11.9917 2.14233 11.9917 1.9676C11.9917 1.70035 11.9899 1.67428 11.9747 1.66099C11.9209 1.61386 11.6584 1.46445 11.5339 1.4109C11.2762 1.30011 10.969 1.24828 10.6621 1.25689ZM18.3231 1.25689C18.282 1.2555 18.2456 1.25764 18.1874 1.26254C17.86 1.2901 17.6074 1.40945 17.3962 1.63415C17.1965 1.84658 17.1113 2.09371 17.1263 2.41833C17.1378 2.66731 17.2057 2.82694 17.3736 3.00046C17.5158 3.1475 17.669 3.2496 17.9571 3.3862C18.0527 3.43152 18.1326 3.46815 18.1351 3.46815C18.1466 3.46815 18.5866 3.68199 18.6466 3.71682C18.8335 3.82525 18.9566 3.95055 19.0196 4.09691C19.1467 4.39184 19.0329 4.78843 18.7639 4.9913C18.634 5.08926 18.4822 5.1532 18.3344 5.17357C18.1146 5.20384 17.8849 5.14622 17.7169 5.01814C17.5725 4.90811 17.4676 4.73971 17.3976 4.50525C17.383 4.45648 17.369 4.41454 17.3665 4.41199C17.3639 4.40944 17.2622 4.4356 17.139 4.46992C17.0158 4.50425 16.9129 4.53209 16.9101 4.53209C16.899 4.53209 16.9057 4.56864 16.9412 4.68328C17.0171 4.92847 17.1136 5.0934 17.2789 5.26258C17.4453 5.4329 17.6343 5.54094 17.854 5.59039C17.9141 5.60391 17.9767 5.61662 17.9924 5.61864C18.0548 5.6267 18.3579 5.62494 18.4375 5.61582C18.8252 5.57141 19.213 5.3055 19.404 4.95315C19.6149 4.56387 19.6117 4.04214 19.3969 3.73519C19.3399 3.65373 19.2081 3.51826 19.1171 3.44837C18.9768 3.34051 18.7463 3.21467 18.5096 3.11632C18.3395 3.04568 18.0435 2.90313 17.9514 2.84786C17.7876 2.74946 17.6948 2.65275 17.6406 2.52289C17.6154 2.4625 17.6124 2.44547 17.6123 2.34627C17.6123 2.22351 17.6308 2.15401 17.6901 2.04673C17.818 1.81532 18.102 1.67983 18.3979 1.71045C18.6386 1.73534 18.7987 1.83975 18.9688 2.08064C18.9964 2.11982 19.0262 2.15273 19.0338 2.15411C19.0488 2.15686 19.4048 1.92932 19.4096 1.91391C19.4112 1.90868 19.3652 1.84112 19.3065 1.76273C19.2116 1.63613 19.1859 1.60854 19.0762 1.51829C18.9573 1.42049 18.9466 1.41469 18.8049 1.3558C18.6594 1.29535 18.6552 1.29458 18.487 1.27385C18.41 1.26437 18.3641 1.25828 18.3231 1.25689ZM12.9327 1.33036V3.44413V5.5593H13.1743H13.4173V4.53916C13.4173 3.75881 13.4199 3.51644 13.4286 3.50771C13.4452 3.49116 15.5272 3.49116 15.5438 3.50771C15.5525 3.51644 15.5551 3.75881 15.5551 4.53916V5.5593H15.7967H16.0397V3.44413V1.33036H15.7967H15.5551V2.17813C15.5551 2.82545 15.5525 3.02991 15.5438 3.03861C15.5272 3.05516 13.4452 3.05516 13.4286 3.03861C13.4199 3.02991 13.4173 2.82545 13.4173 2.17813V1.33036H13.1743H12.9327ZM20.4199 1.33036V3.44413V5.5593H21.522H22.624V5.33464V5.1114H21.7763C21.129 5.1114 20.9245 5.10879 20.9158 5.10009C20.9071 5.09141 20.9045 4.89936 20.9045 4.29048C20.9045 3.68159 20.9071 3.48814 20.9158 3.47945C20.9245 3.47076 21.1234 3.46815 21.7523 3.46815H22.5774V3.2449V3.02166H21.7523C21.1234 3.02166 20.9245 3.01905 20.9158 3.01035C20.9072 3.00173 20.9045 2.85223 20.9045 2.39855C20.9045 1.94487 20.9072 1.79679 20.9158 1.78816C20.9245 1.77946 21.129 1.77685 21.7763 1.77685H22.624V1.55361V1.33036H21.522H20.4199ZM6.42749 2.26573C6.43814 2.26573 7.10801 3.88856 7.10288 3.90192C7.09577 3.92045 5.74085 3.92046 5.73374 3.90192C5.72862 3.88857 6.41671 2.26573 6.42749 2.26573Z" fill="black"/>
</svg>
