<svg width="43" height="42" viewBox="0 0 43 42" fill="none" xmlns="http://www.w3.org/2000/svg">
<g clip-path="url(#clip0_285_15259)">
<path d="M1.99481 20.9854C1.99481 27.4214 5.08026 33.1362 9.8521 36.7329V5.23804C5.08026 8.83475 1.99481 14.5495 1.99481 20.9854Z" fill="#E2001A"/>
<path d="M41.4105 20.9853C41.4105 14.5493 38.3251 8.8345 33.5532 5.23779V36.7327C38.3251 33.136 41.4105 27.4212 41.4105 20.9853Z" fill="#E2001A"/>
<path d="M21.7027 1.27759C17.2542 1.27759 13.1504 2.75204 9.85211 5.23807V36.7329C13.1505 39.2189 17.2542 40.6934 21.7027 40.6934C26.1512 40.6934 30.255 39.2191 33.5533 36.7329V5.23798C30.255 2.75204 26.1512 1.27759 21.7027 1.27759Z" fill="#008AC2"/>
<path d="M42.6881 20.9854C42.6881 13.7929 39.069 7.44654 33.5532 3.66528V4.9308C38.4689 8.56525 41.6569 14.4027 41.6569 20.9854C41.6569 27.5683 38.4689 33.4056 33.5532 37.0402V38.3055C39.069 34.5243 42.6881 28.178 42.6881 20.9854Z" fill="#C00418"/>
<path d="M1.74832 20.9854C1.74832 14.4027 4.93635 8.56525 9.85209 4.9308V3.66528C4.33635 7.44644 0.717285 13.7928 0.717285 20.9853C0.717285 28.1779 4.33635 34.5243 9.85209 38.3055V37.0402C4.93645 33.4056 1.74832 27.5683 1.74832 20.9854Z" fill="#C00418"/>
<path d="M21.7027 1.03113C26.1405 1.03113 30.2392 2.48061 33.5533 4.93074V3.66532C30.181 1.35348 26.1002 0 21.7027 0C17.3052 0 13.2244 1.35348 9.85211 3.66532V4.93074C13.166 2.48052 17.2649 1.03113 21.7027 1.03113Z" fill="#0076A7"/>
<path d="M21.7027 40.9397C17.2649 40.9397 13.166 39.4902 9.85211 37.04V38.3054C13.2244 40.6172 17.3052 41.9707 21.7027 41.9707C26.1002 41.9707 30.181 40.6172 33.5533 38.3054V37.04C30.2393 39.4903 26.1405 40.9397 21.7027 40.9397Z" fill="#0076A7"/>
<path d="M8.51727 14.2771C8.51727 14.2771 9.51453 14.3303 9.98224 13.6794C9.97895 13.2779 9.73682 12.895 9.35824 13.0941C9.32389 13.4709 8.51727 14.2771 8.51727 14.2771Z" fill="#FECC00"/>
<path d="M7.34113 13.0036C7.34113 13.0036 7.47825 11.969 8.42316 11.7059C8.96964 11.6846 8.69384 11.8034 8.70409 12.4829C8.04748 12.4535 7.34113 13.0036 7.34113 13.0036Z" fill="#FECC00"/>
<path d="M7.49603 9.80652C7.49603 9.80652 8.51623 9.45988 9.4231 10.0141C9.4231 10.0141 9.1109 10.7386 8.76687 10.613C8.52968 10.2819 8.1061 10.0129 7.49603 9.80652Z" fill="#FECC00"/>
<path d="M11.0851 9.01074C11.0851 9.01074 11.7426 9.73732 11.3001 10.8414C10.9947 11.0395 10.6464 11.1064 10.5887 10.4145C10.9164 10.1753 11.0851 9.01074 11.0851 9.01074Z" fill="#FECC00"/>
<path d="M6.81549 23.0412C6.81549 23.0412 7.26423 22.1724 8.54668 22.146C9.21849 22.7923 8.97491 22.9394 8.32885 23.1629C7.81159 22.8438 6.81549 23.0412 6.81549 23.0412Z" fill="#FECC00"/>
<path d="M7.5114 25.9719C7.5114 25.9719 7.30005 24.611 8.08992 24.3351C8.44876 24.3152 8.57447 24.481 8.59431 25.0079C8.01763 25.1566 7.5114 25.9719 7.5114 25.9719Z" fill="#FECC00"/>
<path d="M10.5414 26.559C10.5414 26.559 9.69869 25.9757 9.56989 25.2306C9.69869 25.0005 10.1269 24.8435 10.4758 25.1627C10.4263 25.7689 10.5414 26.559 10.5414 26.559Z" fill="#FECC00"/>
<path d="M11.8481 26.1656C11.8481 26.1656 12.3353 25.203 12.0957 24.648C11.6284 24.3818 11.3508 24.7251 11.366 25.0141C11.6361 25.2502 11.8481 26.1656 11.8481 26.1656Z" fill="#FECC00"/>
<path d="M11.6761 33.5039C11.6761 33.5039 12.5607 32.7598 13.6358 33.1555C13.7149 33.346 13.868 33.8575 13.3112 33.9269C12.7742 33.5582 11.6761 33.5039 11.6761 33.5039Z" fill="#FECC00"/>
<path d="M11.9317 36.0183C11.9317 36.0183 11.7973 34.9307 12.7222 34.3584C13.0832 34.4391 13.438 34.6869 13.1699 35.1715C12.7754 35.046 11.9317 36.0183 11.9317 36.0183Z" fill="#FECC00"/>
<path d="M13.8842 37.3027C13.8842 37.3027 13.3123 36.4393 13.7512 35.4291C14.0369 35.3835 14.5629 35.3723 14.6807 35.8842C14.0033 36.2179 13.8842 37.3027 13.8842 37.3027Z" fill="#FECC00"/>
<path d="M16.1636 36.9754C16.1636 36.9754 16.7952 36.2679 16.5774 35.2335C16.1394 35.0332 15.799 35.3098 15.6505 35.738C16.0785 36.2453 16.1636 36.9754 16.1636 36.9754Z" fill="#FECC00"/>
<path d="M30.2275 36.3341C30.2275 36.3341 30.1234 35.6304 29.4219 35.0931C28.4991 35.0339 28.6193 35.2437 28.8994 35.8769C29.2277 35.832 30.2275 36.3341 30.2275 36.3341Z" fill="#FECC00"/>
<path d="M27.7138 38.3906C27.7138 38.3906 27.089 37.2727 27.4992 36.4642C28.3393 36.0741 28.346 36.2776 28.3089 36.9707C28.0042 37.2128 27.7138 38.3906 27.7138 38.3906Z" fill="#FECC00"/>
<path d="M25.7421 38.1417C25.7421 38.1417 25.4808 36.9007 25.9482 36.2858C26.2107 36.2029 26.5944 36.3836 26.6509 36.8581C26.2211 37.2708 25.7421 38.1417 25.7421 38.1417Z" fill="#FECC00"/>
<path d="M24.4716 36.2634C24.4716 36.2634 24.6714 35.376 25.6921 35.2095C26.54 35.5799 26.3364 35.5979 25.8027 36.0343C25.2753 35.9317 24.4716 36.2634 24.4716 36.2634Z" fill="#FECC00"/>
<path d="M17.3924 9.99683C17.4159 10.4018 17.6523 10.7228 17.9907 10.9506C18.842 11.5236 22.0324 11.2179 22.0324 11.2179L21.8791 11.5624C21.8791 11.5624 18.8082 11.9095 18.0572 11.8292C17.5632 11.7765 17.1058 11.5139 16.9832 10.9595C16.8885 10.5314 17.1094 10.162 17.3924 9.99683Z" fill="#E2001A" stroke="#008AC2" stroke-width="0.123435" stroke-miterlimit="3.8637"/>
<path d="M10.5348 13.2763L10.048 13.833L9.20387 13.3302L9.26241 12.6524L8.58403 12.6444L8.19393 11.6336L8.9838 11.3085L8.49771 10.591L9.50474 9.87573L10.1004 10.4367L10.5873 9.94986L11.676 10.5323L11.4939 11.2035L11.9062 11.8501L16.011 14.2189L19.9797 14.5558C20.4785 14.5982 20.7255 14.2533 20.7947 13.985C20.8855 13.6333 20.7201 13.0671 19.3395 13.2014C19.1604 13.2014 19.0709 13.1865 18.9811 13.0742C18.8944 12.966 18.8171 12.582 18.832 12.3357C18.8649 12.226 19.2916 11.9425 19.2916 11.9425C19.2916 11.9425 20.9897 12.2226 21.515 11.8935C21.7659 11.7362 21.7601 11.2703 21.613 10.9517C21.4529 10.6046 19.7051 10.9776 19.1249 10.8387C18.5088 10.6913 18.5872 10.0582 18.6214 9.81806C18.6398 9.68954 18.796 9.53102 18.796 9.53102L18.6001 9.20441L20.0598 8.29367L25.1101 8.29348V8.54383L25.7854 8.09393L26.3516 8.48586C26.3516 8.48586 26.4737 9.31348 25.737 10.2848C26.8354 11.573 26.5572 18.289 26.5572 18.289L25.3865 20.4691C25.399 20.4775 25.5035 21.2237 25.9065 21.8507C26.9513 23.4625 28.4736 24.6565 30.157 24.3409C31.9261 24.0089 32.9273 22.6824 32.7966 20.9841C32.6214 18.7058 30.2503 17.5971 29.307 16.6467C28.1194 15.4504 28.2376 13.8956 28.2376 13.8956C28.4764 12.8509 28.8267 12.3567 29.2815 11.9699C30.2819 11.1193 31.593 10.5969 32.5482 9.85067C33.0487 9.45961 33.0516 9.11325 32.9512 8.88051C32.3691 8.50735 32.7123 8.01486 32.996 7.89544C33.531 7.67015 34.2198 7.6119 34.8467 8.01486C35.3638 8.34728 35.8318 9.17906 34.9363 10.2387C34.3353 10.9499 32.863 11.4714 32.2199 11.7611C31.4952 12.0874 30.8724 12.5285 30.1988 13.2958C29.4759 14.1193 29.7068 15.1421 30.4769 15.9399C30.4769 15.9399 33.9289 18.197 34.0113 21.328C34.0527 22.8996 33.5551 23.9458 32.3611 24.9905C31.4472 25.6562 29.8468 25.9999 28.7869 25.6864C26.7433 28.1694 30.3747 30.6081 30.3747 30.6081L29.7151 35.041L29.0845 36.2138L28.5138 36.3085L28.2584 37.2606L27.0887 37.1944L27.0917 36.7486L26.7432 37.1621L25.3932 36.7266L25.6545 36.2693L25.3813 36.2364L25.3453 35.0411L27.0256 34.5995L27.2778 34.1234L27.1569 31.7838L23.5378 30.3202L22.7197 27.0091C19.7654 26.5762 19.7876 29.8919 20.5616 30.1273L16.7708 34.8105L16.8362 35.5289L15.6418 36.0255L15.2684 35.6161L14.5716 36.2476L13.4612 35.7903L13.5113 35.1864L13.0475 35.4201L12.3725 34.375L12.8951 34.0484L12.7209 33.7872L13.2435 32.8942L14.833 33.134L15.4232 32.6921C15.4232 32.6921 16.4485 30.2646 16.3198 29.4579C16.2735 29.168 14.7242 27.0372 14.7242 27.0372C15.0024 26.1904 16.4388 22.886 21.5052 23.9858C20.8084 22.6559 18.4486 21.527 18.4486 21.527L12.984 23.4537L11.8609 23.9098L12.3099 24.7496L11.3492 25.1647L10.9077 24.7822L10.7829 25.2953L9.56358 25.4477L9.26212 24.7822L8.60551 25.1865L7.88696 24.163L8.69203 23.5538L8.1047 23.2268L8.58345 22.095L9.80329 22.4424L10.6522 22.3776L15.1811 19.1333C12.6559 16.8033 10.5348 13.2763 10.5348 13.2763Z" fill="white"/>
<path d="M15.4235 32.6921L14.8333 33.134L13.2438 32.8943L12.7213 33.7872L12.7559 33.8392H17.5574L20.562 30.1274L20.5616 30.1272H16.2714C16.0697 31.1615 15.4235 32.6921 15.4235 32.6921Z" fill="#E2001A"/>
<path d="M30.3751 30.6081C30.3751 30.6081 30.1134 30.4322 29.7702 30.1272H23.4905L23.5382 30.3204L27.1573 31.7839L27.2636 33.8392H29.8942L30.3751 30.6081Z" fill="#E2001A"/>
<path d="M8.10513 23.2266L8.69245 23.5536L7.88739 24.1628L8.60594 25.1863L9.26255 24.782L9.564 25.4474L10.7834 25.2951L10.908 24.782L11.3495 25.1646L12.3102 24.7495L11.8611 23.9097L12.9842 23.4536L15.0213 22.7354H8.31291L8.10513 23.2266Z" fill="#E2001A"/>
<path d="M28.7873 25.6862C29.8471 25.9995 31.4475 25.6559 32.3615 24.9903C33.1598 24.2918 33.6454 23.5918 33.868 22.7354H32.4694C32.048 23.5516 31.2492 24.1358 30.1572 24.3406C28.8013 24.5949 27.5502 23.8694 26.5687 22.7354H20.3759C20.8392 23.1045 21.2686 23.5334 21.5055 23.9857C17.1634 23.0431 15.4876 25.3354 14.9222 26.5432H28.2921C28.3909 26.2606 28.5506 25.9737 28.7873 25.6862Z" fill="#E2001A"/>
<path d="M30.4772 15.9398C30.3424 15.8002 30.2247 15.6536 30.1251 15.5024H28.5435C28.703 15.8808 28.9438 16.2804 29.3073 16.6465C29.9021 17.2457 31.0642 17.9083 31.8859 18.887H33.2721C32.2354 17.0903 30.4772 15.9398 30.4772 15.9398Z" fill="#E2001A"/>
<path d="M26.5575 18.2888C26.5575 18.2888 26.6094 17.0324 26.5796 15.5024H12.0358C12.8091 16.5614 13.8198 17.8246 14.9214 18.8871H26.2362L26.5575 18.2888Z" fill="#E2001A"/>
<path d="M11.9063 11.85L11.494 11.2035L11.6761 10.5323L10.5874 9.94986L10.1005 10.4367L9.50484 9.87573L8.49771 10.591L8.9838 11.3084L8.19403 11.6336L8.29816 11.9034H11.9989L11.9063 11.85Z" fill="#E2001A"/>
<path d="M19.2918 11.9424C19.2918 11.9424 19.2895 11.9438 19.2859 11.9463C19.2895 11.9453 19.293 11.9442 19.2966 11.9432C19.2934 11.9427 19.2918 11.9424 19.2918 11.9424Z" fill="#E2001A"/>
<path d="M32.2201 11.7611C32.8633 11.4714 34.3355 10.9499 34.9366 10.2387C35.832 9.17906 35.364 8.34728 34.8469 8.01486C34.22 7.6119 33.5312 7.67015 32.9962 7.89544C32.7126 8.01486 32.3693 8.50735 32.9514 8.88051C33.0519 9.11325 33.049 9.45961 32.5485 9.85067C31.6186 10.5771 30.3525 11.0923 29.363 11.9036H31.9255C32.0221 11.8537 32.12 11.8062 32.2201 11.7611Z" fill="#E2001A"/>
<path d="M25.7372 10.2846C26.4739 9.3132 26.3518 8.48569 26.3518 8.48569L25.7857 8.09375L25.1103 8.54365V8.2933L20.06 8.29359L18.6002 9.20423L18.7962 9.53085C18.7962 9.53085 18.64 9.68936 18.6216 9.81788C18.5873 10.0579 18.5089 10.6911 19.125 10.8386C19.7053 10.9774 21.453 10.6046 21.6132 10.9515C21.7603 11.2701 21.7661 11.736 21.5151 11.8933C21.5093 11.8969 21.5028 11.9001 21.4968 11.9035H26.2996C26.1722 11.1734 25.9917 10.5832 25.7372 10.2846Z" fill="#E2001A"/>
<path d="M20.5031 8.92432L21.1913 9.31306H20.2117L20.5031 8.92432Z" fill="white"/>
<path d="M10.5348 13.2763L10.048 13.833L9.20387 13.3302L9.26241 12.6524L8.58403 12.6444L8.19393 11.6336L8.9838 11.3085L8.49771 10.591L9.50474 9.87573L10.1004 10.4367L10.5873 9.94986L11.676 10.5323L11.4939 11.2035L11.9062 11.8501L16.011 14.2189L19.9797 14.5558C20.4785 14.5982 20.7255 14.2533 20.7947 13.985C20.8855 13.6333 20.7201 13.0671 19.3395 13.2014C19.1604 13.2014 19.0709 13.1865 18.9811 13.0742C18.8944 12.966 18.8171 12.582 18.832 12.3357C18.8649 12.226 19.2916 11.9425 19.2916 11.9425C19.2916 11.9425 20.9897 12.2226 21.515 11.8935C21.7659 11.7362 21.7601 11.2703 21.613 10.9517C21.4529 10.6046 19.7051 10.9776 19.1249 10.8387C18.5088 10.6913 18.5872 10.0582 18.6214 9.81806C18.6398 9.68954 18.796 9.53102 18.796 9.53102L18.6001 9.20441L20.0598 8.29367L25.1101 8.29348V8.54383L25.7854 8.09393L26.3516 8.48586C26.3516 8.48586 26.4737 9.31348 25.737 10.2848C26.8354 11.573 26.5572 18.289 26.5572 18.289L25.3865 20.4691C25.399 20.4775 25.5035 21.2237 25.9065 21.8507C26.9513 23.4625 28.4736 24.6565 30.157 24.3409C31.9261 24.0089 32.9273 22.6824 32.7966 20.9841C32.6214 18.7058 30.2503 17.5971 29.307 16.6467C28.1194 15.4504 28.2376 13.8956 28.2376 13.8956C28.4764 12.8509 28.8267 12.3567 29.2815 11.9699C30.2819 11.1193 31.593 10.5969 32.5482 9.85067C33.0487 9.45961 33.0516 9.11325 32.9512 8.88051C32.3691 8.50735 32.7123 8.01486 32.996 7.89544C33.531 7.67015 34.2198 7.6119 34.8467 8.01486C35.3638 8.34728 35.8318 9.17906 34.9363 10.2387C34.3353 10.9499 32.863 11.4714 32.2199 11.7611C31.4952 12.0874 30.8724 12.5285 30.1988 13.2958C29.4759 14.1193 29.7068 15.1421 30.4769 15.9399C30.4769 15.9399 33.9289 18.197 34.0113 21.328C34.0527 22.8996 33.5551 23.9458 32.3611 24.9905C31.4472 25.6562 29.8468 25.9999 28.7869 25.6864C26.7433 28.1694 30.3747 30.6081 30.3747 30.6081L29.7151 35.041L29.0845 36.2138L28.5138 36.3085L28.2584 37.2606L27.0887 37.1944L27.0917 36.7486L26.7432 37.1621L25.3932 36.7266L25.6545 36.2693L25.3813 36.2364L25.3453 35.0411L27.0256 34.5995L27.2778 34.1234L27.1569 31.7838L23.5378 30.3202L22.7197 27.0091C19.7654 26.5762 19.7876 29.8919 20.5616 30.1273L16.7708 34.8105L16.8362 35.5289L15.6418 36.0255L15.2684 35.6161L14.5716 36.2476L13.4612 35.7903L13.5113 35.1864L13.0475 35.4201L12.3725 34.375L12.8951 34.0484L12.7209 33.7872L13.2435 32.8942L14.833 33.134L15.4232 32.6921C15.4232 32.6921 16.4485 30.2646 16.3198 29.4579C16.2735 29.168 14.7242 27.0372 14.7242 27.0372C15.0024 26.1904 16.4388 22.886 21.5052 23.9858C20.8084 22.6559 18.4486 21.527 18.4486 21.527L12.984 23.4537L11.8609 23.9098L12.3099 24.7496L11.3492 25.1647L10.9077 24.7822L10.7829 25.2953L9.56358 25.4477L9.26212 24.7822L8.60551 25.1865L7.88696 24.163L8.69203 23.5538L8.1047 23.2268L8.58345 22.095L9.80329 22.4424L10.6522 22.3776L15.1811 19.1333C12.6559 16.8033 10.5348 13.2763 10.5348 13.2763Z" stroke="#008AC2" stroke-width="0.246871" stroke-miterlimit="3.8637"/>
<path d="M19.2144 5.58392L21.1328 6.62086C20.4302 6.88466 20.6545 7.56721 21.2984 7.56721C22.0389 7.56721 22.0984 6.79592 21.4944 6.63073L22.5659 5.19141L23.7349 6.6406C23.0047 6.8447 23.2277 7.55695 23.9114 7.55705C24.4956 7.55724 24.7877 6.83483 24.0768 6.63073L26.0149 5.58392L24.9826 8.28015H20.1486L19.2144 5.58392Z" fill="#FECC00"/>
<path d="M31.2473 9.23431H29.9899L29.3614 10.342L28.7327 9.23431H27.4261L28.1041 8.12673L27.4261 7.01905H28.7327L29.3614 5.91138L29.99 7.01905H31.2473L30.6186 8.12673L31.2473 9.23431Z" fill="white"/>
<path d="M35.4457 15.737H34.1884L33.5598 16.8447L32.9312 15.737H31.674L32.3025 14.6293L31.674 13.5217H32.9312L33.5598 12.4141L34.1885 13.5217H35.4457L34.817 14.6293L35.4457 15.737Z" fill="white"/>
<path d="M30.9527 22.0283H29.6955L29.0668 23.1359L28.4382 22.0283H27.181L27.8095 20.9206L27.181 19.8129H28.4382L29.0668 18.7053L29.6955 19.8129H30.9527L30.3241 20.9206L30.9527 22.0283Z" fill="white"/>
<path d="M35.4385 28.6944H34.1813L33.5527 29.8023L32.924 28.6946L31.6669 28.6944L32.2955 27.5868L31.6669 26.4793H32.924L33.5527 25.3716L34.1813 26.4793H35.4385L34.81 27.5868L35.4385 28.6944Z" fill="white"/>
<path d="M23.514 38.0374H22.2567L21.6283 39.1451L20.9996 38.0374H19.7424L20.371 36.9296L19.7424 35.822H20.9996L21.6283 34.7144L22.2568 35.822H23.514L22.8854 36.9296L23.514 38.0374Z" fill="white"/>
<path d="M14.1857 30.991H12.9285L12.2999 32.0986L11.6713 30.991H10.4141L11.0427 29.8833L10.4141 28.7757L11.6713 28.7755L12.2999 27.668L12.9285 28.7755L14.1857 28.7757L13.5572 29.8833L14.1857 30.991Z" fill="white"/>
<path d="M11.7354 19.8886L10.4781 19.8887L9.84958 20.9963L9.22094 19.8887H7.96375L8.59229 18.781L7.96375 17.6734H9.22094L9.84958 16.5657L10.4782 17.6734H11.7354L11.1068 18.781L11.7354 19.8886Z" fill="white"/>
<path d="M16.2975 9.23431H15.0898L14.4612 10.342L13.8325 9.23431H12.5753L13.2039 8.12673L12.5753 7.01905H13.8325L14.4612 5.91138L15.0898 7.01905H16.2975L15.7184 8.12673L16.2975 9.23431Z" fill="white"/>
</g>
<defs>
<clipPath id="clip0_285_15259">
<rect width="42" height="42" fill="white" transform="translate(0.717285)"/>
</clipPath>
</defs>
</svg>
